<?xml version="1.0" encoding="utf-8"?>
<!-- Generator: Adobe Illustrator 26.4.1, SVG Export Plug-In . SVG Version: 6.00 Build 0)  -->
<svg version="1.1" id="Layer_1" xmlns="http://www.w3.org/2000/svg" xmlns:xlink="http://www.w3.org/1999/xlink" x="0px" y="0px"
	 viewBox="0 0 2340.75 448.5" style="enable-background:new 0 0 2340.75 448.5;" xml:space="preserve">
<style type="text/css">
	.st0{fill:#2C5697;}
	.st1{fill-rule:evenodd;clip-rule:evenodd;fill:#2C5697;}
</style>
<path class="st0" d="M470.46,342.09c-8.11-0.14-13.95-2.13-17.52-5.98c-3.57-3.99-5.36-9.21-5.36-15.67c0-9.07,3.3-15.81,9.9-20.21
	c6.6-4.4,16.77-6.6,30.51-6.6h4.95c1.65,0,3.16,0.07,4.54,0.21v32.37c-3.02,4.95-6.87,8.8-11.54,11.54
	c-4.67,2.75-9.9,4.12-15.67,4.12v-0.21L470.46,342.09z M511.9,351.58l5.77-8.25c-3.99-1.92-6.6-4.88-7.84-8.87
	c-1.1-3.99-1.51-10.1-1.24-18.35l0.83-37.93c0.27-4.54,0.14-8.8-0.41-12.78c-0.41-4.12-1.58-8.11-3.51-11.96
	c-2.06-4.26-5.29-7.49-9.69-9.69c-4.26-2.2-9.55-3.3-15.88-3.3c-7.42,0-14.57,1.24-21.44,3.71c-6.87,2.47-13.47,5.91-19.79,10.31
	l5.77,8.25c4.12-3.57,9.21-6.6,15.26-9.07c6.05-2.47,12.23-3.78,18.56-3.92c3.57,0,6.6,0.55,9.07,1.65c2.47,1.1,4.6,2.61,6.39,4.53
	c1.65,1.79,2.75,4.19,3.3,7.22c0.55,3.02,0.82,7.01,0.82,11.96v9.69c-0.55,0-1.72-0.07-3.5-0.21h-5.77
	c-16.77,0-29.89,3.02-39.38,9.07c-9.48,6.05-14.29,15.05-14.43,27.01c0,4.81,0.96,9.42,2.89,13.81c1.92,4.4,5.36,8.04,10.31,10.93
	c4.95,2.75,11.68,4.19,20.2,4.33c6.05,0,11.55-1.17,16.49-3.51c4.95-2.2,9.62-5.77,14.02-10.72c0.83,3.85,2.34,7.01,4.54,9.48
	c2.2,2.61,5.02,4.47,8.45,5.57L511.9,351.58z"/>
<path class="st0" d="M546.73,348.28h11.54V278.8c0-4.12,0.55-7.42,1.65-9.9c1.1-2.47,3.02-5.02,5.77-7.63
	c2.75-2.75,5.64-4.81,8.66-6.18c3.02-1.38,6.19-2.06,9.48-2.06c0.83,0,1.65,0.07,2.47,0.21c0.83,0.27,1.51,0.55,2.06,0.82
	l4.54-12.37c-0.28-0.14-0.96-0.34-2.06-0.62c-1.1-0.27-2.34-0.41-3.71-0.41c-2.89,0-5.84,0.55-8.86,1.65
	c-3.02,1.1-6.05,2.82-9.07,5.15c-2.2,1.65-4.26,3.44-6.18,5.36c-1.92,2.06-3.57,4.19-4.95,6.39c0-5.36-0.41-9.55-1.24-12.58
	s-1.44-4.81-1.86-5.36l-11.55,2.89c0.41,0.55,1.03,2.47,1.86,5.77c0.82,3.3,1.24,8.38,1.24,15.26v82.88v-0.21L546.73,348.28z"/>
<path class="st0" d="M631.46,349.31h11.75l38.76-106.18H669.6l-28.04,79.79c-1.1,3.02-1.99,5.77-2.68,8.25
	c-0.69,2.47-1.03,4.12-1.03,4.95h-0.41c-0.28-0.83-0.76-2.47-1.44-4.95c-0.55-2.47-1.31-5.15-2.27-8.04l-28.04-81.64l-11.75,2.47
	l37.52,105.56V349.31z"/>
<path class="st0" d="M773.49,351.58l7.63-7.63c-1.92-2.06-3.3-4.67-4.12-7.83c-0.83-3.3-1.24-8.04-1.24-14.23v-80.41l-11.55,2.06
	v78.55c-3.57,6.05-7.97,10.72-13.2,14.02c-5.22,3.3-10.58,4.95-16.08,4.95c-2.89,0-5.57-0.41-8.04-1.24
	c-2.47-0.83-4.54-1.92-6.18-3.3c-2.2-1.79-3.85-4.05-4.95-6.8c-1.1-2.89-1.65-6.53-1.65-10.93v-77.52l-11.13,2.47v78.35
	c0,3.44,0.41,6.53,1.24,9.28c0.69,2.89,1.72,5.29,3.09,7.22c2.06,3.85,5.15,6.87,9.28,9.07c4.12,2.2,9.21,3.3,15.26,3.3
	c6.87,0,13.2-1.44,18.97-4.33c5.77-2.75,10.72-6.87,14.84-12.37c0.55,4.12,1.51,7.49,2.89,10.1c1.37,2.61,3.3,5.02,5.77,7.22v-0.21
	L773.49,351.58z"/>
<path class="st0" d="M834.72,351.16c3.3,0,6.32-0.27,9.07-0.82c2.75-0.55,5.22-1.37,7.42-2.47l-1.65-7.42
	c-1.37,0.69-2.96,1.24-4.74,1.65c-1.65,0.41-3.71,0.62-6.18,0.62c-5.22,0-8.93-1.44-11.13-4.33c-2.2-2.89-3.3-7.22-3.3-12.99v-72.99
	h22.68l3.71-8.66h-25.98c0-4.67,0.14-9.07,0.41-13.19c0.27-4.12,0.55-7.63,0.82-10.51c0.28-3.02,0.55-4.95,0.82-5.77l-12.16,2.47
	c-0.28,0.82-0.55,2.68-0.82,5.57c-0.27,3.02-0.55,6.46-0.82,10.31c-0.28,3.85-0.41,7.63-0.41,11.34h-13.61v8.66h13.61v76.08
	c0,4.81,0.69,8.86,2.06,12.16c1.38,3.3,3.44,5.77,6.18,7.42c1.65,1.1,3.57,1.99,5.77,2.68c2.2,0.82,4.74,1.24,7.63,1.24v-0.21
	L834.72,351.16z"/>
<path class="st0" d="M873.88,348.28h11.96V241.07l-11.96,1.86v105.15v-0.21V348.28z M880.06,219.21c2.47,0,4.6-0.89,6.39-2.68
	c1.79-1.65,2.68-3.78,2.68-6.39c0-2.75-0.89-4.95-2.68-6.6c-1.79-1.65-3.92-2.47-6.39-2.47c-2.61,0-4.81,0.89-6.6,2.68
	c-1.79,1.65-2.68,3.78-2.68,6.39c0,2.61,0.89,4.74,2.68,6.39C875.25,218.32,877.45,219.21,880.06,219.21z"/>
<path class="st0" d="M945.2,351.16c3.3,0,6.32-0.27,9.07-0.82c2.75-0.55,5.22-1.37,7.42-2.47l-1.65-7.42
	c-1.37,0.69-2.96,1.24-4.74,1.65c-1.65,0.41-3.71,0.62-6.18,0.62c-5.22,0-8.93-1.44-11.13-4.33c-2.2-2.89-3.3-7.22-3.3-12.99v-72.99
	h22.68l3.71-8.66h-25.98c0-4.67,0.14-9.07,0.41-13.19c0.28-4.12,0.55-7.63,0.82-10.51c0.28-3.02,0.55-4.95,0.83-5.77l-12.16,2.47
	c-0.27,0.82-0.55,2.68-0.82,5.57c-0.27,3.02-0.55,6.46-0.82,10.31c-0.28,3.85-0.41,7.63-0.41,11.34h-13.61v8.66h13.61v76.08
	c0,4.81,0.69,8.86,2.06,12.16c1.38,3.3,3.44,5.77,6.18,7.42c1.65,1.1,3.57,1.99,5.77,2.68c2.2,0.82,4.74,1.24,7.63,1.24v-0.21
	L945.2,351.16z"/>
<path class="st0" d="M990.96,287.25c0.69-12.51,3.57-21.85,8.66-28.04c5.23-6.32,11.83-9.48,19.79-9.48c4.95,0,9.21,0.96,12.78,2.89
	c3.57,2.06,6.39,4.74,8.45,8.04c1.65,2.75,2.96,6.25,3.92,10.51c0.96,4.12,1.44,9.35,1.44,15.67h-55.25v-0.21L990.96,287.25z
	 M1022.71,350.34c6.73,0,12.85-1.03,18.34-3.09c5.64-1.92,10.66-4.81,15.06-8.66l-4.54-7.42c-3.57,3.3-7.56,5.77-11.96,7.42
	c-4.4,1.51-9.21,2.27-14.43,2.27c-5.91,0-11.2-1.1-15.88-3.3c-4.67-2.2-8.45-5.43-11.33-9.69c-1.92-3.02-3.51-6.73-4.74-11.13
	s-1.92-9.42-2.06-15.05v-5.36h67.63v-2.47c0-7.7-0.42-14.16-1.24-19.38c-0.83-5.22-2.13-9.62-3.92-13.2
	c-1.79-3.57-4.05-6.73-6.8-9.48c-3.16-3.16-6.94-5.7-11.34-7.63c-4.4-1.93-9.42-2.89-15.05-2.89c-6.32,0-11.96,1.24-16.91,3.71
	c-4.95,2.47-9.21,5.84-12.78,10.1c-4.12,4.95-7.22,10.65-9.28,17.11c-2.06,6.32-3.09,13.95-3.09,22.89
	c0,11.13,1.72,20.82,5.15,29.07c3.44,8.25,8.45,14.71,15.05,19.38c6.6,4.67,14.71,7.01,24.33,7.01L1022.71,350.34z"/>
<path class="st0" d="M1114.85,342.09c-8.11-0.14-13.95-2.13-17.52-5.98c-3.58-3.99-5.36-9.21-5.36-15.67
	c0-9.07,3.3-15.81,9.89-20.21c6.6-4.4,16.77-6.6,30.52-6.6h4.94c1.65,0,3.17,0.07,4.54,0.21v32.37c-3.02,4.95-6.87,8.8-11.55,11.54
	c-4.67,2.75-9.89,4.12-15.66,4.12v-0.21L1114.85,342.09z M1156.29,351.58l5.77-8.25c-3.98-1.92-6.59-4.88-7.83-8.87
	c-1.1-3.99-1.51-10.1-1.24-18.35l0.83-37.93c0.27-4.54,0.14-8.8-0.41-12.78c-0.42-4.12-1.59-8.11-3.51-11.96
	c-2.06-4.26-5.29-7.49-9.69-9.69c-4.26-2.2-9.55-3.3-15.87-3.3c-7.43,0-14.57,1.24-21.45,3.71c-6.87,2.47-13.47,5.91-19.79,10.31
	l5.77,8.25c4.13-3.57,9.21-6.6,15.26-9.07c6.05-2.47,12.23-3.78,18.56-3.92c3.57,0,6.59,0.55,9.07,1.65c2.47,1.1,4.6,2.61,6.39,4.53
	c1.65,1.79,2.75,4.19,3.3,7.22c0.55,3.02,0.82,7.01,0.82,11.96v9.69c-0.55,0-1.72-0.07-3.5-0.21h-5.78
	c-16.76,0-29.89,3.02-39.37,9.07c-9.49,6.05-14.3,15.05-14.44,27.01c0,4.81,0.97,9.42,2.89,13.81c1.92,4.4,5.36,8.04,10.31,10.93
	c4.95,2.75,11.68,4.19,20.2,4.33c6.05,0,11.55-1.17,16.5-3.51c4.95-2.2,9.62-5.77,14.02-10.72c0.82,3.85,2.33,7.01,4.53,9.48
	c2.2,2.61,5.02,4.47,8.46,5.57L1156.29,351.58z"/>
<path class="st0" d="M1227,340.03c-5.5,0-10.24-1.1-14.23-3.3c-3.99-2.2-7.28-5.57-9.9-10.1c-1.92-3.3-3.29-7.63-4.12-12.99
	c-0.82-5.22-1.24-11-1.24-17.32c0-7.97,0.69-14.57,2.07-19.79c1.37-5.22,3.5-9.83,6.39-13.81c2.61-3.85,5.84-6.73,9.69-8.66
	s7.97-2.89,12.37-2.89c6.73,0,12.3,1.1,16.7,3.3s7.83,5.09,10.31,8.66v61.03c-2.2,4.4-5.64,8.11-10.31,11.13
	C1240.05,338.31,1234.14,339.89,1227,340.03v-0.21V340.03z M1226.58,349.93c6.05,0,11.55-1.1,16.5-3.3c4.81-2.2,9-5.7,12.57-10.51
	c0.28,2.61,0.69,5.15,1.24,7.63c0.55,2.47,1.03,4.12,1.44,4.95h11.55c-1.1-3.02-1.92-7.01-2.47-11.96c-0.55-4.95-0.83-11.61-0.83-20
	v-120.4l-11.54-2.06v61.03c-3.17-4.26-7.22-7.56-12.17-9.9c-4.95-2.34-10.58-3.51-16.9-3.51c-4.27,0-8.32,0.69-12.17,2.06
	c-3.85,1.38-7.56,3.57-11.13,6.6c-6.05,4.95-10.59,11.27-13.61,18.97c-3.02,7.7-4.53,16.77-4.53,27.21c0,7.84,0.82,15.05,2.47,21.65
	c1.65,6.46,4.05,11.96,7.22,16.49c3.57,4.95,8.04,8.73,13.4,11.34c5.36,2.75,11.61,4.12,18.76,4.12L1226.58,349.93z"/>
<path class="st0" d="M1373.78,351.58l7.63-7.63c-1.93-2.06-3.3-4.67-4.13-7.83c-0.82-3.3-1.23-8.04-1.23-14.23v-80.41l-11.55,2.06
	v78.55c-3.57,6.05-7.97,10.72-13.2,14.02c-5.22,3.3-10.58,4.95-16.08,4.95c-2.88,0-5.56-0.41-8.04-1.24
	c-2.47-0.83-4.53-1.92-6.18-3.3c-2.2-1.79-3.85-4.05-4.95-6.8c-1.1-2.89-1.65-6.53-1.65-10.93v-77.52l-11.13,2.47v78.35
	c0,3.44,0.41,6.53,1.23,9.28c0.69,2.89,1.72,5.29,3.1,7.22c2.06,3.85,5.15,6.87,9.27,9.07c4.13,2.2,9.21,3.3,15.26,3.3
	c6.87,0,13.2-1.44,18.97-4.33c5.77-2.75,10.72-6.87,14.84-12.37c0.55,4.12,1.51,7.49,2.89,10.1c1.37,2.61,3.3,5.02,5.77,7.22v-0.21
	L1373.78,351.58z"/>
<path class="st0" d="M1439.12,350.75c11.41-0.14,20.41-3.16,27.01-9.07c6.6-5.77,9.96-13.61,10.1-23.5c0-7.15-2.13-13.13-6.39-17.94
	c-4.4-4.81-11.34-8.18-20.82-10.1l-13.61-2.89c-5.91-1.24-10.31-3.3-13.19-6.19c-2.89-3.02-4.33-7.01-4.33-11.96
	c0-5.77,1.92-10.45,5.77-14.02c3.85-3.57,9.48-5.43,16.9-5.57c4.68,0,9.14,0.69,13.41,2.06c4.26,1.37,8.31,3.16,12.16,5.36
	l4.54-8.45c-4.13-2.47-8.8-4.4-14.02-5.77c-5.23-1.51-10.66-2.27-16.29-2.27c-10.86,0.14-19.38,2.96-25.57,8.45
	c-6.18,5.5-9.34,12.71-9.48,21.65c0,7.42,2.2,13.47,6.6,18.14c4.4,4.67,10.72,7.83,18.96,9.48l13.2,2.47
	c6.87,1.51,11.82,3.92,14.84,7.22c3.03,3.3,4.54,7.42,4.54,12.37c0,6.46-2.13,11.61-6.39,15.46c-4.4,3.85-10.45,5.77-18.14,5.77
	c-6.05,0-11.83-0.82-17.32-2.47c-5.5-1.65-10.66-3.99-15.47-7.01l-4.53,8.45c4.95,3.16,10.58,5.64,16.9,7.42
	c6.33,1.79,12.86,2.68,19.59,2.68v-0.21L1439.12,350.75z"/>
<path class="st0" d="M1510.44,287.25c0.69-12.51,3.58-21.85,8.66-28.04c5.23-6.32,11.82-9.48,19.8-9.48c4.94,0,9.2,0.96,12.78,2.89
	c3.57,2.06,6.39,4.74,8.45,8.04c1.65,2.75,2.96,6.25,3.92,10.51c0.96,4.12,1.44,9.35,1.44,15.67h-55.25v-0.21L1510.44,287.25z
	 M1542.19,350.34c6.74,0,12.86-1.03,18.35-3.09c5.64-1.92,10.66-4.81,15.05-8.66l-4.53-7.42c-3.58,3.3-7.56,5.77-11.96,7.42
	c-4.4,1.51-9.21,2.27-14.43,2.27c-5.91,0-11.2-1.1-15.88-3.3c-4.67-2.2-8.45-5.43-11.34-9.69c-1.92-3.02-3.5-6.73-4.74-11.13
	s-1.92-9.42-2.06-15.05v-5.36h67.62v-2.47c0-7.7-0.41-14.16-1.23-19.38c-0.83-5.22-2.13-9.62-3.92-13.2
	c-1.79-3.57-4.05-6.73-6.8-9.48c-3.16-3.16-6.94-5.7-11.34-7.63c-4.4-1.93-9.42-2.89-15.05-2.89c-6.33,0-11.96,1.24-16.91,3.71
	c-4.95,2.47-9.21,5.84-12.78,10.1c-4.13,4.95-7.22,10.65-9.28,17.11c-2.06,6.32-3.09,13.95-3.09,22.89
	c0,11.13,1.72,20.82,5.15,29.07c3.44,8.25,8.45,14.71,15.05,19.38c6.6,4.67,14.71,7.01,24.33,7.01L1542.19,350.34z"/>
<path class="st0" d="M1654.53,348.28h11.96V241.07l-11.96,1.86v105.15v-0.21V348.28z M1660.72,219.21c2.47,0,4.6-0.89,6.39-2.68
	c1.79-1.65,2.68-3.78,2.68-6.39c0-2.75-0.89-4.95-2.68-6.6s-3.92-2.47-6.39-2.47c-2.61,0-4.81,0.89-6.6,2.68
	c-1.79,1.65-2.68,3.78-2.68,6.39c0,2.61,0.89,4.74,2.68,6.39C1655.91,218.32,1658.11,219.21,1660.72,219.21z"/>
<path class="st0" d="M1703.59,348.28h11.13v-80.82c4.4-4.95,9.49-8.93,15.26-11.96c5.63-2.89,10.93-4.33,15.87-4.33
	c3.03,0,5.78,0.48,8.25,1.44c2.47,0.82,4.4,1.99,5.77,3.5c1.65,1.92,2.89,4.19,3.71,6.8c0.83,2.61,1.24,6.32,1.24,11.13v74.22h11.55
	v-79.99c0-2.75-0.35-5.36-1.03-7.83c-0.83-2.47-1.86-4.67-3.1-6.6c-2.06-3.85-5.15-6.87-9.27-9.07c-4.13-2.2-8.94-3.3-14.44-3.3
	c-6.04,0-11.89,1.44-17.52,4.33c-5.77,2.89-11.27,7.08-16.49,12.58c-0.14-4.67-0.62-8.52-1.45-11.54c-0.82-3.02-1.37-4.81-1.65-5.36
	l-11.13,2.89c0.82,1.65,1.65,4.12,2.47,7.42c0.83,3.3,1.24,7.83,1.24,13.61v83.09v-0.21H1703.59z"/>
<path class="st0" d="M1838.82,350.75c11.41-0.14,20.42-3.16,27.01-9.07c6.6-5.77,9.97-13.61,10.11-23.5c0-7.15-2.14-13.13-6.4-17.94
	c-4.39-4.81-11.34-8.18-20.82-10.1l-13.61-2.89c-5.91-1.24-10.3-3.3-13.19-6.19c-2.89-3.02-4.33-7.01-4.33-11.96
	c0-5.77,1.92-10.45,5.77-14.02c3.85-3.57,9.49-5.43,16.91-5.57c4.67,0,9.14,0.69,13.4,2.06c4.26,1.37,8.31,3.16,12.16,5.36
	l4.54-8.45c-4.12-2.47-8.8-4.4-14.02-5.77c-5.22-1.51-10.65-2.27-16.29-2.27c-10.86,0.14-19.38,2.96-25.56,8.45
	c-6.19,5.5-9.35,12.71-9.49,21.65c0,7.42,2.2,13.47,6.6,18.14c4.4,4.67,10.72,7.83,18.97,9.48l13.19,2.47
	c6.88,1.51,11.82,3.92,14.85,7.22c3.02,3.3,4.53,7.42,4.53,12.37c0,6.46-2.13,11.61-6.39,15.46c-4.4,3.85-10.44,5.77-18.14,5.77
	c-6.05,0-11.82-0.82-17.32-2.47c-5.5-1.65-10.65-3.99-15.46-7.01l-4.54,8.45c4.95,3.16,10.58,5.64,16.91,7.42
	c6.32,1.79,12.85,2.68,19.58,2.68v-0.21L1838.82,350.75z"/>
<path class="st0" d="M1925.82,351.16c3.3,0,6.32-0.27,9.07-0.82c2.75-0.55,5.22-1.37,7.42-2.47l-1.65-7.42
	c-1.37,0.69-2.95,1.24-4.74,1.65c-1.65,0.41-3.71,0.62-6.19,0.62c-5.22,0-8.93-1.44-11.13-4.33c-2.2-2.89-3.3-7.22-3.3-12.99v-72.99
	h22.68l3.71-8.66h-25.98c0-4.67,0.14-9.07,0.42-13.19c0.27-4.12,0.55-7.63,0.82-10.51c0.28-3.02,0.55-4.95,0.83-5.77l-12.17,2.47
	c-0.27,0.82-0.55,2.68-0.82,5.57c-0.28,3.02-0.55,6.46-0.83,10.31c-0.27,3.85-0.41,7.63-0.41,11.34h-13.61v8.66h13.61v76.08
	c0,4.81,0.69,8.86,2.06,12.16c1.38,3.3,3.44,5.77,6.19,7.42c1.65,1.1,3.57,1.99,5.77,2.68c2.2,0.82,4.74,1.24,7.63,1.24v-0.21
	L1925.82,351.16z"/>
<path class="st0" d="M1964.98,348.28h11.95V241.07l-11.95,1.86v105.15v-0.21V348.28z M1971.16,219.21c2.48,0,4.61-0.89,6.39-2.68
	c1.79-1.65,2.68-3.78,2.68-6.39c0-2.75-0.89-4.95-2.68-6.6c-1.78-1.65-3.91-2.47-6.39-2.47c-2.61,0-4.81,0.89-6.6,2.68
	c-1.78,1.65-2.68,3.78-2.68,6.39c0,2.61,0.9,4.74,2.68,6.39C1966.35,218.32,1968.55,219.21,1971.16,219.21z"/>
<path class="st0" d="M2036.3,351.16c3.3,0,6.32-0.27,9.07-0.82c2.75-0.55,5.22-1.37,7.42-2.47l-1.65-7.42
	c-1.37,0.69-2.95,1.24-4.74,1.65c-1.65,0.41-3.71,0.62-6.18,0.62c-5.23,0-8.94-1.44-11.14-4.33c-2.2-2.89-3.3-7.22-3.3-12.99v-72.99
	h22.68l3.71-8.66h-25.97c0-4.67,0.13-9.07,0.41-13.19c0.27-4.12,0.55-7.63,0.82-10.51c0.28-3.02,0.55-4.95,0.83-5.77l-12.17,2.47
	c-0.27,0.82-0.55,2.68-0.82,5.57c-0.28,3.02-0.55,6.46-0.83,10.31c-0.27,3.85-0.41,7.63-0.41,11.34h-13.6v8.66h13.6v76.08
	c0,4.81,0.69,8.86,2.06,12.16c1.38,3.3,3.44,5.77,6.19,7.42c1.65,1.1,3.57,1.99,5.77,2.68c2.2,0.82,4.74,1.24,7.63,1.24v-0.21
	L2036.3,351.16z"/>
<path class="st0" d="M2145.56,351.58l7.63-7.63c-1.93-2.06-3.3-4.67-4.13-7.83c-0.82-3.3-1.23-8.04-1.23-14.23v-80.41l-11.55,2.06
	v78.55c-3.57,6.05-7.97,10.72-13.2,14.02c-5.22,3.3-10.58,4.95-16.08,4.95c-2.88,0-5.56-0.41-8.04-1.24
	c-2.47-0.83-4.53-1.92-6.18-3.3c-2.2-1.79-3.85-4.05-4.95-6.8c-1.1-2.89-1.65-6.53-1.65-10.93v-77.52l-11.13,2.47v78.35
	c0,3.44,0.41,6.53,1.23,9.28c0.69,2.89,1.72,5.29,3.1,7.22c2.06,3.85,5.15,6.87,9.27,9.07c4.13,2.2,9.21,3.3,15.26,3.3
	c6.87,0,13.2-1.44,18.97-4.33c5.77-2.75,10.72-6.87,14.84-12.37c0.55,4.12,1.51,7.49,2.89,10.1c1.37,2.61,3.3,5.02,5.77,7.22v-0.21
	L2145.56,351.58z"/>
<path class="st0" d="M2254.61,351.58l7.63-7.63c-1.93-2.06-3.3-4.67-4.13-7.83c-0.82-3.3-1.23-8.04-1.23-14.23v-80.41l-11.55,2.06
	v78.55c-3.57,6.05-7.97,10.72-13.19,14.02c-5.23,3.3-10.59,4.95-16.08,4.95c-2.89,0-5.57-0.41-8.05-1.24
	c-2.47-0.83-4.53-1.92-6.18-3.3c-2.2-1.79-3.85-4.05-4.95-6.8c-1.1-2.89-1.65-6.53-1.65-10.93v-77.52l-11.13,2.47v78.35
	c0,3.44,0.41,6.53,1.24,9.28c0.68,2.89,1.71,5.29,3.09,7.22c2.06,3.85,5.15,6.87,9.28,9.07c4.12,2.2,9.21,3.3,15.25,3.3
	c6.88,0,13.2-1.44,18.97-4.33c5.77-2.75,10.72-6.87,14.84-12.37c0.55,4.12,1.52,7.49,2.89,10.1c1.38,2.61,3.3,5.02,5.77,7.22v-0.21
	L2254.61,351.58z"/>
<path class="st0" d="M2315.83,351.16c3.3,0,6.32-0.27,9.07-0.82c2.75-0.55,5.22-1.37,7.42-2.47l-1.65-7.42
	c-1.37,0.69-2.95,1.24-4.74,1.65c-1.65,0.41-3.71,0.62-6.18,0.62c-5.23,0-8.94-1.44-11.14-4.33c-2.2-2.89-3.3-7.22-3.3-12.99v-72.99
	h22.68l3.71-8.66h-25.97c0-4.67,0.13-9.07,0.41-13.19c0.27-4.12,0.55-7.63,0.82-10.51c0.28-3.02,0.55-4.95,0.83-5.77l-12.17,2.47
	c-0.27,0.82-0.54,2.68-0.82,5.57c-0.27,3.02-0.55,6.46-0.82,10.31c-0.28,3.85-0.42,7.63-0.42,11.34h-13.6v8.66h13.6v76.08
	c0,4.81,0.69,8.86,2.06,12.16c1.38,3.3,3.44,5.77,6.19,7.42c1.65,1.1,3.57,1.99,5.77,2.68c2.2,0.82,4.74,1.24,7.63,1.24v-0.21
	L2315.83,351.16z"/>
<path class="st0" d="M495.84,21.73c-0.26-0.79-0.96-1.72-2.74-1.72c-0.54,0-1.02,0.32-1.42,0.95c-0.27,0.41-0.59,0.88-0.96,1.42
	c-0.38,0.49-0.81,0.96-1.33,1.4c-0.45,0.39-1.02,0.64-1.67,0.75c-0.98,0.13-1.99,0.21-2.99,0.24c-4.33,0.14-8.41,0.06-12.32,0.15
	c-6.65,0.15-14.01,0.13-21.56-0.05c-4.1-0.1-8.23-0.25-12.28-0.46c-0.88-0.06-1.57-0.24-2.05-0.58c-0.51-0.36-0.92-0.74-1.22-1.12
	c-0.32-0.43-0.6-0.81-0.83-1.13c-0.44-0.64-0.98-0.77-1.36-0.77c-1.02,0-1.84,0.29-2.42,0.83c-0.53,0.49-0.95,1.13-1.22,1.89
	c-0.25,0.72-0.42,1.52-0.46,2.39l-0.04,0.32c-0.06,0.72-0.11,1.4-0.16,2.04c-0.34,3.42-0.76,6.1-1.28,7.96
	c-0.55,1.97-0.83,3.51-0.83,4.72c0,0.96,0.24,1.59,0.74,1.97c0.44,0.36,1.06,0.55,1.89,0.55c0.52,0,1.04-0.46,1.77-1.7
	c0.59-0.98,1.2-2.05,1.79-3.18c0.6-1.18,1.16-2.3,1.7-3.38c0.64-1.24,1-1.75,1.17-1.92c1.26-1.2,2.59-2.01,3.9-2.41
	c1.38-0.42,2.82-0.62,4.3-0.62h6.2c1.56,0,3.04,0.11,4.43,0.34c1.59,0.26,1.77,0.7,1.78,0.78c0.07,0.36,0.12,1.17,0.13,1.76
	c0.04,0.88,0.06,1.49,0.06,1.82v48.47c0,1.83-0.1,3.38-0.28,4.61c-0.2,1.15-0.57,2.13-1.1,2.89c-0.53,0.74-1.34,1.33-2.38,1.74
	c-1.14,0.46-2.65,0.77-4.6,0.98c-0.13,0.04-0.43,0.08-1.14,0.08c-0.74,0-1.46,0.14-2.13,0.41c-0.6,0.23-1.29,0.79-1.29,2.13
	c0,1.48,0.98,1.76,1.39,1.79c0.58,0.08,1.17,0.12,1.72,0.12c2.44,0,4.86-0.08,7.23-0.25c4.87-0.36,10.12-0.32,15.02,0
	c2.62,0.18,5.3,0.25,7.99,0.25c0.88,0,1.58-0.04,2.11-0.12c0.81-0.11,1.23-0.88,1.23-2.3c0-0.67-0.29-1.77-2.3-2l-3.96-0.45
	c-1.38-0.15-2.72-0.55-4.01-1.15c-1.16-0.55-1.85-1.62-2.15-3.3c-0.2-1.04-0.33-2.08-0.35-3.12c-0.03-1.06-0.05-2.11-0.05-3.17
	c0.13-5.89,0.12-11.82-0.06-17.65c-0.15-5.8-0.17-11.73-0.04-17.6l0.19-12.23c0-1.49,0.09-2.62,0.25-3.32
	c0.16-0.86,0.4-1.17,0.52-1.31c0.15-0.15,0.29-0.21,0.57-0.23c0.89,0.08,1.83,0.08,3.38,0.02c1.85-0.1,4.34-0.08,6.89,0.1
	c1.54,0.09,2.9,0.26,4.21,0.48c1.25,0.22,2.37,0.57,3.28,1.04c0.81,0.43,1.37,0.98,1.66,1.62c0.36,0.93,0.52,1.93,0.46,2.95
	c-0.06,1.13-0.15,2.18-0.24,3.13c-0.13,1.02-0.1,1.9,0.04,2.6c0.11,0.52,0.53,1.42,2.01,1.42c0.89,0,2.1-0.44,2.73-2.64
	c0.45-1.47,0.81-3.26,1.04-5.31c0.21-2,0.43-4.08,0.6-6.18c0.16-2.03,0.46-3.68,0.91-4.88C496.2,23.67,496.18,22.73,495.84,21.73"/>
<path class="st0" d="M539.02,59.75c-0.11,0.04-0.23,0.08-0.3,0.11c-4.1,0-7.3,0.02-9.57,0.06c-2.29,0.04-3.99,0.04-5.14,0.04h-1.79
	c1.19-2.81,2.17-5.18,2.94-7.05c0.88-2.07,1.65-3.94,2.33-5.63c0.67-1.66,1.32-3.26,1.99-4.83c0.55-1.25,1.16-2.69,1.87-4.31
	c0.13,0.37,0.32,0.87,0.55,1.51c0.57,1.6,1.24,3.55,2.06,5.86c0.79,2.31,1.66,4.78,2.6,7.43C537.42,55.33,538.22,57.6,539.02,59.75
	 M571.47,93.6c-0.84-0.25-1.8-0.48-2.87-0.67c-1.04-0.19-2.09-0.49-3.15-0.88c-0.97-0.35-1.69-1.05-2.22-2.2
	c-3.37-7.03-6.65-14.19-9.72-21.3c-3-6.98-5.94-14.26-8.79-21.63c-1.54-3.8-3.1-7.67-4.71-11.62c-1.61-3.93-3.18-7.8-4.71-11.59
	c-0.15-0.38-0.37-0.77-0.68-1.19c-0.38-0.53-0.93-0.79-1.59-0.79c-0.75,0-1.26,0.19-1.55,0.6c-0.21,0.29-0.38,0.64-0.53,1.07
	c-2.47,6.07-4.93,12.11-7.4,18.13c-2.48,6-4.94,12.06-7.41,18.13l-4.36,10.67c-1.41,3.43-2.83,7.03-4.26,10.65
	c-0.21,0.46-0.48,1.21-0.85,2.17c-0.38,0.97-0.77,1.95-1.21,2.93c-0.43,1-0.85,1.95-1.25,2.85c-0.49,1.12-0.72,1.52-0.86,1.67
	c-0.5,0.81-1.13,1.33-1.8,1.56c-0.82,0.25-1.59,0.44-2.34,0.57c-0.84,0.16-1.52,0.36-2.12,0.67c-0.5,0.26-1.13,0.87-1.13,2.24
	c0,0.53,0.14,1.03,0.46,1.46c0.35,0.51,0.88,0.77,1.55,0.77c1.54,0,2.96-0.1,4.24-0.27c2.92-0.39,6.84-0.3,10.52,0.09
	c2.23,0.25,4.45,0.37,6.58,0.37c0.68,0,1.31-0.25,1.81-0.7c0.55-0.49,0.81-1.11,0.81-1.81c0-1.28-0.74-2.15-2.09-2.46
	c-1.06-0.23-2.27-0.41-3.63-0.57c-1.24-0.11-2.38-0.38-3.4-0.76c-0.51-0.19-1.21-0.62-1.21-2.14c0-0.11,0.06-0.62,0.62-2.64
	c0.46-1.52,1.03-3.45,1.76-5.68c0.73-2.27,1.61-4.8,2.65-7.52c0.96-2.63,2.06-5.33,3.2-8.06c0.78-0.14,1.73-0.26,2.86-0.32
	c2.65-0.13,5.45-0.11,7.96-0.05c1.32,0.04,2.38,0.05,3.17,0.05h1.91c1.09,0,2.18,0.06,3.24,0.15c0.91,0.08,1.59,0.34,2.05,0.78
	c0,0,0.11,0.15,0.4,0.81c0.24,0.55,0.53,1.15,0.84,1.8c1.01,2.4,1.99,4.74,2.91,7.01c0.93,2.27,1.78,4.33,2.49,6.19l1.91,4.86
	c0.52,1.34,0.88,2.34,1.11,3.1c0.06,0.18,0.11,0.36,0.17,0.55c0.06,0.17,0.08,0.35,0.08,0.5c0,1.09-0.51,1.38-0.96,1.5
	c-0.9,0.25-1.91,0.42-3.03,0.47c-1.21,0.08-2.29,0.18-3.19,0.3c-1.68,0.25-1.94,1.31-1.94,1.92c0,0.77,0.32,1.45,0.93,1.96
	c0.56,0.51,1.24,0.76,2,0.76c2.37,0,4.71-0.1,7-0.3c3.81-0.34,7.81-0.49,11.64,0c1.62,0.18,3.26,0.3,4.9,0.3h1.09
	c0.72,0,1.48-0.13,2.26-0.38c1.28-0.43,1.46-1.34,1.46-1.84C573.1,94.71,572.52,93.9,571.47,93.6"/>
<path class="st0" d="M623.89,51.15c-0.93,1.92-2.2,3.47-3.8,4.57c-1.63,1.12-3.59,1.89-5.82,2.3c-2.32,0.41-4.81,0.65-7.42,0.65
	c-1.13,0-1.97-0.11-2.46-0.27c-0.5-0.2-0.65-0.46-0.72-0.64c-0.15-0.4-0.22-0.91-0.16-1.51c0.03-0.72,0.06-1.57,0.06-2.59
	c0-2.67,0.02-5.67,0.09-9c0.06-3.34,0.1-6.35,0.1-9.03v-3.4c0-1.44,0.32-2.54,0.96-3.26c0.41-0.47,1.47-1.04,4.14-1.04
	c2.38,0,4.6,0.34,6.62,1.02c1.97,0.67,3.71,1.66,5.14,2.97c1.44,1.3,2.58,2.95,3.4,4.85c0.82,1.92,1.23,4.2,1.23,6.77
	C625.26,46.66,624.81,49.2,623.89,51.15 M653.01,98.39c-0.72-0.15-1.43-0.39-2.26-0.76c-2.68-0.56-5.07-1.8-7.12-3.61
	c-2.11-1.86-4-4.06-5.72-6.54c-1.7-2.52-3.27-5.2-4.65-7.99c-1.42-2.84-2.72-5.52-3.97-8.07c-1.26-2.57-2.51-4.8-3.74-6.63
	c-0.97-1.42-1.97-2.5-3.02-3.18c1.42-0.72,2.83-1.51,4.25-2.42c1.8-1.16,3.44-2.49,4.91-4.01c1.48-1.51,2.7-3.24,3.62-5.12
	c0.93-1.9,1.42-4,1.42-6.21c0-4.02-0.78-7.41-2.3-10.03c-1.51-2.61-3.42-4.71-5.69-6.26c-2.26-1.53-4.71-2.61-7.33-3.19
	c-2.55-0.57-5-0.87-7.23-0.87c-2.59,0-5.19,0.06-7.68,0.15c-2.52,0.1-5.09,0.16-7.64,0.16h-8.71c-0.72,0-1.46-0.04-2.22-0.1
	c-1.59-0.13-3.07-0.2-4.58,0.14c-0.6,0.16-1.54,0.64-1.54,2.27c0,0.85,0.43,1.48,1.19,1.76c0.58,0.22,1.35,0.37,2.24,0.44
	c0.83,0.06,1.71,0.13,2.65,0.2c0.88,0.06,1.7,0.24,2.5,0.52c0.71,0.25,1.27,0.69,1.75,1.34c0.46,0.63,0.68,1.54,0.68,2.74
	c0,5.59-0.05,11.28-0.15,16.91c-0.09,5.69-0.15,11.4-0.15,16.93v20.63c0,1.28-0.23,2.26-0.71,2.97c-0.46,0.74-1.07,1.29-1.82,1.72
	c-0.78,0.41-1.61,0.72-2.48,0.87c-0.92,0.17-1.82,0.32-2.64,0.45c-0.86,0.13-1.59,0.3-2.15,0.48c-0.77,0.25-1.23,0.81-1.23,1.52
	c0,1.22,0.2,1.87,0.67,2.18c0.38,0.25,1.01,0.34,2.04,0.34c2.09,0,4.19-0.09,6.22-0.3c4.3-0.42,8.75-0.38,13.15,0.06
	c2.39,0.23,4.85,0.36,7.27,0.36c1.4,0,2.43-0.12,3.2-0.34c0.64-0.19,1.42-0.76,1.42-2.29c0-0.79-0.42-1.37-1.14-1.59
	c-0.51-0.15-1.07-0.22-1.68-0.22c-0.4,0-0.52-0.04-0.52-0.04l-0.16-0.04c-1.43-0.28-2.63-0.49-3.65-0.63
	c-0.98-0.11-1.82-0.35-2.55-0.73c-0.65-0.34-1.16-0.87-1.54-1.63c-0.4-0.77-0.58-2-0.58-3.62V66.5c0-1.96,0.23-2.67,0.39-2.91
	c0.05-0.12,0.39-0.5,1.9-0.5c2.26,0,4.17,0.57,5.7,1.68c1.57,1.17,2.98,2.65,4.17,4.42c1.21,1.78,2.3,3.82,3.24,6.05
	c0.97,2.24,2.03,4.5,3.14,6.6c2.04,5.26,5.04,9.78,8.92,13.45c3.9,3.66,8.82,6.03,14.6,7.07c0.47,0.05,1.06,0.13,1.75,0.18
	c0.67,0.08,1.36,0.11,2.06,0.11c1.74,0,2.97-0.15,3.81-0.44l0.23-0.15c0.72-0.71,1.07-1.35,1.07-1.93
	C654.64,99.62,654.45,98.69,653.01,98.39"/>
<path class="st0" d="M721.79,20.01c-0.55,0-1.05,0.32-1.42,0.95c-0.27,0.41-0.59,0.89-0.96,1.42c-0.38,0.49-0.84,0.97-1.32,1.4
	c-0.44,0.39-1.03,0.64-1.68,0.75c-0.98,0.13-2.01,0.21-2.98,0.25c-4.34,0.13-8.42,0.06-12.33,0.15c-6.65,0.15-14.04,0.14-21.56-0.06
	c-4.1-0.09-8.24-0.24-12.28-0.45c-0.9-0.06-1.57-0.25-2.04-0.58c-0.52-0.37-0.92-0.74-1.23-1.12c-0.32-0.43-0.6-0.81-0.83-1.13
	c-0.43-0.64-0.98-0.77-1.36-0.77c-1.02,0-1.84,0.29-2.41,0.84c-0.53,0.49-0.95,1.13-1.22,1.88c-0.25,0.72-0.41,1.54-0.49,2.41
	l-0.04,0.6c-0.05,0.61-0.08,1.19-0.14,1.77c-0.35,3.42-0.78,6.1-1.29,7.94c-0.55,1.96-0.83,3.54-0.83,4.73
	c0,0.94,0.25,1.59,0.73,1.96c0.46,0.36,1.06,0.55,1.89,0.55c0.53,0,1.03-0.48,1.78-1.7c0.58-0.99,1.17-2.06,1.77-3.2
	c0.6-1.18,1.17-2.29,1.7-3.36c0.62-1.25,0.99-1.76,1.18-1.93c1.26-1.21,2.58-2.02,3.9-2.41c1.38-0.43,2.82-0.63,4.3-0.63h6.18
	c1.57,0,3.05,0.11,4.42,0.34c1.61,0.27,1.79,0.7,1.8,0.78c0.08,0.36,0.11,1.16,0.13,1.75c0.04,0.89,0.06,1.49,0.06,1.83v48.47
	c0,1.82-0.1,3.38-0.31,4.62c-0.17,1.15-0.55,2.14-1.09,2.89c-0.53,0.73-1.32,1.32-2.39,1.73c-1.11,0.46-2.63,0.78-4.57,0.98
	c-0.15,0.04-0.46,0.08-1.15,0.08c-0.75,0-1.46,0.13-2.15,0.39c-0.58,0.25-1.28,0.79-1.28,2.13c0,1.48,0.97,1.76,1.4,1.8
	c0.58,0.08,1.17,0.12,1.72,0.12c2.45,0,4.85-0.08,7.21-0.25c4.88-0.36,10.13-0.32,15.03,0c2.62,0.17,5.32,0.25,8.01,0.25
	c0.86,0,1.56-0.04,2.09-0.12c0.81-0.11,1.21-0.88,1.21-2.3c0-0.66-0.29-1.79-2.29-2.01l-3.96-0.44c-1.38-0.15-2.74-0.55-4.01-1.15
	c-1.16-0.54-1.85-1.62-2.16-3.31c-0.2-1.04-0.31-2.08-0.33-3.11c-0.04-1.06-0.06-2.12-0.06-3.17c0.13-5.88,0.11-11.82-0.06-17.65
	c-0.15-5.88-0.17-11.81-0.04-17.61l0.18-12.23c0-1.49,0.1-2.6,0.25-3.32c0.16-0.85,0.41-1.18,0.53-1.3
	c0.15-0.15,0.26-0.17,0.57-0.23c0.86,0.08,1.82,0.08,3.37,0.03c1.85-0.1,4.33-0.08,6.91,0.08c1.5,0.1,2.9,0.27,4.18,0.5
	c1.27,0.23,2.38,0.57,3.26,1.04c0.84,0.43,1.41,0.98,1.7,1.62c0.35,0.93,0.5,1.94,0.45,2.95c-0.06,1.14-0.15,2.18-0.23,3.14
	c-0.13,1.02-0.11,1.89,0.04,2.59c0.13,0.53,0.53,1.43,2.01,1.43c0.9,0,2.1-0.46,2.74-2.64c0.44-1.47,0.77-3.27,1.02-5.3
	c0.23-2.01,0.42-4.09,0.6-6.18c0.16-2.05,0.48-3.69,0.91-4.9c0.32-0.88,0.3-1.82-0.04-2.82C724.26,20.93,723.57,20.01,721.79,20.01"
	/>
<path class="st0" d="M812.09,23.85l-0.21-0.04c-1.77,0-3.61,0.06-5.43,0.15c-3.44,0.2-7.16,0.23-10.59-0.03
	c-1.8-0.15-3.58-0.21-5.31-0.21c-0.56,0-1.13,0.08-1.66,0.24c-0.44,0.1-1.15,0.51-1.15,1.79c0,1.43,0.69,2.13,1.26,2.47
	c0.68,0.4,1.53,0.7,2.49,0.88c0.91,0.17,1.84,0.32,2.79,0.45c0.81,0.11,1.47,0.41,1.97,0.87c0.48,0.42,0.83,1.3,1,2.57
	c0.21,1.4,0.31,3.01,0.31,4.78c0,1.8-0.04,3.64-0.1,5.58c-0.07,1.94-0.11,3.68-0.11,5.23v21.42c0,1.95-0.18,3.85-0.58,5.71
	c-0.58,3.32-1.41,6.15-2.46,8.41c-1.02,2.22-2.38,4.05-4.01,5.45c-1.62,1.4-3.63,2.42-5.94,3.03c-2.38,0.62-5.27,0.92-8.63,0.92
	c-2.79,0-5.36-0.28-7.64-0.87c-2.23-0.57-4.17-1.6-5.8-3.06c-1.63-1.47-2.97-3.51-3.96-6.08c-1.01-2.6-1.66-5.97-1.92-10.03
	c-0.12-2.02-0.22-4.1-0.25-6.18c-0.02-2.08-0.04-4.13-0.04-6.2V42.65c0-0.99,0.03-2.06,0.04-3.17c0.03-1.16,0.11-2.25,0.21-3.28
	c0.09-1.05,0.2-2.01,0.34-2.86c0.13-0.81,0.28-1.43,0.45-1.85c0.39-0.91,1.04-1.48,1.96-1.76c1.07-0.32,2.19-0.59,3.29-0.8
	c1.16-0.18,2.21-0.43,3.11-0.72c1.17-0.34,1.82-1.19,1.82-2.38c0-1.04-0.65-1.72-1.73-1.9c-0.88-0.15-1.55-0.21-2.11-0.21
	c-2.34,0-4.66,0.1-6.92,0.3c-4.25,0.37-8.73,0.42-13.1,0c-2.13-0.21-4.29-0.3-6.42-0.3c-1.66,0-2.63,0.91-2.63,2.51
	c0,0.67,0.29,1.23,0.82,1.6c0.44,0.3,0.95,0.53,1.56,0.65c0.53,0.11,1.04,0.18,1.59,0.2c0.51,0.04,0.93,0.06,1.28,0.06h1.1
	c1.18,0,2.01,0.31,2.61,0.9c0.63,0.68,1.07,1.46,1.36,2.42c0.28,0.96,0.45,2.04,0.46,3.2c0.04,1.19,0.06,2.26,0.06,3.19
	c0,5.69-0.08,11.33-0.22,16.8c-0.13,5.54-0.18,11.2-0.18,16.85v3.7c0,0.61,0.01,1.23,0.03,1.84c0.04,0.62,0.1,1.22,0.15,1.83
	c0.42,3.94,1.42,7.26,3.02,9.86c1.56,2.61,3.62,4.73,6.1,6.31c2.43,1.57,5.26,2.69,8.41,3.34c3.09,0.65,6.41,0.97,9.84,0.97
	c2.85,0,5.85-0.23,8.9-0.66c3.04-0.43,6-1.21,8.85-2.28c3.3-1.31,5.86-3.2,7.68-5.62c1.77-2.38,3.1-5.1,4-8.05
	c0.87-2.97,1.39-6.09,1.57-9.32c0.18-3.21,0.24-6.33,0.24-9.23c0-1.82,0-3.64-0.04-5.42c-0.02-1.8-0.05-3.59-0.05-5.41
	c0-2-0.03-4.34-0.04-7.02c-0.04-2.65-0.04-5.23,0-7.68c0.02-2.46,0.13-4.61,0.34-6.41c0.27-2.38,0.67-2.68,0.7-2.7
	c0.15-0.1,0.56-0.26,1.72-0.41c1-0.13,2.04-0.33,3.11-0.57c1.12-0.25,2.12-0.59,2.93-1c1.28-0.63,1.56-1.57,1.56-2.25
	C813.91,25.26,813.59,24.38,812.09,23.85"/>
<path class="st0" d="M903.56,16.8c0.15,0.1,0.36,0.13,0.61,0.13c1.76,0,3.24-0.57,4.47-1.66c1.22-1.12,1.85-2.63,1.85-4.46
	c0-1.7-0.59-3.12-1.7-4.22C907.68,5.54,906.26,5,904.57,5c-1.76,0-3.22,0.57-4.34,1.68c-1.12,1.12-1.7,2.53-1.7,4.23
	c0,1.48,0.48,2.8,1.41,3.95C900.84,15.98,902.07,16.63,903.56,16.8"/>
<path class="st0" d="M883.84,16.82c1.6,0,3.05-0.51,4.25-1.53c1.24-1.06,1.86-2.48,1.86-4.17c0-1.56-0.55-2.97-1.65-4.22
	c-1.12-1.26-2.52-1.9-4.16-1.9c-1.68,0-3.19,0.57-4.43,1.7c-1.26,1.15-1.9,2.6-1.9,4.3c0,1.72,0.61,3.14,1.8,4.22
	C880.79,16.29,882.21,16.82,883.84,16.82"/>
<path class="st0" d="M928.5,23.85l-0.21-0.04c-1.77,0-3.62,0.06-5.43,0.15c-3.45,0.2-7.15,0.23-10.59-0.03
	c-1.82-0.15-3.59-0.21-5.32-0.21c-0.57,0-1.12,0.08-1.66,0.24c-0.44,0.1-1.16,0.51-1.16,1.79c0,1.45,0.7,2.15,1.27,2.47
	c0.67,0.4,1.52,0.7,2.49,0.88c0.91,0.17,1.83,0.32,2.78,0.45c0.82,0.11,1.47,0.41,1.98,0.87c0.49,0.42,0.84,1.3,1.01,2.57
	c0.2,1.4,0.3,3.01,0.3,4.78c0,1.8-0.03,3.64-0.09,5.58c-0.07,1.94-0.11,3.68-0.11,5.23v21.42c0,1.95-0.2,3.85-0.59,5.71
	c-0.58,3.32-1.42,6.15-2.45,8.41c-1.02,2.22-2.38,4.05-4.01,5.45c-1.63,1.4-3.63,2.42-5.95,3.03c-2.39,0.62-5.29,0.92-8.62,0.92
	c-2.8,0-5.35-0.28-7.65-0.87c-2.24-0.57-4.18-1.6-5.81-3.06c-1.63-1.47-2.95-3.51-3.94-6.08c-1.02-2.6-1.66-5.97-1.93-10.03
	c-0.11-2.02-0.2-4.1-0.24-6.18c-0.03-2.08-0.04-4.13-0.04-6.2V42.65c0-0.99,0.01-2.06,0.04-3.17c0.04-1.14,0.12-2.21,0.21-3.28
	c0.08-1.05,0.2-2.01,0.34-2.86c0.13-0.81,0.28-1.43,0.48-1.85c0.38-0.91,1.02-1.48,1.94-1.76c1.09-0.32,2.2-0.59,3.29-0.8
	c1.15-0.18,2.2-0.43,3.11-0.72c1.17-0.34,1.82-1.19,1.82-2.38c0-1.04-0.65-1.72-1.74-1.9c-0.84-0.15-1.53-0.21-2.1-0.21
	c-2.32,0-4.64,0.1-6.92,0.3c-4.25,0.37-8.72,0.42-13.09,0c-2.13-0.21-4.3-0.3-6.43-0.3c-1.66,0-2.64,0.91-2.64,2.51
	c0,0.67,0.29,1.23,0.82,1.6c0.44,0.3,0.94,0.53,1.55,0.65c0.52,0.11,1.04,0.18,1.59,0.2c0.51,0.04,0.93,0.06,1.28,0.06h1.1
	c1.17,0,2.03,0.31,2.6,0.9c0.65,0.68,1.09,1.46,1.37,2.42c0.27,0.96,0.45,2.04,0.46,3.2c0.04,1.19,0.06,2.26,0.06,3.19
	c0,5.71-0.08,11.37-0.21,16.8c-0.13,5.69-0.19,11.36-0.19,16.85v3.7c0,0.61,0,1.23,0.04,1.84c0.03,0.6,0.1,1.22,0.15,1.83
	c0.42,3.94,1.41,7.26,3.01,9.86c1.57,2.61,3.62,4.73,6.1,6.31c2.42,1.57,5.26,2.69,8.4,3.34c3.1,0.65,6.43,0.97,9.85,0.97
	c2.85,0,5.86-0.23,8.91-0.66c3.03-0.43,6-1.21,8.85-2.28c3.28-1.31,5.88-3.2,7.67-5.62c1.78-2.38,3.12-5.1,4.01-8.05
	c0.86-2.95,1.39-6.09,1.56-9.32c0.18-3.21,0.25-6.33,0.25-9.23c0-1.82,0-3.64-0.04-5.42c-0.04-1.8-0.06-3.59-0.06-5.41
	c0-2-0.01-4.34-0.03-7.02c-0.04-2.65-0.04-5.23,0-7.68c0.02-2.46,0.13-4.61,0.34-6.41c0.27-2.38,0.67-2.68,0.69-2.7
	c0.15-0.1,0.57-0.26,1.72-0.41c1-0.13,2.04-0.33,3.12-0.57c1.12-0.25,2.12-0.59,2.93-1c1.28-0.63,1.55-1.57,1.55-2.25
	C930.32,25.26,930,24.38,928.5,23.85"/>
<path class="st0" d="M999.61,74.35c-0.92-0.18-1.76-0.02-2.57,0.62c-0.19,0.17-0.48,0.59-1.51,2.38c-0.74,1.31-1.59,2.76-2.59,4.38
	c-0.99,1.63-2.06,3.18-3.22,4.65c-1.11,1.44-2.18,2.45-3.21,3.05c-0.57,0.36-1.66,0.85-3.28,1.42c-1.61,0.59-3.46,1.04-5.48,1.32
	c-2.01,0.31-4.08,0.33-6.19,0.06c-2.04-0.24-3.9-0.98-5.44-2.15c-0.37-0.32-0.67-0.95-0.91-1.85c-0.25-1-0.46-2.17-0.57-3.43
	c-0.12-1.24-0.22-2.61-0.27-4.04c-0.02-1.43-0.04-2.76-0.04-3.95v-3.8c0-6.09,0.04-12.03,0.11-17.88c0.08-5.99,0.11-12,0.11-17.89
	c0-0.51,0-1.13,0.03-1.87c0.04-0.72,0.1-1.43,0.19-2.14c0.09-0.71,0.27-1.37,0.48-1.97c0.2-0.58,0.48-1.03,0.88-1.35
	c0.56-0.45,1.32-0.72,2.27-0.81l3.21-0.3c1.1-0.12,2.08-0.28,2.86-0.53c1.02-0.3,1.59-1.05,1.59-2.13c0-0.71-0.38-1.42-1.11-2.06
	l-0.18-0.15h-0.22c-2.82,0-5.36,0.06-7.59,0.22c-4.37,0.25-9.36,0.32-13.84-0.17c-2.26-0.23-4.58-0.34-6.9-0.34
	c-0.8,0-1.59,0.07-2.36,0.21c-0.63,0.11-1.66,0.53-1.66,2.2c0,1.23,0.73,2.04,2.06,2.25c1.05,0.17,2.22,0.34,3.53,0.51
	c1.26,0.15,2.44,0.47,3.55,0.96c0.97,0.41,1.56,1.23,1.78,2.49c0.27,1.31,0.39,2.77,0.39,4.41v29.23c0,1.87,0.07,4.08,0.21,6.8
	c0.13,2.69,0.19,5.33,0.19,7.82c0,2.51-0.13,4.83-0.4,6.93c-0.23,2-0.73,3.36-1.39,4.05c-0.87,0.79-1.78,1.25-2.79,1.4
	c-1.1,0.15-2.17,0.26-3.14,0.34c-1.09,0.07-1.96,0.22-2.67,0.47c-0.65,0.25-1.4,0.84-1.4,2.34c0,0.53,0.17,1.04,0.52,1.47
	c0.38,0.49,0.88,0.74,1.48,0.74c2.18,0,4.15-0.06,5.82-0.21c1.62-0.13,3.2-0.26,4.71-0.39c1.5-0.13,3.06-0.26,4.7-0.4
	c1.59-0.13,3.52-0.18,5.71-0.18c4.39,0,8.93,0.3,13.54,0.89c4.69,0.6,9.31,0.91,13.7,0.91c1.02,0,1.53-1.29,1.84-2.4
	c0.38-1.3,0.82-3.02,1.36-5.12c0.51-2.1,1.26-4.47,2.18-7.06c0.92-2.59,2.2-5.21,3.86-7.85l0.16-0.26l-0.13-0.3
	C1001.18,75.08,1000.51,74.56,999.61,74.35"/>
<path class="st0" d="M1031.44,47.58c0.1-4.15,0.14-8.39,0.14-12.53c0-1.15,0.04-2.17,0.09-3.06c0.08-0.76,0.29-1.38,0.69-1.87
	c0.38-0.49,1.03-0.87,1.86-1.1c0.98-0.25,2.34-0.38,4.08-0.38c1,0,1.88-0.11,2.6-0.32c0.56-0.17,1.51-0.67,1.51-2.3
	c0-0.27-0.08-0.6-0.24-1.02c-0.17-0.43-0.35-0.72-0.55-0.9l-0.18-0.2h-8.97c-0.93,0-1.91,0.06-2.94,0.17
	c-1.03,0.09-1.99,0.13-2.86,0.13c-1.91,0-3.86-0.1-5.81-0.28c-1.99-0.21-3.98-0.31-5.91-0.31h-1.11c-0.54,0-1.17,0.04-1.84,0.16
	c-0.93,0.15-1.47,0.79-1.47,1.76c0,1.49,0.71,2.12,1.32,2.36c0.68,0.3,1.56,0.47,2.56,0.55c0.91,0.08,1.87,0.18,2.85,0.36
	c0.86,0.13,1.61,0.53,2.22,1.1c0.22,0.32,0.53,1,0.77,2.53c0.21,1.3,0.29,2.51,0.29,3.63v1.89c0,1.66-0.01,3.35-0.04,5
	c-0.04,1.68-0.04,3.38-0.04,5.1l-0.12,35.07v2.1c0,1.23-0.07,2.53-0.26,3.88c-0.12,1.21-0.48,2.01-1.05,2.47
	c-0.56,0.53-1.32,0.9-2.22,1.12c-0.99,0.23-1.94,0.44-2.82,0.6c-0.92,0.17-1.75,0.38-2.45,0.63c-0.91,0.32-1.41,0.96-1.41,1.83
	c0,1.04,0.48,1.8,1.34,2.11c0.71,0.27,1.44,0.4,2.18,0.4h1.4c2.02,0,3.88-0.12,5.49-0.36c2.99-0.43,7-0.46,10.88-0.06
	c2.93,0.32,5.77,0.46,8.68,0.18c1.27-0.13,2-0.96,2-2.27c0-0.51-0.2-1.43-1.54-1.8c-0.74-0.21-1.59-0.39-2.63-0.57
	c-0.97-0.17-1.95-0.36-2.99-0.55c-0.92-0.19-1.64-0.52-2.16-0.96c-0.69-0.62-1.11-1.53-1.25-2.72c-0.16-1.3-0.25-2.49-0.25-3.53
	V60.1C1031.28,55.82,1031.33,51.62,1031.44,47.58"/>
<path class="st0" d="M1131.17,93.8c-0.8-0.23-1.67-0.43-2.54-0.57c-1.61-0.38-3.09-1.04-4.45-1.96c-1.41-0.95-2.77-2.04-4.04-3.3
	c-1.28-1.24-2.52-2.58-3.72-4c-1.21-1.43-2.38-2.8-3.53-4.1c-0.47-0.45-1.36-1.4-2.7-2.83l-4.59-4.95
	c-1.74-1.87-3.57-3.85-5.52-5.98c-1.92-2.09-3.7-4.06-5.34-5.89c-1.65-1.84-3.05-3.42-4.2-4.76c-1.05-1.21-1.51-1.81-1.72-2.09
	c0.21-0.26,0.68-0.79,1.77-1.87c1.24-1.21,2.77-2.65,4.57-4.31c1.78-1.66,3.74-3.43,5.88-5.35c2.07-1.84,4.13-3.61,6.11-5.28
	c1.93-1.64,3.63-3.05,5.14-4.25c1.81-1.46,2.61-1.98,2.97-2.14c0.79-0.43,1.75-0.74,2.85-0.89c1.15-0.17,2.26-0.32,3.34-0.46
	c1.1-0.13,2.06-0.34,2.84-0.64c0.96-0.34,1.49-1.07,1.49-2.08c0-0.81-0.35-1.43-1-1.83c-0.57-0.3-1.17-0.47-1.81-0.47
	c-1.71,0-3.39,0.05-4.99,0.14c-3.37,0.21-7.07,0.2-10.46,0c-2.72-0.14-5.41-0.18-8.41-0.11c-1.24,0.06-2.13,0.66-2.54,1.75
	l-0.06,1.03c0,0.56,0.26,1.56,1.93,1.81c0.96,0.13,2.01,0.23,3.13,0.25c1.1,0.03,2.1,0.12,3,0.23c0.86,0.13,0.86,0.46,0.86,0.61
	c0,0.04-0.05,0.44-1.2,1.79c-0.9,1.09-2.05,2.33-3.43,3.75c-1.4,1.41-2.95,2.94-4.65,4.53c-1.7,1.59-3.32,3.12-4.85,4.55
	c-1.53,1.43-2.92,2.73-4.14,3.85c-1.25,1.14-2.1,1.96-2.59,2.43l-1.3,1.3c-0.51,0.5-1.1,1.04-1.74,1.55
	c-0.62,0.51-1.31,0.97-2.02,1.34c-0.44,0.25-0.89,0.42-1.34,0.5c0.13-0.61,0.14-0.84,0.14-0.95v-5.31c0-1.61-0.01-3.17-0.05-4.67
	c-0.02-1.51-0.04-3.06-0.04-4.65v-5.31c0-2.76,0.57-3.91,1.06-4.37c0.73-0.72,1.57-1.11,2.55-1.24c1.06-0.11,2.08-0.13,3.07-0.04
	c1.3,0.11,2.18-0.21,2.63-0.92c0.17-0.27,0.3-0.63,0.38-1.08c0.07-0.3,0.16-0.57,0.24-0.79l0.08-0.26c0-0.4-0.16-1.12-1.31-1.5
	c-0.68-0.21-1.31-0.32-1.91-0.32h-0.89c-1.55,0-3.09,0.08-4.59,0.24c-1.42,0.18-2.91,0.25-4.42,0.25h-3.1c-1.71,0-3.4-0.1-5.05-0.3
	c-1.7-0.18-3.44-0.3-5.18-0.3h-1.11c-0.62,0-1.3,0.1-2,0.29c-1.23,0.32-1.42,1.16-1.42,1.64c0,1.26,0.56,1.9,1.03,2.2
	c0.58,0.38,1.31,0.65,2.17,0.76c0.78,0.1,1.62,0.13,2.5,0.1c0.76-0.04,1.48,0.01,2.14,0.15c1.02,0.15,1.63,0.62,1.86,1.49
	c0.28,1.05,0.43,2.1,0.43,3.1v12.22c0,6.83-0.05,13.49-0.15,19.88c-0.1,6.67-0.16,13.35-0.16,19.88c0,0.58-0.03,1.24-0.09,2
	c-0.08,0.74-0.19,1.45-0.37,2.14c-0.2,0.7-0.46,1.32-0.8,1.9c-0.3,0.53-0.71,0.89-1.2,1.12c-0.46,0.22-1.11,0.35-1.97,0.39
	c-0.95,0.04-1.89,0.1-2.79,0.21c-0.94,0.09-1.79,0.32-2.52,0.64c-0.9,0.39-1.36,1.17-1.36,2.21c0,1.02,0.59,1.72,1.66,1.91
	c0.79,0.13,1.53,0.21,2.15,0.21c2.85,0,5.61-0.11,8.16-0.3c2.56-0.21,5.29-0.3,8.05-0.3c1.41,0,2.77,0.09,4.11,0.25
	c1.41,0.17,2.82,0.26,4.21,0.26h1.3c0.76,0,1.49-0.17,2.18-0.53c0.8-0.39,1.24-1.11,1.24-2.1c0-1.13-0.65-1.57-1.05-1.71
	c-0.48-0.2-1.06-0.3-1.74-0.35c-0.61-0.03-1.21-0.03-1.82,0h-0.19c-0.42,0-0.58-0.08-0.66-0.13l-0.19-0.13l-0.23,0.02
	c-1.23,0.11-2.22-0.08-2.87-0.58c-0.69-0.53-1.23-1.24-1.55-2.11c-0.34-0.95-0.56-2-0.66-3.16c-0.11-1.17-0.15-2.27-0.15-3.24
	c0-2.47,0.02-4.91,0.04-7.32c0.03-2.4,0.05-4.84,0.05-7.31v-4.5c0-0.93,0.02-1.82,0.06-2.62c0.04-1,0.1-1.47,0.13-1.65
	c0-0.06,0.02-0.09,0.04-0.13c0.4,0.13,0.9,0.23,1.59,0.29c0.74,0.4,1.73,1.18,2.96,2.3c1.35,1.25,2.84,2.72,4.44,4.38
	c1.59,1.66,3.29,3.49,5.03,5.44c1.74,1.93,3.41,3.84,5.01,5.7c1.61,1.86,3.04,3.58,4.37,5.11l2.99,3.52
	c0.15,0.23,0.4,0.58,0.78,1.07c0.36,0.46,0.75,0.95,1.15,1.49c0.41,0.53,0.76,1.02,1.09,1.46c0.31,0.37,0.51,0.61,0.6,0.81
	c0.24,0.37,0.29,0.57,0.31,0.6c-0.43,0.18-0.86,0.24-1.32,0.24c-0.32,0-0.92-0.01-1.78-0.05c-0.88-0.01-1.84,0.02-2.81,0.17
	c-0.98,0.13-1.87,0.4-2.62,0.76c-1.15,0.54-1.4,1.42-1.4,2.03c0,1.08,0.33,1.76,0.97,2.03c0.48,0.2,1.07,0.3,1.85,0.3
	c2.55,0,5.17-0.08,7.74-0.25c4.76-0.32,9.42-0.38,13.93,0c2.05,0.17,4.19,0.25,6.36,0.25c0.44,0,0.97-0.06,1.64-0.15
	c1.24-0.21,1.52-1.02,1.57-1.54C1132.81,94.56,1131.78,93.97,1131.17,93.8"/>
<path class="st0" d="M1173.98,26.83c2.5,0,4.86,0.38,7.03,1.14c3.63,1.26,6.85,3.26,9.52,5.95c2.72,2.72,5,6.01,6.75,9.8
	c1.78,3.8,3.06,7.86,3.86,12.05c0.65,3.76,0.96,7.77,0.88,11.91c-0.06,4.13-0.75,8.08-2.06,11.78c-1.3,3.66-3.36,6.9-6.16,9.58
	c-2.76,2.69-6.59,4.46-11.39,5.31c-1.89,0.34-3.69,0.51-5.37,0.51c-2.79,0-5.35-0.48-7.61-1.38c-3.7-1.49-6.9-3.74-9.48-6.65
	c-2.64-2.95-4.76-6.39-6.36-10.24c-1.62-3.89-2.77-7.82-3.41-11.7c-0.73-3.77-1.08-7.71-1.06-11.75c0.03-4.02,0.69-7.84,1.98-11.37
	c1.25-3.5,3.31-6.58,6.08-9.17c2.77-2.58,6.66-4.34,11.53-5.26C1170.53,26.99,1172.3,26.83,1173.98,26.83 M1203.06,32.53
	c-3.58-3.34-7.8-5.96-12.56-7.82c-4.76-1.87-9.89-2.79-15.2-2.79c-5.52,0-10.71,1-15.35,3c-4.68,1.99-8.75,4.79-12.18,8.3
	c-3.41,3.49-6.1,7.7-7.98,12.52c-1.9,4.78-2.85,10.06-2.85,15.65c0,5.59,0.94,10.81,2.78,15.49c1.86,4.69,4.49,8.82,7.78,12.28
	c3.34,3.44,7.37,6.16,12,8.09c4.62,1.92,9.74,2.92,15.2,2.92c5.54,0,10.79-1.08,15.66-3.22c4.86-2.11,9.14-5.02,12.77-8.63
	c3.62-3.61,6.49-7.9,8.55-12.71c2.05-4.82,3.1-10.02,3.1-15.42c0-5.67-1.06-10.93-3.16-15.58
	C1209.53,39.94,1206.64,35.88,1203.06,32.53"/>
<path class="st0" d="M1264.45,26.83c2.5,0,4.85,0.38,7.03,1.14c3.63,1.26,6.83,3.26,9.54,5.95c2.7,2.72,4.98,6.01,6.73,9.8
	c1.77,3.8,3.08,7.86,3.86,12.05c0.66,3.75,0.96,7.75,0.9,11.91c-0.07,4.14-0.77,8.08-2.08,11.78c-1.31,3.66-3.36,6.9-6.16,9.58
	c-2.75,2.69-6.6,4.46-11.39,5.31c-1.89,0.34-3.7,0.51-5.4,0.51c-2.77,0-5.31-0.48-7.57-1.38c-3.72-1.49-6.91-3.74-9.5-6.65
	c-2.63-2.95-4.76-6.39-6.35-10.24c-1.62-3.87-2.77-7.81-3.43-11.7c-0.73-3.77-1.06-7.71-1.05-11.75c0.04-4.02,0.71-7.85,1.97-11.37
	c1.27-3.5,3.32-6.58,6.1-9.17c2.78-2.58,6.66-4.34,11.53-5.26C1261,26.99,1262.76,26.83,1264.45,26.83 M1293.53,32.53
	c-3.58-3.34-7.8-5.96-12.57-7.82c-4.76-1.87-9.85-2.79-15.19-2.79c-5.53,0-10.7,1-15.36,3c-4.66,1.99-8.74,4.79-12.17,8.3
	c-3.42,3.5-6.09,7.73-7.98,12.52c-1.89,4.78-2.86,10.06-2.86,15.65c0,5.59,0.95,10.81,2.79,15.49c1.86,4.69,4.48,8.82,7.8,12.28
	c3.31,3.44,7.34,6.16,11.97,8.09c4.63,1.92,9.75,2.92,15.21,2.92c5.54,0,10.81-1.08,15.68-3.22c4.84-2.11,9.12-5.02,12.74-8.63
	s6.49-7.9,8.55-12.71c2.06-4.84,3.1-10.02,3.1-15.42c0-5.67-1.06-10.92-3.15-15.58C1300,39.94,1297.12,35.88,1293.53,32.53"/>
<path class="st0" d="M1372.36,75.86c-0.37-0.77-1.03-1.31-1.93-1.51c-0.92-0.21-1.76-0.02-2.58,0.63c-0.17,0.17-0.48,0.58-1.51,2.37
	c-0.73,1.3-1.58,2.76-2.58,4.39c-0.97,1.62-2.06,3.18-3.21,4.64c-1.12,1.43-2.19,2.46-3.22,3.05c-0.56,0.36-1.66,0.85-3.27,1.42
	c-1.62,0.58-3.47,1.04-5.5,1.33c-1.99,0.29-4.08,0.32-6.19,0.05c-2.05-0.25-3.89-0.98-5.45-2.15c-0.35-0.32-0.66-0.95-0.9-1.86
	c-0.24-0.99-0.45-2.14-0.57-3.42c-0.13-1.24-0.22-2.6-0.27-4.04c-0.01-1.43-0.02-2.76-0.02-3.95v-3.8c0-6.08,0.02-12.04,0.08-17.88
	c0.08-5.98,0.12-11.99,0.12-17.89c0-0.51,0-1.13,0.03-1.87c0.05-0.72,0.1-1.43,0.2-2.13c0.1-0.69,0.27-1.38,0.47-1.99
	c0.2-0.59,0.48-1.02,0.86-1.34c0.58-0.46,1.33-0.72,2.27-0.81l3.22-0.3c1.09-0.11,2.07-0.28,2.87-0.53c1.02-0.3,1.59-1.05,1.59-2.13
	c0-0.72-0.38-1.42-1.11-2.06l-0.17-0.15h-0.23c-2.82,0-5.37,0.06-7.6,0.21c-4.36,0.24-9.36,0.32-13.84-0.17
	c-2.26-0.22-4.58-0.34-6.9-0.34c-0.78,0-1.58,0.08-2.37,0.21c-0.63,0.11-1.65,0.53-1.65,2.21c0,1.23,0.72,2.05,2.05,2.25
	c1.05,0.17,2.22,0.34,3.53,0.51c1.25,0.15,2.44,0.47,3.56,0.96c0.95,0.41,1.54,1.23,1.77,2.52c0.27,1.28,0.4,2.74,0.4,4.38v29.23
	c0,1.87,0.07,4.16,0.2,6.81c0.14,2.63,0.19,5.27,0.19,7.82c0,2.5-0.13,4.84-0.39,6.93c-0.24,2.01-0.74,3.37-1.4,4.05
	c-0.87,0.79-1.78,1.25-2.8,1.4c-1.1,0.15-2.15,0.26-3.13,0.34c-1.11,0.08-1.97,0.23-2.68,0.47c-0.65,0.25-1.4,0.84-1.4,2.35
	c0,0.52,0.17,1.04,0.52,1.47c0.38,0.49,0.89,0.74,1.48,0.74c2.19,0,4.14-0.06,5.82-0.21c1.63-0.14,3.19-0.27,4.7-0.4
	c1.51-0.13,3.06-0.26,4.7-0.39c1.59-0.14,3.53-0.2,5.72-0.2c4.37,0,8.94,0.31,13.54,0.89c4.69,0.6,9.3,0.9,13.7,0.9
	c1.04,0,1.53-1.28,1.85-2.39c0.36-1.31,0.81-3.02,1.34-5.12c0.52-2.1,1.27-4.48,2.19-7.07c0.91-2.57,2.21-5.22,3.86-7.84l0.17-0.26
	L1372.36,75.86z"/>
<path class="st0" d="M94.79,412.76c0.06-2.53,0.11-5.07,0.11-7.66c0-0.76,0.01-1.45,0.06-2.04c0.02-0.29,0.1-0.5,0.19-0.64
	c0.04-0.06,0.2-0.23,0.7-0.39c0.34-0.1,1.04-0.24,2.3-0.24c0.77,0,1.47-0.1,2.11-0.27c1.21-0.35,1.92-1.37,1.92-2.74
	c0-0.68-0.32-1.33-0.91-1.92l-0.47-0.5h-6.57c-0.67,0-1.38,0.04-2.1,0.11c-1.91,0.2-3.67,0.1-5.01-0.09
	c-1.08-0.15-2.31-0.23-3.66-0.23h-0.75c-0.44,0-0.92,0.04-1.44,0.13c-1.24,0.18-2.05,1.14-2.05,2.42c0,1.84,1.17,2.53,1.67,2.74
	c0.6,0.25,1.31,0.4,2.11,0.46c0.57,0.03,1.17,0.12,1.79,0.23c0.33,0.04,0.61,0.18,0.69,0.24c0.01,0.02,0.15,0.27,0.29,1.16
	c0.12,0.81,0.18,1.56,0.18,2.24v1.28c0,1.12-0.01,2.22-0.03,3.34c-0.03,1.13-0.03,2.29-0.03,3.44l-0.07,6.23
	c0,0.79-0.06,1.61-0.17,2.46c-0.07,0.65-0.23,0.82-0.29,0.88c-0.25,0.21-0.55,0.36-0.96,0.44c-0.63,0.15-1.25,0.29-1.85,0.39
	c-0.7,0.13-1.3,0.3-1.82,0.48c-1.12,0.38-1.8,1.28-1.8,2.39c0,1.23,0.65,2.22,1.73,2.61c0.61,0.23,1.25,0.34,1.89,0.34h0.94
	c0.73,0,1.36-0.03,1.91-0.08c0.53-0.04,1.02-0.11,1.49-0.18c0.39-0.06,0.81-0.11,1.27-0.15c1.32-0.13,3.37-0.06,5.19,0.13
	c2.05,0.22,4.16,0.3,6.11,0.1c1.5-0.15,2.47-1.23,2.47-2.77c0-1.16-0.75-2.09-1.96-2.39c-0.55-0.17-1.17-0.29-1.87-0.41
	c-0.65-0.11-1.31-0.24-1.99-0.37c-0.41-0.06-0.7-0.2-0.86-0.34c-0.11-0.11-0.28-0.29-0.36-0.7c-0.11-0.58-0.19-1.14-0.23-1.69v-0.88
	C94.69,417.78,94.73,415.26,94.79,412.76"/>
<path class="st0" d="M138.32,401.56c-1.24-1.38-2.79-2.47-4.57-3.26c-2.9-1.29-6.6-1.58-9.86-0.65c-1.21,0.36-2.35,0.79-3.38,1.34
	c-0.31,0.15-0.58,0.31-0.88,0.49c0.71-1.96,1.58-3.85,2.6-5.64c1.8-3.16,4.13-5.99,6.95-8.42c0.65-0.57,1.29-1.08,1.96-1.58
	c0.65-0.47,1.32-0.93,1.94-1.29c0.16-0.08,0.46-0.22,0.88-0.41c0.5-0.22,0.96-0.43,1.41-0.67c0.52-0.29,1-0.59,1.41-0.93
	c0.75-0.61,1.12-1.29,1.12-2.04c0-0.79-0.32-1.49-0.92-2.04c-0.35-0.3-0.67-0.56-0.98-0.74l-0.47-0.26l-0.52,0.04
	c-0.65,0.06-1.37,0.25-2.19,0.59c-0.69,0.27-1.26,0.53-1.79,0.77c-3.21,1.5-6.25,3.39-9.04,5.64c-2.78,2.25-5.27,4.84-7.37,7.68
	c-2.11,2.87-3.78,6.02-4.96,9.37c-1.22,3.37-1.82,6.98-1.82,10.7c0,1.92,0.2,3.82,0.6,5.64c0.42,1.86,1.05,3.63,1.91,5.26
	c0.86,1.66,1.99,3.16,3.35,4.47c1.37,1.33,3.03,2.42,5,3.27c2.36,0.98,4.74,1.48,7.1,1.48c2.44,0,4.7-0.51,6.74-1.52
	c2-0.99,3.71-2.37,5.15-4.05c1.4-1.68,2.5-3.61,3.28-5.72c0.8-2.14,1.17-4.38,1.17-6.67c0-2.12-0.31-4.11-0.95-5.94
	C140.52,404.57,139.56,402.92,138.32,401.56 M128.78,424.02c-0.88,0.62-1.93,0.91-3.26,0.91c-1.57,0-2.8-0.37-3.77-1.1
	c-1.04-0.81-1.87-1.84-2.48-3.07c-0.65-1.35-1.1-2.83-1.38-4.38c-0.27-1.63-0.41-3.2-0.41-4.67c0-0.78,0.03-1.5,0.1-2.19l0.17-1.7
	c0.31-0.34,0.69-0.73,1.12-1.12c0.59-0.56,1.26-1.08,1.97-1.57c0.69-0.46,1.44-0.88,2.23-1.22c2.01-0.84,4.14-0.44,5.57,0.37
	c0.96,0.58,1.73,1.3,2.34,2.21c0.63,0.96,1.12,2.08,1.43,3.33c0.34,1.3,0.49,2.64,0.49,3.98c0,1.26-0.15,2.6-0.44,4
	c-0.27,1.33-0.74,2.57-1.37,3.66C130.49,422.49,129.72,423.35,128.78,424.02"/>
<path class="st0" d="M170.05,417.54c-1.28-1.22-2.86-2.13-4.67-2.74c-0.56-0.18-1.13-0.32-1.73-0.43c0.77-0.78,1.52-1.64,2.24-2.56
	c0.93-1.17,1.76-2.42,2.43-3.7c0.75-1.42,1.13-2.74,1.13-3.98c0-1.64-0.3-3.09-0.93-4.27c-0.62-1.16-1.42-2.12-2.43-2.88
	c-0.98-0.74-2.09-1.27-3.29-1.59c-2.32-0.62-4.83-0.7-7.39,0.34c-1.21,0.48-2.31,1.09-3.32,1.8c-1.03,0.72-1.88,1.5-2.55,2.36
	c-0.81,1.05-1.21,2.1-1.1,3.23c0.1,0.65,0.43,1.22,0.93,1.7c0.55,0.47,1.09,0.57,1.45,0.57c0.54,0,1.04-0.22,1.51-0.69
	c0.97-1.09,1.87-1.98,2.69-2.64c1.11-0.93,3.47-1.12,5.03,0.38c0.74,0.71,1.12,1.9,1.12,3.59c0,0.92-0.28,1.86-0.84,2.85
	c-0.63,1.11-1.43,2.17-2.39,3.17c-0.98,1.02-2.03,1.95-3.15,2.77c-1.14,0.83-2.18,1.51-3.01,1.97l-1.32,0.63
	c-1.59,0.77-1.84,1.92-1.84,2.54c0,1.66,1.08,2.81,2.67,2.81c0.61,0,1.23-0.26,2.11-0.88c0.45-0.29,0.78-0.5,1.14-0.66
	c0.58-0.3,1.11-0.45,1.68-0.45l0.31,0.03c0.93,0.09,1.82,0.21,2.65,0.37c0.89,0.18,1.68,0.53,2.35,1c0.7,0.51,1.28,1.14,1.76,1.87
	c0.49,0.78,0.88,1.65,1.15,2.57c0.29,0.94,0.42,1.88,0.42,2.78c0,1.78-0.37,3.42-1.07,4.85c-0.75,1.46-1.74,2.79-3,3.92
	c-1.29,1.17-2.83,2.19-4.57,3.04c-1.75,0.85-3.61,1.56-5.5,2.11c-0.62,0.08-1.14,0.41-1.47,0.88c-0.27,0.38-0.46,0.85-0.51,1.34
	c-0.08,0.61,0.08,1.19,0.42,1.69c0.25,0.35,0.83,0.94,1.94,0.94h0.03c2.53-0.06,5.16-0.64,7.84-1.75c2.64-1.1,5.1-2.59,7.27-4.43
	c2.21-1.89,4.06-4.08,5.51-6.54c1.48-2.57,2.24-5.3,2.24-8.15c0-1.91-0.36-3.73-0.99-5.4C172.3,420.24,171.32,418.77,170.05,417.54"
	/>
<path class="st0" d="M209.16,416.96c-0.26-0.57-0.78-1.33-1.95-1.78c-1.21-0.48-2.46-0.1-3.3,1.04l-1.92,2.76
	c-0.47,0.67-0.94,1.35-1.45,2.06c-0.51,0.7-0.97,1.35-1.38,1.86c-0.01,0.01-0.3,0.26-1.52,0.51c-1.21,0.25-2.51,0.41-3.92,0.48
	c-1.24,0.06-2.42,0.06-3.55,0c0.39-0.41,0.84-0.88,1.31-1.39c0.92-0.98,1.89-2.08,2.88-3.3c1.03-1.22,1.99-2.46,2.89-3.74
	c0.9-1.28,1.71-2.51,2.38-3.71c0.73-1.28,1.23-2.42,1.47-3.43c1.08-3.87,0.72-7.09-1.07-9.55c-1.8-2.5-4.64-3.75-8.43-3.75
	c-0.71,0-1.4,0.03-2.09,0.08c-0.79,0.06-1.6,0.21-2.42,0.47c-0.83,0.28-1.72,0.72-2.61,1.32c-0.88,0.6-1.78,1.42-2.74,2.47
	c-0.18,0.17-0.41,0.47-0.72,0.87l-0.68,0.96c-0.32,0.44-0.58,0.87-0.79,1.3c-0.25,0.57-0.38,1.04-0.38,1.49
	c0,0.84,0.38,1.58,1.06,2.08c0.74,0.52,1.67,0.61,2.49,0.2c0.58-0.29,1.05-0.8,1.48-1.55c0.19-0.35,0.47-0.73,0.84-1.17
	c0.31-0.35,0.75-0.67,1.33-0.93c0.38-0.2,1.14-0.41,2.55-0.41c2.53,0,3.23,1.05,3.47,1.4c0.63,0.96,0.57,2.42-0.15,4.32
	c-0.48,1.16-1.14,2.47-1.93,3.88c-0.85,1.48-1.8,3.02-2.86,4.58c-1.08,1.57-2.24,3.17-3.48,4.76c-1.25,1.59-2.48,3.07-3.63,4.36
	c-0.68,0.67-0.82,1.38-0.82,1.85c0,0.41,0,1.68,0.97,2.44c0.44,0.36,1,0.55,1.65,0.62l0.48,0.04c0.9,0,1.5-0.59,1.87-1.04
	c1.04,0,2.17-0.03,3.42-0.04c1.45-0.03,2.74-0.03,3.85-0.03c2.77,0.08,5.09,0.28,6.88,0.55c1.92,0.29,3.56,0.5,4.78,0.59l0.27,0.01
	c0.98,0,2.04-0.68,2.18-2.2c0.04-0.47,0.13-1.17,0.25-2.06c0.13-0.86,0.41-1.97,0.81-3.3c0.38-1.28,1.1-2.76,2.13-4.41l0.47-0.75
	L209.16,416.96z"/>
<polygon class="st0" points="13.24,99.13 146.33,35.76 279.4,99.13 "/>
<rect x="6.91" y="111.78" class="st1" width="278.8" height="12.68"/>
<rect x="6.91" y="308.24" class="st1" width="76.06" height="38.03"/>
<rect x="209.69" y="308.24" class="st1" width="76.03" height="38.03"/>
<rect x="108.33" y="308.24" class="st1" width="25.33" height="38.03"/>
<rect x="159" y="308.24" class="st1" width="25.33" height="38.03"/>
<polygon class="st0" points="29.09,137.11 32.26,295.57 6.93,295.57 10.08,137.11 "/>
<polygon class="st0" points="79.81,137.11 82.97,295.57 57.62,295.57 60.78,137.11 "/>
<polygon class="st0" points="130.49,137.11 133.65,295.57 108.3,295.57 111.47,137.11 "/>
<polygon class="st0" points="181.17,137.11 184.33,295.57 159,295.57 162.14,137.11 "/>
<polygon class="st0" points="231.88,137.11 235.04,295.57 209.69,295.57 212.88,137.11 "/>
<polygon class="st0" points="282.56,137.11 285.73,295.57 260.4,295.57 263.54,137.11 "/>
<polygon class="st0" points="146.32,4.08 6.92,70.63 6.92,86.44 146.32,19.91 285.72,86.44 285.72,70.63 "/>
</svg>
