<?xml version="1.0" encoding="utf-8"?>
<!-- Generator: Adobe Illustrator 22.0.0, SVG Export Plug-In . SVG Version: 6.00 Build 0)  -->
<svg version="1.1" id="Layer_1" xmlns="http://www.w3.org/2000/svg" xmlns:xlink="http://www.w3.org/1999/xlink" x="0px" y="0px"
	 viewBox="0 0 226.772 90.709" style="enable-background:new 0 0 226.772 90.709;" xml:space="preserve">
<style type="text/css">
	.st0{clip-path:url(#SVGID_4_);fill:#222221;}
	.st1{clip-path:url(#SVGID_6_);}
	.st2{fill:#222221;}
</style>
<g>
	<defs>
		<rect id="SVGID_1_" y="0" width="226.772" height="90.709"/>
	</defs>
	<clipPath id="SVGID_2_">
		<use xlink:href="#SVGID_1_"  style="overflow:visible;"/>
	</clipPath>
</g>
<g>
	<defs>
		<rect id="SVGID_3_" y="0" width="226.772" height="90.709"/>
	</defs>
	<clipPath id="SVGID_4_">
		<use xlink:href="#SVGID_3_"  style="overflow:visible;"/>
	</clipPath>
	<path class="st0" d="M199.972,42.142h-4.987v0.962h1.843v6.319h1.263v-6.319h1.881V42.142z M193.573,45.154h-2.682v-2.05h3.138
		v-0.962h-4.4v7.281h4.4v-0.962h-3.138v-2.344h2.682V45.154z M182.77,42.142h-1.593v7.281h1.262v-4.806l0.038-0.006l1.568,4.812
		h0.857l1.562-4.781l0.038,0.006v4.775h1.268v-7.281h-1.587l-1.694,5.725h-0.037L182.77,42.142z M176.744,43.917h0.037l0.919,2.9
		h-1.869L176.744,43.917z M178.525,49.423h1.325l-2.425-7.281h-1.306l-2.438,7.281h1.332l0.518-1.644H178L178.525,49.423z
		 M172.61,45.154h-2.681v-2.05h3.137v-0.962h-4.4v7.281h4.4v-0.962h-3.137v-2.344h2.681V45.154z M167.494,42.142h-4.987v0.962h1.844
		v6.319h1.262v-6.319h1.881V42.142z M157.93,43.104h1.168c0.367,0,0.642,0.111,0.825,0.332c0.184,0.22,0.275,0.518,0.275,0.893
		c0,0.379-0.09,0.671-0.272,0.875c-0.181,0.204-0.457,0.306-0.828,0.306h-1.168V43.104z M159.205,46.473
		c0.333,0,0.589,0.106,0.768,0.319c0.179,0.212,0.269,0.51,0.269,0.894v0.656c0,0.216,0.005,0.429,0.016,0.637
		c0.01,0.209,0.036,0.357,0.078,0.444h1.306v-0.106c-0.054-0.088-0.091-0.225-0.109-0.413c-0.019-0.187-0.028-0.373-0.028-0.556
		v-0.669c0-0.437-0.088-0.805-0.263-1.103s-0.458-0.507-0.85-0.628c0.35-0.162,0.617-0.385,0.8-0.669
		c0.183-0.283,0.275-0.618,0.275-1.006c0-0.671-0.209-1.194-0.628-1.569s-0.999-0.562-1.741-0.562h-2.431v7.281h1.263v-2.95H159.205
		z M153.764,46.534c0,0.636-0.126,1.134-0.378,1.493c-0.252,0.36-0.599,0.54-1.041,0.54c-0.454,0-0.807-0.18-1.059-0.54
		c-0.252-0.359-0.378-0.857-0.378-1.493v-1.522c0-0.623,0.125-1.114,0.375-1.471c0.25-0.358,0.6-0.537,1.05-0.537
		c0.446,0,0.796,0.179,1.05,0.537c0.254,0.357,0.381,0.848,0.381,1.471V46.534z M155.027,45.023c0-0.887-0.25-1.606-0.75-2.156
		s-1.148-0.825-1.944-0.825c-0.8,0-1.448,0.275-1.944,0.825s-0.744,1.269-0.744,2.156v1.519c0,0.896,0.249,1.618,0.747,2.165
		c0.498,0.548,1.149,0.822,1.953,0.822c0.796,0,1.442-0.274,1.938-0.822c0.496-0.547,0.744-1.269,0.744-2.165V45.023z
		 M146.938,46.534c0,0.636-0.126,1.134-0.378,1.493c-0.252,0.36-0.599,0.54-1.04,0.54c-0.455,0-0.808-0.18-1.06-0.54
		c-0.252-0.359-0.378-0.857-0.378-1.493v-1.522c0-0.623,0.125-1.114,0.375-1.471c0.25-0.358,0.6-0.537,1.05-0.537
		c0.446,0,0.796,0.179,1.05,0.537c0.254,0.357,0.381,0.848,0.381,1.471V46.534z M148.201,45.023c0-0.887-0.25-1.606-0.75-2.156
		s-1.148-0.825-1.944-0.825c-0.8,0-1.448,0.275-1.944,0.825s-0.743,1.269-0.743,2.156v1.519c0,0.896,0.249,1.618,0.747,2.165
		c0.497,0.548,1.148,0.822,1.953,0.822c0.795,0,1.441-0.274,1.937-0.822c0.496-0.547,0.744-1.269,0.744-2.165V45.023z
		 M141.198,40.323h-1.263v6.738l-0.037,0.012l-3.45-6.75h-1.269v9.1h1.269v-6.756l0.037-0.013l3.45,6.769h1.263V40.323z
		 M127.692,43.917h0.037l0.919,2.9h-1.869L127.692,43.917z M129.473,49.423h1.325l-2.425-7.281h-1.306l-2.437,7.281h1.331
		l0.518-1.644h2.469L129.473,49.423z M122.298,47.169c0,0.425-0.091,0.764-0.272,1.017c-0.182,0.254-0.412,0.381-0.691,0.381
		c-0.325,0-0.582-0.106-0.772-0.319c-0.189-0.212-0.284-0.533-0.284-0.962h-1.219l-0.012,0.037c-0.021,0.721,0.176,1.269,0.59,1.644
		c0.415,0.375,0.98,0.562,1.697,0.562c0.65,0,1.183-0.212,1.6-0.637c0.417-0.425,0.625-0.996,0.625-1.713v-5.037h-1.262V47.169z
		 M114.929,45.067h-2.787v0.962h2.787V45.067z M109.463,48.274c-0.213,0.195-0.527,0.293-0.944,0.293
		c-0.388,0-0.705-0.102-0.953-0.304c-0.248-0.203-0.372-0.534-0.372-0.993h-1.213l-0.018,0.037
		c-0.021,0.747,0.206,1.304,0.681,1.671c0.475,0.368,1.1,0.551,1.875,0.551c0.771,0,1.384-0.18,1.841-0.539
		c0.456-0.36,0.684-0.854,0.684-1.481c0-0.611-0.181-1.078-0.544-1.4c-0.362-0.322-0.925-0.594-1.687-0.816
		c-0.567-0.173-0.941-0.347-1.122-0.522c-0.181-0.176-0.272-0.418-0.272-0.727c0-0.301,0.093-0.55,0.278-0.746
		s0.47-0.294,0.853-0.294c0.379,0,0.666,0.117,0.86,0.352c0.193,0.234,0.29,0.544,0.29,0.93h1.213l0.012-0.037
		c0.017-0.692-0.186-1.233-0.609-1.623c-0.423-0.389-1.012-0.584-1.766-0.584c-0.733,0-1.315,0.185-1.747,0.555
		c-0.431,0.371-0.647,0.858-0.647,1.461c0,0.62,0.181,1.087,0.541,1.399s0.937,0.578,1.728,0.799
		c0.517,0.17,0.872,0.348,1.066,0.532c0.194,0.185,0.29,0.427,0.29,0.726C109.781,47.826,109.675,48.079,109.463,48.274
		 M103.248,42.142v4.765c0,0.525-0.128,0.932-0.384,1.223c-0.256,0.291-0.605,0.437-1.047,0.437c-0.438,0-0.786-0.146-1.044-0.437
		c-0.258-0.291-0.387-0.698-0.387-1.223v-4.765h-1.263v4.775c0,0.821,0.248,1.461,0.744,1.922c0.496,0.46,1.146,0.69,1.95,0.69
		c0.804,0,1.454-0.23,1.95-0.69c0.496-0.461,0.744-1.101,0.744-1.922v-4.775H103.248z M94.876,43.104
		c0.408,0,0.747,0.193,1.018,0.577c0.271,0.385,0.407,0.864,0.407,1.437v1.316c0,0.586-0.136,1.07-0.407,1.453
		c-0.271,0.382-0.61,0.574-1.018,0.574h-1.05v-5.357H94.876z M94.876,49.423c0.766,0,1.406-0.278,1.918-0.834
		c0.513-0.557,0.769-1.272,0.769-2.147v-1.313c0-0.875-0.256-1.591-0.769-2.15c-0.512-0.558-1.152-0.837-1.918-0.837h-2.313v7.281
		H94.876z M90.718,42.142h-1.262v7.281h1.262V42.142z M84.136,43.104h1.169c0.366,0,0.641,0.111,0.825,0.332
		c0.183,0.22,0.275,0.518,0.275,0.893c0,0.379-0.091,0.671-0.272,0.875c-0.181,0.204-0.457,0.306-0.828,0.306h-1.169V43.104z
		 M85.411,46.473c0.333,0,0.59,0.106,0.769,0.319c0.179,0.212,0.269,0.51,0.269,0.894v0.656c0,0.216,0.005,0.429,0.015,0.637
		c0.011,0.209,0.037,0.357,0.078,0.444h1.307v-0.106c-0.055-0.088-0.091-0.225-0.11-0.413c-0.019-0.187-0.028-0.373-0.028-0.556
		v-0.669c0-0.437-0.087-0.805-0.262-1.103s-0.459-0.507-0.85-0.628c0.35-0.162,0.616-0.385,0.8-0.669
		c0.183-0.283,0.275-0.618,0.275-1.006c0-0.671-0.21-1.194-0.629-1.569c-0.418-0.375-0.999-0.562-1.74-0.562h-2.431v7.281h1.262
		v-2.95H85.411z M78.441,43.917h0.037l0.919,2.9h-1.869L78.441,43.917z M80.222,49.423h1.325l-2.425-7.281h-1.306l-2.438,7.281
		h1.332l0.518-1.644h2.469L80.222,49.423z M74.013,40.323H72.75v4.119h-3.487v-4.119h-1.269v9.1h1.269v-4.019h3.487v4.019h1.263
		V40.323z"/>
</g>
<g>
	<defs>
		<rect id="SVGID_5_" y="0" width="226.772" height="90.709"/>
	</defs>
	<clipPath id="SVGID_6_">
		<use xlink:href="#SVGID_5_"  style="overflow:visible;"/>
	</clipPath>
	<g class="st1">
		<path class="st2" d="M26.221,66.787c0,0.134,0.037,0.261,0.101,0.371c0.245-0.249,0.556-0.435,0.904-0.529
			c0.146-0.515,0.62-0.892,1.182-0.892c0.048,0,0.095,0.002,0.141,0.008c-0.468,0.134-0.846,0.483-1.021,0.933
			c-0.291,0.097-0.501,0.371-0.501,0.695c0,0.151,0.046,0.291,0.124,0.407c0.253-0.283,0.585-0.493,0.962-0.596
			c0.108-0.542,0.559-0.96,1.117-1.018c-0.487,0.204-0.829,0.685-0.829,1.247c0,0.198,0.043,0.386,0.12,0.556
			c0.086-0.308,0.369-0.536,0.705-0.536c0.085,0,0.166,0.015,0.24,0.041c0.105,0.038,0.218,0.059,0.334,0.059
			c0.541,0,0.98-0.44,0.98-0.982c0-0.107-0.017-0.212-0.049-0.309c0.257,0.075,0.445,0.312,0.445,0.594
			c0,0.129-0.039,0.248-0.106,0.347c0.072,0.014,0.146,0.021,0.222,0.021c0.637,0,1.163-0.48,1.236-1.097
			c0.32-0.174,0.601-0.407,0.843-0.699l0.17,0.829c0.012,0.056,0.008,0.114-0.007,0.167s-0.043,0.102-0.084,0.144l0.703-0.721
			c0.041-0.042,0.069-0.092,0.083-0.146c0.016-0.053,0.019-0.109,0.007-0.168l-0.207-1.011c-0.012-0.056-0.009-0.115,0.007-0.167
			c0.015-0.052,0.043-0.102,0.084-0.144l0.553-0.565c-0.041,0.042-0.069,0.092-0.084,0.145c-0.015,0.054-0.018,0.11-0.006,0.167
			l0.207,1.014c0.012,0.057,0.009,0.115-0.006,0.168c-0.015,0.051-0.042,0.1-0.082,0.142l0.627-0.651
			c0.04-0.042,0.068-0.093,0.083-0.146c0.016-0.051,0.019-0.109,0.006-0.167l-0.206-1.009c-0.012-0.057-0.009-0.116,0.007-0.167
			c0.015-0.053,0.043-0.104,0.084-0.146l0.553-0.563c-0.041,0.042-0.069,0.091-0.084,0.144s-0.018,0.11-0.006,0.167l0.208,1.014
			c0.012,0.056,0.008,0.114-0.007,0.167c-0.015,0.052-0.042,0.1-0.082,0.142l0.627-0.651c0.041-0.042,0.068-0.093,0.083-0.145
			c0.016-0.052,0.019-0.11,0.007-0.167l-0.101-0.495c-0.106-0.558,0.471-1.202,0.929-1.266c0.055-0.107,0.085-0.222,0.085-0.34
			c0-0.567-0.675-1.027-1.509-1.027c-0.407,0-0.777,0.11-1.049,0.289c0.109,0.323,0.132,0.65-0.937,0.802
			c-0.848,0.12-1.594,0.286-2.161,0.766c-0.874,0.741-0.803,1.732-1.3,2.107c0.221,0.054,0.502,0.054,0.803-0.01
			c0.19-0.041,0.366-0.105,0.521-0.183c-0.093,0.18-0.306,0.349-0.586,0.469c-0.092,0.349-0.403,0.683-0.823,0.84
			c-0.265,0.097-0.528,0.107-0.746,0.045l-1.023-0.296c-0.126-0.036-0.257-0.056-0.394-0.056c-0.754,0-1.376,0.581-1.468,1.332
			C26.494,66.112,26.221,66.417,26.221,66.787 M36.335,26.329c0.589-0.577,1.27-1.058,2.019-1.42
			c-0.022-0.088-0.034-0.178-0.034-0.27v-0.006c-3.126,0.514-5.939,2.118-8.479,2.105c-0.712-0.003-1.27-0.276-1.36-0.727
			c-0.018-0.089-0.016-0.18,0.003-0.272c0.038-0.176,0.194-0.309,0.382-0.309c0.216,0,0.39,0.175,0.39,0.391
			c0,0.103-0.04,0.197-0.105,0.267c0.073,0.007,0.148,0.011,0.226,0.011c0.201,0,0.392-0.024,0.56-0.07
			c0.275-0.073,0.477-0.324,0.477-0.623c0-0.356-0.289-0.644-0.645-0.644c-0.019,0-0.039,0.001-0.058,0.002
			c0.089-0.038,0.189-0.058,0.293-0.058c0.413,0,0.749,0.335,0.749,0.749c0,0.021-0.001,0.043-0.003,0.063
			c1.116-0.024,2.374-1.043,2.649-1.431c-0.35,0.08-0.729,0.124-1.125,0.124c-0.449,0-0.878-0.055-1.266-0.158
			c-0.549-0.144-1.089-0.225-1.504-0.225c-1.37,0-2.479,0.892-2.479,1.994c0,0.91,0.752,1.705,1.794,1.918
			C31.19,28.225,33.979,26.816,36.335,26.329 M22.967,29.572c0.063-0.334,0.089-0.657,0.077-0.97l-0.299,0.351
			c-0.059-0.14-0.098-0.226-0.138-0.294c-0.033-0.058-0.061-0.097-0.1-0.104c-0.02,0.011-0.05,0.028-0.083,0.034
			c-0.038,0.009-0.09,0.006-0.123,0.006c-0.03,0-0.082,0.003-0.121-0.006c-0.032-0.006-0.062-0.023-0.082-0.034
			c-0.04,0.007-0.067,0.046-0.1,0.104c-0.04,0.068-0.079,0.154-0.138,0.294l-0.3-0.351c-0.011,0.313,0.014,0.636,0.077,0.97
			c0.221-0.048,0.449-0.066,0.664-0.066C22.518,29.506,22.746,29.524,22.967,29.572 M23.101,30.471
			c0.033-0.379-0.397-0.513-0.8-0.513c-0.401,0-0.831,0.134-0.798,0.513c0.041,0.462,0.473,0.242,0.798,0.244
			C22.628,30.713,23.06,30.933,23.101,30.471 M24.249,27.743c-0.079,0.02-0.122,0.066-0.131,0.149
			c-0.047,0.446-0.228,0.626-0.517,0.728c-0.004,0.449-0.066,0.79-0.188,1.212c0.343,0.716,0.08,1.217-0.198,1.326
			c-0.265,0.101-0.607-0.036-0.91-0.036s-0.65,0.137-0.915,0.036c-0.279-0.109-0.541-0.61-0.199-1.326
			c-0.121-0.422-0.184-0.763-0.187-1.212c-0.289-0.102-0.471-0.282-0.518-0.728c-0.009-0.083-0.052-0.129-0.13-0.149
			c-1.14-0.314-1.248-1.73-0.671-2.131c-0.052,0.635-0.106,1.529,1.19,1.648c-0.021,0.744,0.3,0.944,0.632,0.944
			c0.271,0.001,0.426-0.086,0.494-0.122c0.241-0.128,0.075-0.325,0.013-0.382c-0.166-0.156-0.25-0.374-0.21-0.595
			c0.007-0.039,0.022-0.06,0.059-0.06h0.438h0.44c0.037,0,0.053,0.021,0.059,0.06c0.04,0.221-0.044,0.439-0.209,0.595
			c-0.062,0.057-0.228,0.254,0.013,0.382c0.067,0.036,0.223,0.123,0.494,0.122c0.331,0,0.653-0.2,0.632-0.944
			c1.296-0.119,1.241-1.013,1.19-1.648C25.497,26.013,25.388,27.429,24.249,27.743 M24.6,25.271c0,0.325-0.238,0.688-0.509,0.688
			h-0.249c0.063,0.075,0.101,0.171,0.101,0.276c0,0.24-0.195,0.435-0.435,0.435c-0.241,0-0.436-0.195-0.436-0.435
			c0-0.105,0.038-0.201,0.1-0.276h-0.26c-0.089,0-0.158,0.037-0.213,0.14c-0.018-0.14-0.036-0.285-0.004-0.381
			c0.044-0.132,0.146-0.21,0.248-0.21h1.142C24.296,25.508,24.453,25.436,24.6,25.271 M24.449,24.73H24.05
			c-0.198,0-0.335-0.081-0.451-0.215l-0.455-0.594c-0.075-0.093-0.135-0.16-0.232-0.203h0.45c0.135,0,0.255,0.058,0.349,0.178
			l0.474,0.604C24.291,24.627,24.324,24.713,24.449,24.73 M22.368,23.75l0.582,0.817c0.092,0.135,0.179,0.209,0.304,0.261h-0.533
			c-0.205,0-0.328-0.095-0.418-0.243l-0.458-0.702c-0.175-0.262-0.244-0.328-0.445-0.4h0.495
			C22.09,23.483,22.272,23.61,22.368,23.75 M21.049,23.896l0.474,0.604c0.106,0.127,0.139,0.213,0.264,0.23h-0.398
			c-0.199,0-0.336-0.081-0.452-0.215l-0.455-0.594c-0.075-0.093-0.134-0.16-0.232-0.203h0.45
			C20.835,23.718,20.955,23.776,21.049,23.896 M20.762,25.959h-0.249c-0.27,0-0.509-0.363-0.509-0.688
			c0.148,0.165,0.304,0.237,0.516,0.237h1.142c0.102,0,0.204,0.078,0.248,0.21c0.032,0.096,0.014,0.241-0.004,0.381
			c-0.055-0.103-0.124-0.14-0.213-0.14h-0.26c0.062,0.075,0.099,0.171,0.099,0.276c0,0.24-0.195,0.435-0.435,0.435
			s-0.435-0.195-0.435-0.435C20.662,26.13,20.699,26.034,20.762,25.959 M19.354,31.4l0.138-0.271
			c0.027-0.051,0.038-0.108,0.037-0.163c-0.001-0.053-0.015-0.11-0.043-0.16l0.379,0.682c0.028,0.052,0.042,0.107,0.043,0.161
			c0.002,0.056-0.01,0.112-0.037,0.164l-0.034,0.067c-0.233,0.453-0.45,1.299-0.209,1.79c-0.562-0.209-0.747-0.701-0.687-1.11
			c-1.058-1.002-1.324-2.018-0.569-2.871l0.387-0.453c0.04-0.044,0.065-0.096,0.076-0.149c0.013-0.052,0.013-0.11-0.002-0.166
			l0.202,0.753c0.014,0.057,0.015,0.115,0.003,0.168c-0.012,0.053-0.037,0.105-0.075,0.15l-0.118,0.137
			c-0.395,0.46-0.289,1.083,0.329,1.642C19.239,31.614,19.281,31.534,19.354,31.4 M45.29,34.227
			c0.041-0.101,0.064-0.212,0.064-0.328c0-0.473-0.383-0.857-0.856-0.857h-0.866c-0.059,0-0.114-0.015-0.163-0.041
			c-0.048-0.025-0.092-0.063-0.125-0.111l-0.434-0.64c0.033,0.048,0.076,0.085,0.125,0.11c0.048,0.026,0.104,0.041,0.163,0.04
			l1.141,0.001c0.059,0,0.115,0.015,0.163,0.04c0.048,0.025,0.092,0.063,0.125,0.111l-0.524-0.766
			c-0.033-0.05-0.077-0.086-0.126-0.112c-0.048-0.026-0.104-0.041-0.162-0.041l-1.132,0.001c-0.058,0-0.114-0.013-0.162-0.04
			c-0.049-0.026-0.093-0.063-0.126-0.111l-0.492-0.725c0.033,0.049,0.077,0.086,0.125,0.112c0.049,0.025,0.104,0.041,0.163,0.041
			l1.136-0.001c0.059,0,0.115,0.013,0.163,0.04c0.049,0.024,0.092,0.062,0.125,0.11l-0.524-0.768
			c-0.033-0.047-0.077-0.084-0.126-0.111c-0.048-0.025-0.104-0.04-0.162-0.04H41.9c-0.059,0-0.114-0.015-0.163-0.04
			c-0.048-0.025-0.092-0.062-0.125-0.112l-0.607-0.89c1.227-0.146,2.217-0.811,2.414-1.727c0.255-1.189-0.926-2.342-2.636-2.593
			c-0.288-0.042-0.508-0.289-0.508-0.588c0-0.254,0.16-0.472,0.385-0.556c-0.182-0.079-0.386-0.123-0.602-0.123
			c-0.757,0-1.37,0.542-1.37,1.211c0,0.12,0.021,0.237,0.058,0.347c-0.848,0.366-1.62,1.015-2.211,1.717
			c0.632-0.168,1.296-0.259,1.981-0.259c-0.003-0.031-0.005-0.064-0.005-0.097c0-0.512,0.414-0.928,0.928-0.928h0.013
			c-0.35,0.155-0.52,0.491-0.52,0.712c0,0.265,0.215,0.48,0.479,0.48c0.103,0,0.199-0.032,0.277-0.088
			c-0.018-0.06-0.028-0.124-0.028-0.19c0-0.368,0.297-0.665,0.665-0.665c0.032,0,0.065,0.002,0.096,0.007
			c-0.253,0.118-0.429,0.376-0.429,0.674c0,0.411,0.333,0.744,0.744,0.744c0.044,0,0.086-0.003,0.128-0.01
			c-0.012-0.043-0.018-0.088-0.018-0.136c0-0.295,0.239-0.532,0.533-0.532c0.295,0,0.534,0.237,0.534,0.532
			c0,0.641-0.712,0.7-1.231,0.552c-1.478-0.427-2.862-0.618-4.201-0.43c-1.718,0.241-4.532,1.402-7.519,1.306
			c-0.668-0.022-1.397-0.132-2.131-0.333c0.09,0.098,0.148,0.166,0.186,0.224c0.291,0.453,0.391,0.928,0.134,1.523
			c0.007-0.666-0.543-1.214-1.004-1.551c-0.186-0.135-0.261-0.264-0.23-0.437l0.136-0.767c-0.01,0.056-0.005,0.113,0.012,0.166
			c0.017,0.051,0.046,0.1,0.088,0.141l0.287,0.282c0.109-0.778-0.067-1.502-0.53-2.173c0.205-0.536,0.233-1.128,0.096-1.683
			c-0.054,0.42-0.26,0.601-0.456,0.722c-0.363,0.228-0.423,0.611-0.235,0.868c-0.307-0.155-0.73-0.725-0.485-1.058
			c0.264-0.359,0.987-0.19,1.076-0.805c-0.469-0.15-0.952-0.044-1.099-0.005c-0.278-0.319-0.647-0.477-1.106-0.474
			c-0.363-0.329-0.829-0.466-1.4-0.409c-0.568-0.057-1.034,0.08-1.397,0.409c-0.459-0.003-0.828,0.155-1.106,0.474
			c-0.148-0.039-0.63-0.145-1.1,0.005c0.089,0.615,0.811,0.446,1.076,0.805c0.245,0.333-0.178,0.903-0.485,1.058
			c0.189-0.257,0.128-0.64-0.236-0.868c-0.194-0.121-0.401-0.302-0.455-0.722c-0.137,0.555-0.108,1.147,0.096,1.683
			c-0.463,0.671-0.639,1.395-0.53,2.173l0.288-0.282c0.042-0.041,0.071-0.09,0.088-0.141c0.017-0.053,0.021-0.11,0.01-0.166
			l0.137,0.767c0.03,0.173-0.043,0.302-0.229,0.437c-0.462,0.337-1.012,0.885-1.005,1.551c-0.256-0.595-0.153-1.089,0.135-1.523
			c-0.876-0.473-1.543-1.25-1.666-1.391c-0.265-0.309-0.23-0.702,0.01-1.045c0.463-0.663,0.573-1.369-0.008-1.852
			c0.004-0.035,0.006-0.07,0.006-0.106c0-0.44-0.312-0.806-0.727-0.888c0.077,0.119,0.122,0.263,0.122,0.415
			c0,0.176-0.058,0.336-0.157,0.467c0.082,0.106,0.131,0.241,0.131,0.387c0,0.197-0.088,0.372-0.227,0.489
			c0.014-0.068,0.02-0.138,0.02-0.209c0-0.452-0.279-0.83-0.658-0.935c-0.061-0.328-0.349-0.577-0.695-0.577
			c-0.201,0-0.381,0.083-0.51,0.217c0.268,0.021,0.484,0.231,0.513,0.497c-0.128,0.097-0.231,0.229-0.298,0.385h0.017
			c0.463,0,0.838,0.375,0.838,0.838c0,0.051-0.005,0.103-0.014,0.153c-0.035-0.19-0.121-0.365-0.26-0.501
			c-0.26-0.254-0.638-0.307-0.984-0.175c-0.13-0.163-0.33-0.268-0.554-0.268c-0.254,0-0.476,0.133-0.601,0.333
			c0.256,0.011,0.481,0.14,0.622,0.335c-0.364,0.466-0.368,1.11,0.004,1.473c0.252,0.246,0.613,0.303,0.95,0.188
			c0.022-0.008,0.046-0.012,0.071-0.012c0.124,0,0.224,0.1,0.224,0.224c0,0.123-0.1,0.222-0.224,0.222
			c-0.054,0-0.104-0.018-0.142-0.051c-0.085-0.071-0.195-0.113-0.314-0.113c-0.27,0-0.49,0.219-0.49,0.49
			c0,0.021,0.001,0.041,0.004,0.061c-0.046,0.015-0.095,0.022-0.146,0.022c-0.132,0-0.252-0.053-0.34-0.139
			c-0.014,0.052-0.021,0.108-0.021,0.167c0,0.344,0.266,0.628,0.605,0.653c0.152,0.378,0.523,0.645,0.955,0.645
			c0.222,0,0.427-0.071,0.595-0.189c0.074-0.051,0.162-0.082,0.258-0.082c0.249,0,0.451,0.202,0.451,0.451
			c0,0.215-0.15,0.394-0.351,0.441l-0.351,0.076c-0.057,0.013-0.115,0.011-0.168-0.005c-0.053-0.014-0.103-0.041-0.145-0.081
			l0.803,0.763c0.043,0.04,0.093,0.067,0.146,0.082c0.053,0.014,0.11,0.017,0.167,0.004l0.658-0.146
			c0.057-0.013,0.115-0.01,0.167,0.005s0.104,0.042,0.146,0.082l0.551,0.524c-0.043-0.04-0.093-0.068-0.147-0.082
			c-0.052-0.014-0.109-0.017-0.166-0.005l-0.657,0.145c-0.057,0.014-0.115,0.011-0.167-0.005c-0.053-0.014-0.104-0.041-0.146-0.081
			l0.736,0.698c0.042,0.04,0.093,0.068,0.145,0.082c0.053,0.015,0.111,0.017,0.168,0.004l0.658-0.143
			c0.058-0.013,0.115-0.011,0.168,0.005c0.053,0.013,0.103,0.042,0.146,0.082l0.551,0.523c-0.043-0.04-0.093-0.066-0.146-0.082
			c-0.053-0.015-0.11-0.017-0.168-0.005l-0.656,0.146c-0.058,0.012-0.115,0.009-0.168-0.005c-0.053-0.015-0.103-0.041-0.146-0.082
			l0.736,0.697c0.043,0.041,0.093,0.068,0.146,0.082c0.053,0.016,0.11,0.019,0.168,0.005l0.795-0.174
			c-0.772,0.437-1.594,0.931-2.465,1.481c-0.515,0.326-1.078,0.386-1.725,0.138c-0.348-0.133-0.725-0.155-0.963-0.114
			c-0.31,0.054-0.573,0.241-0.726,0.502c0.12-0.048,0.251-0.074,0.389-0.074c0.289,0,0.55,0.116,0.74,0.304
			c-0.301-0.126-0.675-0.138-1.038-0.006c-0.65,0.236-1.029,0.849-0.881,1.398c-0.243,0.094-0.413,0.328-0.413,0.602
			c0,0.181,0.074,0.345,0.194,0.462c0.064-0.288,0.316-0.505,0.621-0.516c0.127,0.084,0.275,0.143,0.434,0.176
			c0.048-0.083,0.109-0.158,0.179-0.222c-0.008-0.052-0.011-0.105-0.011-0.158c0-0.594,0.48-1.075,1.073-1.075
			c0.049,0,0.097,0.003,0.145,0.01c-0.471,0.114-0.822,0.537-0.822,1.044c0,0.065,0.006,0.127,0.017,0.189
			c-0.254,0.097-0.433,0.342-0.433,0.631c0,0.165,0.059,0.315,0.158,0.433c0.182-0.355,0.537-0.607,0.954-0.647
			c0.157,0.046,0.323,0.07,0.494,0.07c0.108,0,0.213-0.01,0.315-0.027c-0.092-0.135-0.146-0.297-0.146-0.473
			c0-0.461,0.373-0.834,0.835-0.834c0.04,0,0.078,0.002,0.118,0.008c-0.441,0.187-0.711,0.57-0.618,0.92
			c0.066,0.246,0.299,0.418,0.6,0.474c-0.004,0.185-0.055,0.36-0.142,0.51c0.387-0.027,0.718-0.261,0.883-0.592
			c0.456-0.182,0.737-0.574,0.643-0.928c-0.034-0.127-0.113-0.235-0.22-0.316c-0.001-0.012-0.002-0.024-0.002-0.037
			c0-0.244,0.199-0.442,0.442-0.442c0.246,0,0.444,0.198,0.444,0.442c0,0.116-0.044,0.222-0.117,0.3h0.927
			c0.058,0,0.114-0.015,0.162-0.041c0.049-0.025,0.092-0.063,0.125-0.112l0.595-0.881c0.022-0.034,0.052-0.059,0.085-0.077
			c0.033-0.017,0.07-0.028,0.111-0.028h0.728c-0.04,0-0.078,0.011-0.111,0.028c-0.033,0.018-0.063,0.043-0.085,0.077l-0.597,0.881
			c-0.033,0.049-0.076,0.087-0.125,0.112c-0.048,0.026-0.103,0.041-0.162,0.041h1.108c0.059,0,0.114-0.015,0.161-0.041
			c0.05-0.025,0.094-0.063,0.125-0.112l0.668-0.985c-0.46-0.252-0.649-0.693-0.649-1.299c0-0.377,0.212-0.806,0.244-1.084
			l0.013-0.11c0.007-0.058-0.001-0.114-0.021-0.166c-0.016-0.042-0.048-0.102-0.083-0.143l0.57,0.584
			c0.045,0.038,0.077,0.086,0.096,0.137c0.021,0.051,0.029,0.108,0.022,0.166l-0.017,0.134c-0.027,0.232-0.319,0.732,0.223,1.19
			c0.027,0.023,0.094,0.072,0.158,0.112l0.385,0.241v-1.421h0.539v1.581c0.001,0.06,0.018,0.114,0.045,0.162
			c0.027,0.047,0.065,0.09,0.115,0.121l0.526,0.335c0.051,0.032,0.106,0.049,0.16,0.053c0.055,0.004,0.112-0.004,0.165-0.026
			l0.971-0.422c-0.054,0.023-0.111,0.031-0.165,0.026c-0.055-0.004-0.11-0.02-0.159-0.052l-1.115-0.71
			c0.542-0.458,0.249-0.958,0.222-1.19l-0.016-0.134c-0.007-0.058,0.001-0.115,0.02-0.166c0.021-0.051,0.053-0.099,0.097-0.137
			l0.57-0.584c-0.035,0.041-0.066,0.101-0.083,0.143c-0.019,0.052-0.027,0.108-0.02,0.166l0.012,0.11
			c0.046,0.395,0.446,1.112,0.113,1.51l1.019,0.648c0.05,0.03,0.105,0.048,0.159,0.052c0.055,0.004,0.112-0.004,0.166-0.028
			l1.015-0.44c-0.054,0.022-0.11,0.03-0.164,0.026c-0.055-0.004-0.11-0.021-0.16-0.053l-1.102-0.701
			c0.24-0.491,0.038-1.272-0.195-1.725l-0.035-0.067c-0.026-0.052-0.038-0.108-0.036-0.164c0-0.054,0.014-0.109,0.043-0.161
			l0.378-0.682c-0.028,0.05-0.042,0.107-0.042,0.16c-0.002,0.055,0.01,0.112,0.036,0.163l0.139,0.271
			c0.073,0.134,0.114,0.214,0.178,0.371c0.62-0.559,0.758-1.098,0.363-1.557l-0.118-0.138c-0.038-0.045-0.063-0.097-0.075-0.15
			c-0.013-0.053-0.013-0.111,0.003-0.168l0.202-0.753c-0.015,0.056-0.015,0.114-0.004,0.166c0.013,0.053,0.038,0.105,0.077,0.15
			l0.388,0.452c0.754,0.853,0.298,1.95-0.602,2.787c0.05,0.161,0.093,0.462,0.057,0.625l1.195,0.758
			c0.05,0.032,0.105,0.05,0.16,0.054c0.054,0.004,0.111-0.004,0.165-0.028l0.864-0.376c-0.049,0.021-0.104,0.033-0.16,0.033
			c-0.223,0-0.403-0.18-0.403-0.402c0-0.18,0.117-0.335,0.281-0.384c3.299-1.003,6.336-3.593,8.33-3.587
			c0.969,0.003,1.755,0.589,1.755,1.316c0,0.117-0.021,0.231-0.059,0.341c-0.425,1.193,0.194,2.334,1.828,2.773
			c0.261,0.07,0.453,0.309,0.453,0.59c0,0.056-0.008,0.109-0.021,0.159c0.037,0.004,0.075,0.005,0.114,0.005
			c0.45,0,0.848-0.223,1.089-0.565c0.28-0.002,0.587-0.02,0.901-0.053c0.038,0.076,0.068,0.163,0.086,0.258
			c0.067,0.343-0.052,0.653-0.263,0.721c-0.375,0.122-0.835-0.024-1.19-0.02c-0.672,0.007-1.215,0.553-1.215,1.226
			c0,0.052,0.003,0.104,0.01,0.157c-0.211,0.131-0.351,0.364-0.351,0.631c0,0.132,0.035,0.257,0.095,0.366
			c0.207-0.241,0.477-0.429,0.784-0.536c0.026-0.591,0.512-1.061,1.108-1.061c0.091,0,0.181,0.011,0.265,0.032
			c-0.604,0.076-1.072,0.592-1.072,1.217c0,0.045,0.003,0.09,0.008,0.135c-0.075,0.092-0.12,0.207-0.12,0.334
			c0,0.16,0.072,0.305,0.185,0.401c0.114-0.25,0.389-0.484,0.745-0.604c0.239-0.08,0.474-0.097,0.67-0.057
			c-0.032-0.094-0.047-0.193-0.047-0.297c0-0.534,0.431-0.966,0.965-0.966c0.049,0,0.098,0.004,0.145,0.011
			c-0.372,0.05-0.658,0.369-0.658,0.754c0,0.256,0.126,0.482,0.319,0.621c0,0.013-0.001,0.027-0.001,0.041
			c0,0.21,0.096,0.397,0.246,0.52c0.068-0.351,0.374-0.615,0.745-0.615c0.316,0,0.577-0.04,0.772-0.104
			c0.33-0.108,0.571-0.413,0.571-0.777c0-0.253-0.115-0.48-0.297-0.628c0.09-0.411,0.074-1.083-0.065-1.644
			c0.028-0.004,0.057-0.006,0.087-0.006C44.969,33.929,45.172,34.048,45.29,34.227 M28.481,41.176
			c-0.018-0.089-0.016-0.18,0.003-0.272c0.038-0.176,0.194-0.309,0.382-0.309c0.216,0,0.39,0.175,0.39,0.391
			c0,0.103-0.04,0.197-0.105,0.267c0.073,0.007,0.148,0.011,0.226,0.011c0.201,0,0.392-0.025,0.56-0.07
			c0.275-0.073,0.477-0.324,0.477-0.623c0-0.356-0.289-0.644-0.645-0.644c-0.019,0-0.039,0.001-0.058,0.002
			c0.089-0.038,0.189-0.058,0.293-0.058c0.413,0,0.749,0.335,0.749,0.749c0,0.02-0.001,0.043-0.003,0.063
			c1.116-0.024,2.374-1.043,2.649-1.431c-0.35,0.081-0.729,0.124-1.125,0.124c-0.449,0-0.878-0.055-1.266-0.158
			c-0.549-0.145-1.089-0.225-1.504-0.225c-1.37,0-2.479,0.892-2.479,1.994c0,0.91,0.752,1.705,1.794,1.918
			c2.371,0.485,5.16-0.924,7.516-1.411c0.589-0.577,1.27-1.058,2.019-1.421c-0.022-0.087-0.034-0.177-0.034-0.269v-0.006
			c-3.126,0.514-5.939,2.119-8.479,2.105C29.129,41.9,28.571,41.627,28.481,41.176 M28.408,35.406c0.048,0,0.095,0.004,0.141,0.009
			c-0.468,0.134-0.846,0.483-1.021,0.933c-0.291,0.096-0.501,0.371-0.501,0.694c0,0.151,0.046,0.292,0.124,0.408
			c0.253-0.283,0.585-0.493,0.962-0.596c0.108-0.542,0.559-0.96,1.117-1.019c-0.487,0.205-0.829,0.686-0.829,1.248
			c0,0.198,0.043,0.386,0.12,0.556c0.086-0.308,0.369-0.536,0.705-0.536c0.085,0,0.166,0.015,0.24,0.041
			c0.105,0.038,0.218,0.06,0.334,0.06c0.541,0,0.98-0.441,0.98-0.983c0-0.108-0.017-0.212-0.049-0.308
			c0.257,0.073,0.445,0.311,0.445,0.593c0,0.129-0.039,0.248-0.106,0.348c0.072,0.014,0.146,0.02,0.222,0.02
			c0.637,0,1.163-0.48,1.236-1.098c0.32-0.173,0.601-0.406,0.843-0.698l0.17,0.828c0.012,0.058,0.008,0.115-0.007,0.169
			c-0.015,0.051-0.043,0.101-0.084,0.144l0.703-0.722c0.041-0.042,0.069-0.093,0.083-0.146c0.016-0.053,0.019-0.109,0.007-0.167
			l-0.207-1.012c-0.012-0.057-0.009-0.115,0.007-0.167c0.015-0.052,0.043-0.103,0.084-0.145l0.553-0.564
			c-0.041,0.043-0.069,0.093-0.084,0.145c-0.015,0.054-0.018,0.11-0.006,0.168l0.207,1.014c0.012,0.056,0.009,0.113-0.006,0.167
			c-0.015,0.051-0.042,0.1-0.082,0.142l0.627-0.652c0.04-0.042,0.068-0.092,0.083-0.145c0.016-0.051,0.019-0.11,0.006-0.167
			l-0.206-1.009c-0.012-0.058-0.009-0.116,0.007-0.167c0.015-0.054,0.043-0.104,0.084-0.146l0.553-0.563
			c-0.041,0.042-0.069,0.091-0.084,0.144c-0.015,0.053-0.018,0.11-0.006,0.167l0.208,1.014c0.012,0.056,0.008,0.114-0.007,0.167
			c-0.015,0.051-0.042,0.1-0.082,0.142l0.627-0.651c0.041-0.042,0.068-0.092,0.083-0.145c0.016-0.052,0.019-0.11,0.007-0.168
			l-0.101-0.494c-0.106-0.558,0.471-1.202,0.929-1.266c0.055-0.107,0.085-0.222,0.085-0.341c0-0.567-0.675-1.026-1.509-1.026
			c-0.407,0-0.777,0.109-1.049,0.289c0.109,0.322,0.132,0.65-0.937,0.802c-0.848,0.121-1.594,0.285-2.161,0.766
			c-0.874,0.741-0.803,1.732-1.3,2.107c0.221,0.054,0.502,0.054,0.803-0.01c0.19-0.041,0.366-0.105,0.521-0.182
			c-0.093,0.179-0.306,0.348-0.586,0.467c-0.092,0.35-0.403,0.684-0.823,0.841c-0.265,0.097-0.528,0.107-0.746,0.045l-1.023-0.296
			c-0.126-0.037-0.257-0.056-0.394-0.056c-0.754,0-1.376,0.581-1.468,1.332c-0.356,0.05-0.629,0.356-0.629,0.726
			c0,0.135,0.037,0.262,0.101,0.371c0.245-0.249,0.556-0.435,0.904-0.529C27.372,35.785,27.846,35.406,28.408,35.406 M22.967,44.737
			c0.063-0.334,0.089-0.657,0.077-0.97l-0.299,0.351c-0.059-0.14-0.098-0.226-0.138-0.295c-0.033-0.057-0.061-0.096-0.1-0.103
			c-0.02,0.011-0.05,0.028-0.083,0.034c-0.038,0.009-0.09,0.006-0.123,0.006c-0.03,0-0.082,0.003-0.121-0.006
			c-0.032-0.006-0.062-0.023-0.082-0.034c-0.04,0.007-0.067,0.046-0.1,0.103c-0.04,0.069-0.079,0.155-0.138,0.295l-0.3-0.351
			c-0.011,0.313,0.014,0.636,0.077,0.97c0.221-0.048,0.449-0.066,0.664-0.066C22.518,44.671,22.746,44.689,22.967,44.737
			 M23.101,45.636c0.033-0.379-0.397-0.513-0.8-0.513c-0.401,0-0.831,0.134-0.798,0.513c0.041,0.462,0.473,0.242,0.798,0.244
			C22.628,45.878,23.06,46.098,23.101,45.636 M24.249,42.908c-0.079,0.02-0.122,0.066-0.131,0.149
			c-0.047,0.446-0.228,0.626-0.517,0.728c-0.004,0.449-0.066,0.79-0.188,1.212c0.343,0.716,0.08,1.217-0.198,1.325
			c-0.265,0.102-0.607-0.035-0.91-0.035s-0.65,0.137-0.915,0.035c-0.279-0.108-0.541-0.609-0.199-1.325
			c-0.121-0.422-0.184-0.763-0.187-1.212c-0.289-0.102-0.471-0.282-0.518-0.728c-0.009-0.083-0.052-0.129-0.13-0.149
			c-1.14-0.314-1.248-1.73-0.671-2.131c-0.052,0.635-0.106,1.529,1.19,1.648c-0.021,0.744,0.3,0.944,0.632,0.944
			c0.271,0.001,0.426-0.086,0.494-0.122c0.241-0.128,0.075-0.325,0.013-0.383c-0.166-0.155-0.25-0.375-0.21-0.594
			c0.007-0.04,0.022-0.06,0.059-0.06h0.438h0.44c0.037,0,0.053,0.02,0.059,0.06c0.04,0.219-0.044,0.439-0.209,0.594
			c-0.062,0.058-0.228,0.255,0.013,0.383c0.067,0.036,0.223,0.123,0.494,0.122c0.331,0,0.653-0.2,0.632-0.944
			c1.296-0.119,1.241-1.013,1.19-1.648C25.497,41.178,25.388,42.594,24.249,42.908 M24.6,40.436c0,0.325-0.238,0.688-0.509,0.688
			h-0.249c0.063,0.074,0.101,0.17,0.101,0.276c0,0.24-0.195,0.435-0.435,0.435c-0.241,0-0.436-0.195-0.436-0.435
			c0-0.106,0.038-0.202,0.1-0.276h-0.26c-0.089,0-0.158,0.037-0.213,0.14c-0.018-0.14-0.036-0.285-0.004-0.382
			c0.044-0.131,0.146-0.21,0.248-0.21h1.142C24.296,40.672,24.453,40.601,24.6,40.436 M24.449,39.895H24.05
			c-0.198,0-0.335-0.081-0.451-0.215l-0.455-0.594c-0.075-0.093-0.135-0.16-0.232-0.203h0.45c0.135,0,0.255,0.058,0.349,0.178
			l0.474,0.604C24.291,39.792,24.324,39.878,24.449,39.895 M22.368,38.915l0.582,0.817c0.092,0.135,0.179,0.209,0.304,0.261h-0.533
			c-0.205,0-0.328-0.095-0.418-0.242l-0.458-0.703c-0.175-0.262-0.244-0.328-0.445-0.4h0.495
			C22.09,38.648,22.272,38.775,22.368,38.915 M21.049,39.061l0.474,0.604c0.106,0.127,0.139,0.213,0.264,0.23h-0.398
			c-0.199,0-0.336-0.081-0.452-0.215l-0.455-0.594c-0.075-0.093-0.134-0.16-0.232-0.203h0.45
			C20.835,38.883,20.955,38.941,21.049,39.061 M20.762,41.124h-0.249c-0.27,0-0.509-0.363-0.509-0.688
			c0.148,0.165,0.304,0.236,0.516,0.236h1.142c0.102,0,0.204,0.079,0.248,0.21c0.032,0.097,0.014,0.242-0.004,0.382
			c-0.055-0.103-0.124-0.14-0.213-0.14h-0.26c0.062,0.074,0.099,0.17,0.099,0.276c0,0.24-0.195,0.435-0.435,0.435
			s-0.435-0.195-0.435-0.435C20.662,41.294,20.699,41.198,20.762,41.124 M19.354,46.566l0.138-0.272
			c0.027-0.051,0.038-0.108,0.037-0.163c-0.001-0.053-0.015-0.11-0.043-0.16l0.379,0.683c0.028,0.051,0.042,0.105,0.043,0.161
			c0.002,0.055-0.01,0.111-0.037,0.163l-0.034,0.067c-0.233,0.453-0.45,1.299-0.209,1.79c-0.562-0.209-0.747-0.701-0.687-1.109
			c-1.058-1.003-1.324-2.019-0.569-2.872l0.387-0.453c0.04-0.044,0.065-0.096,0.076-0.149c0.013-0.052,0.013-0.11-0.002-0.166
			l0.202,0.753c0.014,0.057,0.015,0.115,0.003,0.168c-0.012,0.053-0.037,0.105-0.075,0.149l-0.118,0.138
			c-0.395,0.46-0.289,1.083,0.329,1.642C19.239,46.78,19.281,46.699,19.354,46.566 M45.29,49.392c0.041-0.1,0.064-0.212,0.064-0.327
			c0-0.474-0.383-0.858-0.856-0.858h-0.866c-0.059,0.001-0.114-0.014-0.163-0.04c-0.048-0.026-0.092-0.064-0.125-0.112l-0.434-0.64
			c0.033,0.047,0.076,0.086,0.125,0.111c0.048,0.025,0.104,0.041,0.163,0.04l1.141,0.001c0.059,0,0.115,0.014,0.163,0.04
			c0.048,0.024,0.092,0.062,0.125,0.11l-0.524-0.766c-0.033-0.049-0.077-0.086-0.126-0.112c-0.048-0.026-0.104-0.041-0.162-0.041
			l-1.132,0.001c-0.058,0-0.114-0.013-0.162-0.04c-0.049-0.024-0.093-0.062-0.126-0.11l-0.492-0.726
			c0.033,0.049,0.077,0.086,0.125,0.112c0.049,0.025,0.104,0.041,0.163,0.041l1.136-0.001c0.059,0,0.115,0.013,0.163,0.04
			c0.049,0.024,0.092,0.061,0.125,0.11l-0.524-0.766c-0.033-0.049-0.077-0.086-0.126-0.113c-0.048-0.026-0.104-0.04-0.162-0.04H41.9
			c-0.059,0-0.114-0.014-0.163-0.04c-0.048-0.026-0.092-0.062-0.125-0.112l-0.607-0.891c1.227-0.145,2.217-0.81,2.414-1.726
			c0.255-1.189-0.926-2.342-2.636-2.593c-0.288-0.042-0.508-0.289-0.508-0.588c0-0.254,0.16-0.472,0.385-0.556
			c-0.182-0.079-0.386-0.123-0.602-0.123c-0.757,0-1.37,0.542-1.37,1.211c0,0.12,0.021,0.238,0.058,0.347
			c-0.848,0.366-1.62,1.016-2.211,1.717c0.632-0.168,1.296-0.259,1.981-0.259c-0.003-0.031-0.005-0.064-0.005-0.097
			c0-0.512,0.414-0.928,0.928-0.928h0.013c-0.35,0.154-0.52,0.491-0.52,0.712c0,0.265,0.215,0.48,0.479,0.48
			c0.103,0,0.199-0.032,0.277-0.088c-0.018-0.06-0.028-0.124-0.028-0.19c0-0.368,0.297-0.665,0.665-0.665
			c0.032,0,0.065,0.002,0.096,0.007c-0.253,0.118-0.429,0.376-0.429,0.674c0,0.411,0.333,0.744,0.744,0.744
			c0.044,0,0.086-0.003,0.128-0.009c-0.012-0.044-0.018-0.089-0.018-0.137c0-0.295,0.239-0.533,0.533-0.533
			c0.295,0,0.534,0.238,0.534,0.533c0,0.641-0.712,0.7-1.231,0.552c-1.478-0.427-2.862-0.618-4.201-0.431
			c-1.718,0.242-4.532,1.403-7.519,1.307c-0.668-0.022-1.397-0.132-2.131-0.333c0.09,0.098,0.148,0.167,0.186,0.224
			c0.291,0.453,0.391,0.928,0.134,1.523c0.007-0.666-0.543-1.215-1.004-1.551c-0.186-0.135-0.261-0.264-0.23-0.437l0.136-0.767
			c-0.01,0.056-0.005,0.113,0.012,0.164c0.017,0.054,0.046,0.102,0.088,0.143l0.287,0.282c0.109-0.779-0.067-1.502-0.53-2.174
			c0.205-0.535,0.233-1.127,0.096-1.682c-0.054,0.42-0.26,0.601-0.456,0.722c-0.363,0.227-0.423,0.611-0.235,0.868
			c-0.307-0.155-0.73-0.726-0.485-1.058c0.264-0.359,0.987-0.19,1.076-0.805c-0.469-0.15-0.952-0.045-1.099-0.005
			c-0.278-0.319-0.647-0.477-1.106-0.474c-0.363-0.329-0.829-0.466-1.4-0.409c-0.568-0.057-1.034,0.08-1.397,0.409
			c-0.459-0.003-0.828,0.155-1.106,0.474c-0.148-0.04-0.63-0.145-1.1,0.005c0.089,0.615,0.811,0.446,1.076,0.805
			c0.245,0.332-0.178,0.903-0.485,1.058c0.189-0.257,0.128-0.641-0.236-0.868c-0.194-0.121-0.401-0.302-0.455-0.722
			c-0.137,0.555-0.108,1.147,0.096,1.682c-0.463,0.672-0.639,1.395-0.53,2.174l0.288-0.282c0.042-0.041,0.071-0.089,0.088-0.143
			c0.017-0.051,0.021-0.108,0.01-0.164l0.137,0.767c0.03,0.173-0.043,0.302-0.229,0.437c-0.462,0.336-1.012,0.885-1.005,1.551
			c-0.256-0.595-0.153-1.09,0.135-1.523c-0.876-0.473-1.543-1.25-1.666-1.391c-0.265-0.309-0.23-0.702,0.01-1.045
			c0.463-0.662,0.573-1.369-0.008-1.852c0.004-0.035,0.006-0.071,0.006-0.106c0-0.44-0.312-0.806-0.727-0.889
			c0.077,0.12,0.122,0.264,0.122,0.416c0,0.175-0.058,0.336-0.157,0.466c0.082,0.107,0.131,0.242,0.131,0.388
			c0,0.196-0.088,0.372-0.227,0.488c0.014-0.067,0.02-0.137,0.02-0.209c0-0.451-0.279-0.829-0.658-0.934
			c-0.061-0.328-0.349-0.577-0.695-0.577c-0.201,0-0.381,0.083-0.51,0.217c0.268,0.02,0.484,0.231,0.513,0.497
			c-0.128,0.097-0.231,0.228-0.298,0.385h0.017c0.463,0,0.838,0.375,0.838,0.838c0,0.051-0.005,0.103-0.014,0.153
			c-0.035-0.19-0.121-0.365-0.26-0.501c-0.26-0.254-0.638-0.307-0.984-0.175c-0.13-0.163-0.33-0.267-0.554-0.267
			c-0.254,0-0.476,0.132-0.601,0.333c0.256,0.01,0.481,0.139,0.622,0.334c-0.364,0.466-0.368,1.11,0.004,1.473
			c0.252,0.246,0.613,0.303,0.95,0.188c0.022-0.008,0.046-0.012,0.071-0.012c0.124,0,0.224,0.101,0.224,0.224
			c0,0.123-0.1,0.222-0.224,0.222c-0.054,0-0.104-0.018-0.142-0.051c-0.085-0.071-0.195-0.113-0.314-0.113
			c-0.27,0-0.49,0.219-0.49,0.49c0,0.021,0.001,0.041,0.004,0.06c-0.046,0.016-0.095,0.023-0.146,0.023
			c-0.132,0-0.252-0.053-0.34-0.14c-0.014,0.053-0.021,0.109-0.021,0.167c0,0.345,0.266,0.629,0.605,0.654
			c0.152,0.378,0.523,0.645,0.955,0.645c0.222,0,0.427-0.071,0.595-0.189c0.074-0.051,0.162-0.082,0.258-0.082
			c0.249,0,0.451,0.202,0.451,0.451c0,0.215-0.15,0.394-0.351,0.441l-0.351,0.076c-0.057,0.014-0.115,0.011-0.168-0.005
			c-0.053-0.014-0.103-0.041-0.145-0.081l0.803,0.763c0.043,0.04,0.093,0.067,0.146,0.082c0.053,0.014,0.11,0.017,0.167,0.005
			l0.658-0.147c0.057-0.013,0.115-0.01,0.167,0.005c0.052,0.015,0.104,0.042,0.146,0.082l0.551,0.524
			c-0.043-0.04-0.093-0.068-0.147-0.082c-0.052-0.014-0.109-0.017-0.166-0.005l-0.657,0.146c-0.057,0.013-0.115,0.01-0.167-0.006
			c-0.053-0.014-0.104-0.041-0.146-0.081l0.736,0.697c0.042,0.041,0.093,0.069,0.145,0.083c0.053,0.016,0.111,0.018,0.168,0.004
			l0.658-0.143c0.058-0.014,0.115-0.01,0.168,0.005c0.053,0.013,0.103,0.042,0.146,0.082l0.551,0.523
			c-0.043-0.039-0.093-0.067-0.146-0.081c-0.053-0.016-0.11-0.018-0.168-0.006l-0.656,0.146c-0.058,0.012-0.115,0.009-0.168-0.005
			c-0.053-0.015-0.103-0.041-0.146-0.081l0.736,0.697c0.043,0.041,0.093,0.067,0.146,0.081c0.053,0.016,0.11,0.019,0.168,0.006
			l0.795-0.175c-0.772,0.437-1.594,0.931-2.465,1.482c-0.515,0.325-1.078,0.385-1.725,0.137c-0.348-0.133-0.725-0.153-0.963-0.113
			c-0.31,0.053-0.573,0.24-0.726,0.502c0.12-0.049,0.251-0.075,0.389-0.075c0.289,0,0.55,0.117,0.74,0.304
			c-0.301-0.126-0.675-0.138-1.038-0.005c-0.65,0.236-1.029,0.848-0.881,1.398c-0.243,0.093-0.413,0.327-0.413,0.602
			c0,0.18,0.074,0.344,0.194,0.461c0.064-0.288,0.316-0.504,0.621-0.515c0.127,0.084,0.275,0.142,0.434,0.175
			c0.048-0.083,0.109-0.159,0.179-0.221c-0.008-0.053-0.011-0.106-0.011-0.159c0-0.593,0.48-1.075,1.073-1.075
			c0.049,0,0.097,0.003,0.145,0.01c-0.471,0.114-0.822,0.537-0.822,1.044c0,0.065,0.006,0.127,0.017,0.189
			c-0.254,0.097-0.433,0.342-0.433,0.631c0,0.165,0.059,0.316,0.158,0.433c0.182-0.355,0.537-0.607,0.954-0.647
			c0.157,0.046,0.323,0.071,0.494,0.071c0.108,0,0.213-0.011,0.315-0.028c-0.092-0.135-0.146-0.297-0.146-0.472
			c0-0.462,0.373-0.835,0.835-0.835c0.04,0,0.078,0.004,0.118,0.009c-0.441,0.186-0.711,0.569-0.618,0.919
			c0.066,0.247,0.299,0.418,0.6,0.474c-0.004,0.186-0.055,0.36-0.142,0.51c0.387-0.027,0.718-0.261,0.883-0.592
			c0.456-0.182,0.737-0.574,0.643-0.928c-0.034-0.127-0.113-0.235-0.22-0.316c-0.001-0.012-0.002-0.024-0.002-0.037
			c0-0.243,0.199-0.442,0.442-0.442c0.246,0,0.444,0.199,0.444,0.442c0,0.116-0.044,0.222-0.117,0.301h0.927
			c0.058,0,0.114-0.016,0.162-0.041c0.049-0.026,0.092-0.064,0.125-0.112l0.595-0.882c0.022-0.034,0.052-0.059,0.085-0.076
			c0.033-0.017,0.07-0.029,0.111-0.029h0.728c-0.04,0-0.078,0.012-0.111,0.029c-0.033,0.017-0.063,0.042-0.085,0.076l-0.597,0.883
			c-0.033,0.047-0.076,0.085-0.125,0.111c-0.048,0.025-0.103,0.041-0.162,0.041h1.108c0.059,0,0.114-0.016,0.161-0.041
			c0.05-0.026,0.094-0.064,0.125-0.112l0.668-0.986c-0.46-0.252-0.649-0.692-0.649-1.299c0-0.377,0.212-0.806,0.244-1.084
			l0.013-0.11c0.007-0.059-0.001-0.114-0.021-0.165c-0.016-0.043-0.048-0.103-0.083-0.144l0.57,0.584
			c0.045,0.038,0.077,0.086,0.096,0.137c0.021,0.052,0.029,0.109,0.022,0.167l-0.017,0.134c-0.027,0.231-0.319,0.731,0.223,1.189
			c0.027,0.024,0.094,0.072,0.158,0.112l0.385,0.242v-1.421h0.539v1.58c0.001,0.06,0.018,0.114,0.045,0.162
			c0.027,0.047,0.065,0.09,0.115,0.121l0.526,0.335c0.051,0.031,0.106,0.049,0.16,0.054c0.055,0.004,0.112-0.005,0.165-0.027
			l0.971-0.422c-0.054,0.023-0.111,0.032-0.165,0.026c-0.055-0.004-0.11-0.02-0.159-0.052l-1.115-0.71
			c0.542-0.458,0.249-0.958,0.222-1.189l-0.016-0.134c-0.007-0.058,0.001-0.115,0.02-0.167c0.021-0.051,0.053-0.099,0.097-0.137
			l0.57-0.584c-0.035,0.041-0.066,0.101-0.083,0.144c-0.019,0.051-0.027,0.106-0.02,0.165l0.012,0.11
			c0.046,0.396,0.446,1.112,0.113,1.511l1.019,0.647c0.05,0.031,0.105,0.048,0.159,0.052c0.055,0.004,0.112-0.004,0.166-0.028
			l1.015-0.44c-0.054,0.022-0.11,0.031-0.164,0.027c-0.055-0.005-0.11-0.022-0.16-0.054l-1.102-0.701
			c0.24-0.49,0.038-1.272-0.195-1.725l-0.035-0.067c-0.026-0.052-0.038-0.108-0.036-0.163c0-0.056,0.014-0.11,0.043-0.161
			l0.378-0.683c-0.028,0.05-0.042,0.107-0.042,0.16c-0.002,0.055,0.01,0.112,0.036,0.163l0.139,0.272
			c0.073,0.133,0.114,0.214,0.178,0.37c0.62-0.559,0.758-1.098,0.363-1.557l-0.118-0.139c-0.038-0.044-0.063-0.096-0.075-0.149
			c-0.013-0.053-0.013-0.111,0.003-0.168l0.202-0.753c-0.015,0.056-0.015,0.114-0.004,0.166c0.013,0.053,0.038,0.105,0.077,0.149
			l0.388,0.453c0.754,0.853,0.298,1.95-0.602,2.788c0.05,0.16,0.093,0.461,0.057,0.624l1.195,0.759
			c0.05,0.031,0.105,0.049,0.16,0.053c0.054,0.005,0.111-0.004,0.165-0.028l0.864-0.376c-0.049,0.022-0.104,0.034-0.16,0.034
			c-0.223,0-0.403-0.18-0.403-0.403c0-0.18,0.117-0.335,0.281-0.384c3.299-1.004,6.336-3.593,8.33-3.588
			c0.969,0.004,1.755,0.59,1.755,1.318c0,0.116-0.021,0.23-0.059,0.34c-0.425,1.193,0.194,2.334,1.828,2.773
			c0.261,0.07,0.453,0.309,0.453,0.59c0,0.056-0.008,0.109-0.021,0.159c0.037,0.004,0.075,0.005,0.114,0.005
			c0.45,0,0.848-0.224,1.089-0.565c0.28-0.002,0.587-0.02,0.901-0.052c0.038,0.075,0.068,0.163,0.086,0.257
			c0.067,0.343-0.052,0.653-0.263,0.721c-0.375,0.122-0.835-0.023-1.19-0.02c-0.672,0.007-1.215,0.553-1.215,1.225
			c0,0.053,0.003,0.106,0.01,0.158c-0.211,0.131-0.351,0.365-0.351,0.631c0,0.132,0.035,0.257,0.095,0.366
			c0.207-0.241,0.477-0.429,0.784-0.536c0.026-0.59,0.512-1.061,1.108-1.061c0.091,0,0.181,0.012,0.265,0.032
			c-0.604,0.076-1.072,0.592-1.072,1.217c0,0.045,0.003,0.091,0.008,0.136c-0.075,0.09-0.12,0.207-0.12,0.333
			c0,0.16,0.072,0.305,0.185,0.401c0.114-0.25,0.389-0.484,0.745-0.604c0.239-0.08,0.474-0.097,0.67-0.057
			c-0.032-0.094-0.047-0.193-0.047-0.297c0-0.534,0.431-0.966,0.965-0.966c0.049,0,0.098,0.004,0.145,0.011
			c-0.372,0.052-0.658,0.369-0.658,0.754c0,0.257,0.126,0.482,0.319,0.621c0,0.014-0.001,0.027-0.001,0.041
			c0,0.21,0.096,0.397,0.246,0.52c0.068-0.351,0.374-0.615,0.745-0.615c0.316,0,0.577-0.04,0.772-0.103
			c0.33-0.108,0.571-0.413,0.571-0.778c0-0.253-0.115-0.48-0.297-0.628c0.09-0.41,0.074-1.083-0.065-1.644
			c0.028-0.004,0.057-0.006,0.087-0.006C44.969,49.094,45.172,49.212,45.29,49.392 M28.481,56.341
			c-0.018-0.09-0.016-0.18,0.003-0.272c0.038-0.177,0.194-0.309,0.382-0.309c0.216,0,0.39,0.175,0.39,0.392
			c0,0.102-0.04,0.196-0.105,0.266c0.073,0.007,0.148,0.011,0.226,0.011c0.201,0,0.392-0.024,0.56-0.069
			c0.275-0.074,0.477-0.325,0.477-0.623c0-0.357-0.289-0.645-0.645-0.645c-0.019,0-0.039,0-0.058,0.002
			c0.089-0.038,0.189-0.058,0.293-0.058c0.413,0,0.749,0.335,0.749,0.749c0,0.02-0.001,0.043-0.003,0.062
			c1.116-0.023,2.374-1.042,2.649-1.43c-0.35,0.081-0.729,0.125-1.125,0.125c-0.449,0-0.878-0.055-1.266-0.159
			c-0.549-0.144-1.089-0.225-1.504-0.225c-1.37,0-2.479,0.892-2.479,1.995c0,0.909,0.752,1.705,1.794,1.918
			c2.371,0.483,5.16-0.925,7.516-1.412c0.589-0.576,1.27-1.058,2.019-1.421c-0.022-0.086-0.034-0.177-0.034-0.269v-0.006
			c-3.126,0.514-5.939,2.119-8.479,2.106C29.129,57.066,28.571,56.792,28.481,56.341 M28.408,50.572
			c0.048,0,0.095,0.003,0.141,0.008c-0.468,0.134-0.846,0.483-1.021,0.933c-0.291,0.097-0.501,0.371-0.501,0.695
			c0,0.151,0.046,0.291,0.124,0.407c0.253-0.282,0.585-0.493,0.962-0.596c0.108-0.542,0.559-0.96,1.117-1.018
			c-0.487,0.204-0.829,0.685-0.829,1.247c0,0.199,0.043,0.386,0.12,0.556c0.086-0.308,0.369-0.536,0.705-0.536
			c0.085,0,0.166,0.015,0.24,0.041c0.105,0.038,0.218,0.059,0.334,0.059c0.541,0,0.98-0.44,0.98-0.982
			c0-0.107-0.017-0.212-0.049-0.309c0.257,0.075,0.445,0.312,0.445,0.594c0,0.129-0.039,0.248-0.106,0.348
			c0.072,0.014,0.146,0.02,0.222,0.02c0.637,0,1.163-0.48,1.236-1.096c0.32-0.175,0.601-0.408,0.843-0.7l0.17,0.829
			c0.012,0.057,0.008,0.114-0.007,0.168c-0.015,0.052-0.043,0.102-0.084,0.143l0.703-0.721c0.041-0.042,0.069-0.092,0.083-0.146
			c0.016-0.053,0.019-0.109,0.007-0.167l-0.207-1.012c-0.012-0.056-0.009-0.115,0.007-0.167c0.015-0.052,0.043-0.102,0.084-0.144
			l0.553-0.565c-0.041,0.042-0.069,0.092-0.084,0.146c-0.015,0.053-0.018,0.109-0.006,0.168l0.207,1.013
			c0.012,0.056,0.009,0.114-0.006,0.167c-0.015,0.051-0.042,0.1-0.082,0.142l0.627-0.651c0.04-0.042,0.068-0.093,0.083-0.145
			c0.016-0.052,0.019-0.11,0.006-0.168l-0.206-1.009c-0.012-0.057-0.009-0.116,0.007-0.167c0.015-0.053,0.043-0.104,0.084-0.146
			l0.553-0.563c-0.041,0.042-0.069,0.091-0.084,0.144c-0.015,0.054-0.018,0.11-0.006,0.167l0.208,1.014
			c0.012,0.056,0.008,0.114-0.007,0.167c-0.015,0.052-0.042,0.1-0.082,0.142l0.627-0.65c0.041-0.042,0.068-0.093,0.083-0.146
			c0.016-0.052,0.019-0.11,0.007-0.168l-0.101-0.494c-0.106-0.558,0.471-1.202,0.929-1.266c0.055-0.107,0.085-0.222,0.085-0.34
			c0-0.567-0.675-1.027-1.509-1.027c-0.407,0-0.777,0.109-1.049,0.289c0.109,0.322,0.132,0.651-0.937,0.802
			c-0.848,0.12-1.594,0.285-2.161,0.767c-0.874,0.74-0.803,1.731-1.3,2.106c0.221,0.054,0.502,0.054,0.803-0.01
			c0.19-0.041,0.366-0.105,0.521-0.182c-0.093,0.179-0.306,0.348-0.586,0.468c-0.092,0.349-0.403,0.683-0.823,0.84
			c-0.265,0.097-0.528,0.107-0.746,0.045l-1.023-0.296c-0.126-0.036-0.257-0.055-0.394-0.055c-0.754,0-1.376,0.58-1.468,1.331
			c-0.356,0.051-0.629,0.356-0.629,0.726c0,0.135,0.037,0.261,0.101,0.371c0.245-0.249,0.556-0.435,0.904-0.529
			C27.372,50.95,27.846,50.572,28.408,50.572 M22.967,59.903c0.063-0.334,0.089-0.658,0.077-0.971l-0.299,0.351
			c-0.059-0.141-0.098-0.226-0.138-0.294c-0.033-0.058-0.061-0.097-0.1-0.104c-0.02,0.01-0.05,0.027-0.083,0.034
			c-0.038,0.009-0.09,0.006-0.123,0.006c-0.03,0-0.082,0.003-0.121-0.006c-0.032-0.007-0.062-0.024-0.082-0.034
			c-0.04,0.007-0.067,0.046-0.1,0.104c-0.04,0.068-0.079,0.153-0.138,0.294l-0.3-0.351c-0.011,0.313,0.014,0.637,0.077,0.971
			c0.221-0.05,0.449-0.067,0.664-0.067C22.518,59.836,22.746,59.853,22.967,59.903 M23.101,60.801
			c0.033-0.379-0.397-0.513-0.8-0.513c-0.401,0-0.831,0.134-0.798,0.513c0.041,0.462,0.473,0.242,0.798,0.244
			C22.628,61.043,23.06,61.263,23.101,60.801 M24.249,58.072c-0.079,0.021-0.122,0.067-0.131,0.15
			c-0.047,0.446-0.228,0.626-0.517,0.728c-0.004,0.45-0.066,0.79-0.188,1.212c0.343,0.716,0.08,1.217-0.198,1.325
			c-0.265,0.102-0.607-0.035-0.91-0.035s-0.65,0.137-0.915,0.035c-0.279-0.108-0.541-0.609-0.199-1.325
			c-0.121-0.422-0.184-0.762-0.187-1.212c-0.289-0.102-0.471-0.282-0.518-0.728c-0.009-0.083-0.052-0.129-0.13-0.15
			c-1.14-0.313-1.248-1.729-0.671-2.129c-0.052,0.634-0.106,1.528,1.19,1.647c-0.021,0.744,0.3,0.944,0.632,0.944
			c0.271,0,0.426-0.087,0.494-0.123c0.241-0.128,0.075-0.324,0.013-0.381c-0.166-0.155-0.25-0.375-0.21-0.595
			c0.007-0.04,0.022-0.059,0.059-0.059h0.438h0.44c0.037,0,0.053,0.019,0.059,0.059c0.04,0.22-0.044,0.44-0.209,0.595
			c-0.062,0.057-0.228,0.253,0.013,0.381c0.067,0.036,0.223,0.123,0.494,0.123c0.331,0,0.653-0.2,0.632-0.944
			c1.296-0.119,1.241-1.013,1.19-1.647C25.497,56.343,25.388,57.759,24.249,58.072 M24.6,55.6c0,0.326-0.238,0.689-0.509,0.689
			h-0.249c0.063,0.075,0.101,0.17,0.101,0.277c0,0.239-0.195,0.435-0.435,0.435c-0.241,0-0.436-0.196-0.436-0.435
			c0-0.107,0.038-0.202,0.1-0.277h-0.26c-0.089,0-0.158,0.036-0.213,0.139c-0.018-0.139-0.036-0.284-0.004-0.381
			c0.044-0.13,0.146-0.21,0.248-0.21h1.142C24.296,55.837,24.453,55.766,24.6,55.6 M24.449,55.06H24.05
			c-0.198,0-0.335-0.081-0.451-0.215l-0.455-0.594c-0.075-0.093-0.135-0.16-0.232-0.204h0.45c0.135,0,0.255,0.06,0.349,0.179
			l0.474,0.604C24.291,54.958,24.324,55.042,24.449,55.06 M22.368,54.08l0.582,0.818c0.092,0.134,0.179,0.209,0.304,0.26h-0.533
			c-0.205,0-0.328-0.095-0.418-0.242l-0.458-0.703c-0.175-0.262-0.244-0.329-0.445-0.4h0.495
			C22.09,53.813,22.272,53.941,22.368,54.08 M21.049,54.226l0.474,0.604c0.106,0.128,0.139,0.212,0.264,0.23h-0.398
			c-0.199,0-0.336-0.081-0.452-0.215l-0.455-0.594c-0.075-0.093-0.134-0.16-0.232-0.204h0.45
			C20.835,54.047,20.955,54.107,21.049,54.226 M20.762,56.289h-0.249c-0.27,0-0.509-0.363-0.509-0.689
			c0.148,0.166,0.304,0.237,0.516,0.237h1.142c0.102,0,0.204,0.08,0.248,0.21c0.032,0.097,0.014,0.242-0.004,0.381
			c-0.055-0.103-0.124-0.139-0.213-0.139h-0.26c0.062,0.075,0.099,0.17,0.099,0.277c0,0.239-0.195,0.435-0.435,0.435
			s-0.435-0.196-0.435-0.435C20.662,56.459,20.699,56.364,20.762,56.289 M19.354,61.731l0.138-0.272
			c0.027-0.051,0.038-0.108,0.037-0.163c-0.001-0.053-0.015-0.11-0.043-0.161l0.379,0.683c0.028,0.052,0.042,0.106,0.043,0.161
			c0.002,0.056-0.01,0.111-0.037,0.164l-0.034,0.067c-0.233,0.453-0.45,1.299-0.209,1.791c-0.562-0.209-0.747-0.702-0.687-1.111
			c-1.058-1.003-1.324-2.018-0.569-2.871l0.387-0.452c0.04-0.044,0.065-0.097,0.076-0.15c0.013-0.052,0.013-0.11-0.002-0.166
			l0.202,0.753c0.014,0.057,0.015,0.115,0.003,0.167c-0.012,0.054-0.037,0.107-0.075,0.151l-0.118,0.137
			c-0.395,0.46-0.289,1.083,0.329,1.642C19.239,61.945,19.281,61.864,19.354,61.731 M45.29,64.557
			c0.041-0.1,0.064-0.212,0.064-0.328c0-0.473-0.383-0.857-0.856-0.857h-0.866c-0.059,0-0.114-0.014-0.163-0.04
			c-0.048-0.026-0.092-0.064-0.125-0.112l-0.434-0.64c0.033,0.047,0.076,0.086,0.125,0.111c0.048,0.025,0.104,0.041,0.163,0.04
			l1.141,0.001c0.059,0,0.115,0.014,0.163,0.039s0.092,0.063,0.125,0.111l-0.524-0.767c-0.033-0.048-0.077-0.085-0.126-0.112
			c-0.048-0.025-0.104-0.04-0.162-0.04l-1.132,0.001c-0.058,0-0.114-0.014-0.162-0.04c-0.049-0.025-0.093-0.062-0.126-0.112
			l-0.492-0.724c0.033,0.049,0.077,0.086,0.125,0.112c0.049,0.025,0.104,0.041,0.163,0.04h1.136c0.059-0.001,0.115,0.013,0.163,0.04
			c0.049,0.024,0.092,0.061,0.125,0.11l-0.524-0.767c-0.033-0.048-0.077-0.086-0.126-0.112c-0.048-0.025-0.104-0.04-0.162-0.04H41.9
			c-0.059,0-0.114-0.014-0.163-0.041c-0.048-0.024-0.092-0.061-0.125-0.11l-0.607-0.892c1.227-0.145,2.217-0.81,2.414-1.726
			c0.255-1.19-0.926-2.341-2.636-2.592c-0.288-0.042-0.508-0.289-0.508-0.589c0-0.255,0.16-0.472,0.385-0.557
			c-0.182-0.078-0.386-0.122-0.602-0.122c-0.757,0-1.37,0.542-1.37,1.211c0,0.12,0.021,0.238,0.058,0.348
			c-0.848,0.365-1.62,1.015-2.211,1.716c0.632-0.168,1.296-0.258,1.981-0.258c-0.003-0.032-0.005-0.065-0.005-0.098
			c0-0.512,0.414-0.927,0.928-0.927h0.013c-0.35,0.154-0.52,0.49-0.52,0.711c0,0.265,0.215,0.48,0.479,0.48
			c0.103,0,0.199-0.032,0.277-0.088c-0.018-0.061-0.028-0.124-0.028-0.19c0-0.368,0.297-0.664,0.665-0.664
			c0.032,0,0.065,0.001,0.096,0.006c-0.253,0.119-0.429,0.376-0.429,0.674c0,0.411,0.333,0.744,0.744,0.744
			c0.044,0,0.086-0.003,0.128-0.01c-0.012-0.043-0.018-0.088-0.018-0.135c0-0.295,0.239-0.534,0.533-0.534
			c0.295,0,0.534,0.239,0.534,0.534c0,0.64-0.712,0.699-1.231,0.551c-1.478-0.426-2.862-0.618-4.201-0.43
			c-1.718,0.24-4.532,1.402-7.519,1.306c-0.668-0.022-1.397-0.132-2.131-0.333c0.09,0.097,0.148,0.167,0.186,0.224
			c0.291,0.453,0.391,0.929,0.134,1.523c0.007-0.666-0.543-1.214-1.004-1.55c-0.186-0.136-0.261-0.265-0.23-0.438l0.136-0.767
			c-0.01,0.056-0.005,0.113,0.012,0.165c0.017,0.053,0.046,0.101,0.088,0.142l0.287,0.282c0.109-0.779-0.067-1.502-0.53-2.173
			c0.205-0.536,0.233-1.127,0.096-1.683c-0.054,0.42-0.26,0.601-0.456,0.723c-0.363,0.226-0.423,0.61-0.235,0.867
			c-0.307-0.156-0.73-0.726-0.485-1.058c0.264-0.359,0.987-0.189,1.076-0.805c-0.469-0.15-0.952-0.044-1.099-0.004
			c-0.278-0.32-0.647-0.478-1.106-0.475c-0.363-0.33-0.829-0.466-1.4-0.409c-0.568-0.057-1.034,0.079-1.397,0.409
			c-0.459-0.003-0.828,0.155-1.106,0.475c-0.148-0.04-0.63-0.146-1.1,0.004c0.089,0.616,0.811,0.446,1.076,0.805
			c0.245,0.332-0.178,0.902-0.485,1.058c0.189-0.257,0.128-0.641-0.236-0.867c-0.194-0.122-0.401-0.303-0.455-0.723
			c-0.137,0.556-0.108,1.147,0.096,1.683c-0.463,0.671-0.639,1.394-0.53,2.173l0.288-0.282c0.042-0.041,0.071-0.089,0.088-0.142
			c0.017-0.052,0.021-0.109,0.01-0.165l0.137,0.767c0.03,0.173-0.043,0.302-0.229,0.438c-0.462,0.336-1.012,0.884-1.005,1.55
			c-0.256-0.594-0.153-1.089,0.135-1.523c-0.876-0.472-1.543-1.25-1.666-1.391c-0.265-0.308-0.23-0.702,0.01-1.045
			c0.463-0.663,0.573-1.368-0.008-1.852c0.004-0.034,0.006-0.07,0.006-0.106c0-0.44-0.312-0.805-0.727-0.888
			c0.077,0.119,0.122,0.263,0.122,0.415c0,0.176-0.058,0.337-0.157,0.466c0.082,0.107,0.131,0.242,0.131,0.388
			c0,0.197-0.088,0.372-0.227,0.489c0.014-0.068,0.02-0.139,0.02-0.209c0-0.452-0.279-0.83-0.658-0.935
			c-0.061-0.328-0.349-0.577-0.695-0.577c-0.201,0-0.381,0.083-0.51,0.218c0.268,0.019,0.484,0.23,0.513,0.497
			c-0.128,0.096-0.231,0.227-0.298,0.384h0.017c0.463,0,0.838,0.375,0.838,0.838c0,0.051-0.005,0.103-0.014,0.154
			c-0.035-0.192-0.121-0.366-0.26-0.502c-0.26-0.254-0.638-0.307-0.984-0.175c-0.13-0.163-0.33-0.267-0.554-0.267
			c-0.254,0-0.476,0.132-0.601,0.333c0.256,0.01,0.481,0.139,0.622,0.335c-0.364,0.465-0.368,1.11,0.004,1.472
			c0.252,0.246,0.613,0.304,0.95,0.188c0.022-0.008,0.046-0.012,0.071-0.012c0.124,0,0.224,0.1,0.224,0.224
			c0,0.123-0.1,0.222-0.224,0.222c-0.054,0-0.104-0.018-0.142-0.051c-0.085-0.071-0.195-0.113-0.314-0.113
			c-0.27,0-0.49,0.22-0.49,0.49c0,0.021,0.001,0.041,0.004,0.061c-0.046,0.015-0.095,0.022-0.146,0.022
			c-0.132,0-0.252-0.053-0.34-0.139c-0.014,0.053-0.021,0.108-0.021,0.167c0,0.345,0.266,0.628,0.605,0.653
			c0.152,0.378,0.523,0.645,0.955,0.645c0.222,0,0.427-0.071,0.595-0.189c0.074-0.052,0.162-0.082,0.258-0.082
			c0.249,0,0.451,0.202,0.451,0.451c0,0.215-0.15,0.395-0.351,0.44l-0.351,0.078c-0.057,0.013-0.115,0.01-0.168-0.006
			c-0.053-0.014-0.103-0.04-0.145-0.081l0.803,0.763c0.043,0.04,0.093,0.067,0.146,0.082c0.053,0.014,0.11,0.017,0.167,0.005
			l0.658-0.147c0.057-0.013,0.115-0.01,0.167,0.006c0.052,0.014,0.104,0.041,0.146,0.082l0.551,0.523
			c-0.043-0.041-0.093-0.068-0.147-0.082c-0.052-0.014-0.109-0.017-0.166-0.005l-0.657,0.145c-0.057,0.014-0.115,0.011-0.167-0.005
			c-0.053-0.014-0.104-0.041-0.146-0.081l0.736,0.697c0.042,0.041,0.093,0.069,0.145,0.082c0.053,0.015,0.111,0.019,0.168,0.005
			l0.658-0.143c0.058-0.014,0.115-0.01,0.168,0.005c0.053,0.013,0.103,0.042,0.146,0.082l0.551,0.523
			c-0.043-0.04-0.093-0.067-0.146-0.082c-0.053-0.015-0.11-0.018-0.168-0.005l-0.656,0.146c-0.058,0.012-0.115,0.009-0.168-0.005
			c-0.053-0.015-0.103-0.041-0.146-0.082l0.736,0.697c0.043,0.041,0.093,0.068,0.146,0.082c0.053,0.016,0.11,0.019,0.168,0.006
			l0.795-0.175c-0.772,0.437-1.594,0.931-2.465,1.482c-0.515,0.325-1.078,0.385-1.725,0.137c-0.348-0.133-0.725-0.154-0.963-0.113
			c-0.31,0.053-0.573,0.24-0.726,0.502c0.12-0.05,0.251-0.075,0.389-0.075c0.289,0,0.55,0.117,0.74,0.304
			c-0.301-0.126-0.675-0.138-1.038-0.006c-0.65,0.237-1.029,0.849-0.881,1.397c-0.243,0.095-0.413,0.328-0.413,0.604
			c0,0.18,0.074,0.343,0.194,0.461c0.064-0.288,0.316-0.504,0.621-0.515c0.127,0.084,0.275,0.142,0.434,0.175
			c0.048-0.083,0.109-0.159,0.179-0.221c-0.008-0.053-0.011-0.106-0.011-0.159c0-0.594,0.48-1.074,1.073-1.074
			c0.049,0,0.097,0.002,0.145,0.009c-0.471,0.114-0.822,0.537-0.822,1.044c0,0.065,0.006,0.127,0.017,0.189
			c-0.254,0.096-0.433,0.342-0.433,0.631c0,0.165,0.059,0.315,0.158,0.433c0.182-0.355,0.537-0.607,0.954-0.647
			c0.157,0.046,0.323,0.07,0.494,0.07c0.108,0,0.213-0.01,0.315-0.027c-0.092-0.135-0.146-0.297-0.146-0.473
			c0-0.461,0.373-0.835,0.835-0.835c0.04,0,0.078,0.004,0.118,0.01c-0.441,0.186-0.711,0.569-0.618,0.918
			c0.066,0.248,0.299,0.419,0.6,0.474c-0.004,0.187-0.055,0.361-0.142,0.511c0.387-0.027,0.718-0.262,0.883-0.592
			c0.456-0.182,0.737-0.574,0.643-0.928c-0.034-0.127-0.113-0.235-0.22-0.317c-0.001-0.011-0.002-0.023-0.002-0.036
			c0-0.243,0.199-0.442,0.442-0.442c0.246,0,0.444,0.199,0.444,0.442c0,0.116-0.044,0.222-0.117,0.301h0.927
			c0.058,0,0.114-0.016,0.162-0.041c0.049-0.026,0.092-0.064,0.125-0.112l0.595-0.882c0.022-0.033,0.052-0.059,0.085-0.076
			c0.033-0.019,0.07-0.029,0.111-0.029h0.728c-0.04,0-0.078,0.01-0.111,0.029c-0.033,0.017-0.063,0.043-0.085,0.076l-0.597,0.882
			c-0.033,0.048-0.076,0.086-0.125,0.112c-0.048,0.025-0.103,0.041-0.162,0.041h1.108c0.059,0,0.114-0.016,0.161-0.041
			c0.05-0.026,0.094-0.064,0.125-0.112l0.668-0.986c-0.46-0.252-0.649-0.692-0.649-1.299c0-0.377,0.212-0.806,0.244-1.084
			l0.013-0.11c0.007-0.059-0.001-0.115-0.021-0.167c-0.016-0.041-0.048-0.101-0.083-0.142l0.57,0.584
			c0.045,0.039,0.077,0.086,0.096,0.137c0.021,0.052,0.029,0.109,0.022,0.166l-0.017,0.135c-0.027,0.231-0.319,0.731,0.223,1.189
			c0.027,0.024,0.094,0.071,0.158,0.112l0.385,0.242v-1.422h0.539v1.581c0.001,0.06,0.018,0.114,0.045,0.161
			c0.027,0.048,0.065,0.091,0.115,0.122l0.526,0.335c0.051,0.032,0.106,0.049,0.16,0.054c0.055,0.004,0.112-0.005,0.165-0.028
			l0.971-0.421c-0.054,0.022-0.111,0.032-0.165,0.026c-0.055-0.004-0.11-0.02-0.159-0.053l-1.115-0.709
			c0.542-0.458,0.249-0.958,0.222-1.189l-0.016-0.135c-0.007-0.057,0.001-0.114,0.02-0.166c0.021-0.051,0.053-0.098,0.097-0.137
			l0.57-0.584c-0.035,0.041-0.066,0.101-0.083,0.142c-0.019,0.052-0.027,0.108-0.02,0.167l0.012,0.11
			c0.046,0.396,0.446,1.112,0.113,1.51l1.019,0.648c0.05,0.031,0.105,0.047,0.159,0.051c0.055,0.005,0.112-0.003,0.166-0.027
			l1.015-0.44c-0.054,0.022-0.11,0.031-0.164,0.027c-0.055-0.005-0.11-0.023-0.16-0.054l-1.102-0.701
			c0.24-0.491,0.038-1.272-0.195-1.725l-0.035-0.067c-0.026-0.053-0.038-0.108-0.036-0.164c0-0.055,0.014-0.109,0.043-0.161
			l0.378-0.683c-0.028,0.051-0.042,0.108-0.042,0.161c-0.002,0.055,0.01,0.112,0.036,0.163l0.139,0.272
			c0.073,0.133,0.114,0.214,0.178,0.37c0.62-0.559,0.758-1.098,0.363-1.558l-0.118-0.137c-0.038-0.044-0.063-0.097-0.075-0.151
			c-0.013-0.052-0.013-0.11,0.003-0.167l0.202-0.753c-0.015,0.056-0.015,0.114-0.004,0.166c0.013,0.053,0.038,0.106,0.077,0.15
			l0.388,0.452c0.754,0.853,0.298,1.95-0.602,2.787c0.05,0.161,0.093,0.462,0.057,0.625l1.195,0.759
			c0.05,0.031,0.105,0.049,0.16,0.053c0.054,0.005,0.111-0.004,0.165-0.028l0.864-0.376c-0.049,0.022-0.104,0.034-0.16,0.034
			c-0.223,0-0.403-0.18-0.403-0.403c0-0.179,0.117-0.335,0.281-0.384c3.299-1.003,6.336-3.593,8.33-3.587
			c0.969,0.002,1.755,0.589,1.755,1.317c0,0.116-0.021,0.23-0.059,0.34c-0.425,1.193,0.194,2.334,1.828,2.772
			c0.261,0.072,0.453,0.31,0.453,0.591c0,0.056-0.008,0.109-0.021,0.159c0.037,0.004,0.075,0.005,0.114,0.005
			c0.45,0,0.848-0.224,1.089-0.565c0.28-0.002,0.587-0.02,0.901-0.052c0.038,0.075,0.068,0.162,0.086,0.257
			c0.067,0.343-0.052,0.653-0.263,0.721c-0.375,0.123-0.835-0.024-1.19-0.02c-0.672,0.007-1.215,0.553-1.215,1.226
			c0,0.052,0.003,0.104,0.01,0.156c-0.211,0.132-0.351,0.366-0.351,0.632c0,0.132,0.035,0.257,0.095,0.366
			c0.207-0.242,0.477-0.429,0.784-0.536c0.026-0.59,0.512-1.061,1.108-1.061c0.091,0,0.181,0.012,0.265,0.032
			c-0.604,0.077-1.072,0.592-1.072,1.217c0,0.045,0.003,0.091,0.008,0.136c-0.075,0.09-0.12,0.207-0.12,0.333
			c0,0.16,0.072,0.305,0.185,0.4c0.114-0.249,0.389-0.483,0.745-0.603c0.239-0.08,0.474-0.097,0.67-0.057
			c-0.032-0.094-0.047-0.193-0.047-0.298c0-0.533,0.431-0.965,0.965-0.965c0.049,0,0.098,0.004,0.145,0.011
			c-0.372,0.051-0.658,0.369-0.658,0.754c0,0.257,0.126,0.483,0.319,0.62c0,0.015-0.001,0.029-0.001,0.042
			c0,0.209,0.096,0.397,0.246,0.52c0.068-0.351,0.374-0.615,0.745-0.615c0.316,0,0.577-0.04,0.772-0.103
			c0.33-0.108,0.571-0.413,0.571-0.778c0-0.253-0.115-0.48-0.297-0.628c0.09-0.41,0.074-1.083-0.065-1.644
			c0.028-0.004,0.057-0.006,0.087-0.006C44.969,64.259,45.172,64.377,45.29,64.557 M57.259,11.339h-1.134V79.37h1.134V11.339z"/>
	</g>
</g>
</svg>
