<?xml version="1.0" encoding="UTF-8" standalone="no"?>
<!-- Created with Inkscape (http://www.inkscape.org/) -->

<svg
   xmlns:osb="http://www.openswatchbook.org/uri/2009/osb"
   xmlns:dc="http://purl.org/dc/elements/1.1/"
   xmlns:cc="http://creativecommons.org/ns#"
   xmlns:rdf="http://www.w3.org/1999/02/22-rdf-syntax-ns#"
   xmlns:svg="http://www.w3.org/2000/svg"
   xmlns="http://www.w3.org/2000/svg"
   xmlns:sodipodi="http://sodipodi.sourceforge.net/DTD/sodipodi-0.dtd"
   xmlns:inkscape="http://www.inkscape.org/namespaces/inkscape"
   width="200"
   height="200"
   viewBox="0 0 52.916666 52.916666"
   version="1.1"
   id="svg7220"
   inkscape:version="0.92.4 (5da689c313, 2019-01-14)"
   sodipodi:docname="auto_icon_1.svg">
  <defs
     id="defs7214">
    <linearGradient
       id="linearGradient7971"
       osb:paint="solid">
      <stop
         style="stop-color:#000000;stop-opacity:1;"
         offset="0"
         id="stop7969" />
    </linearGradient>
    <linearGradient
       id="linearGradient7959"
       osb:paint="solid">
      <stop
         style="stop-color:#000000;stop-opacity:1;"
         offset="0"
         id="stop7957" />
    </linearGradient>
    <linearGradient
       id="linearGradient7935"
       osb:paint="solid">
      <stop
         style="stop-color:#000000;stop-opacity:1;"
         offset="0"
         id="stop7933" />
    </linearGradient>
  </defs>
  <sodipodi:namedview
     id="base"
     pagecolor="#ffffff"
     bordercolor="#666666"
     borderopacity="1.0"
     inkscape:pageopacity="0.0"
     inkscape:pageshadow="2"
     inkscape:zoom="1.4142136"
     inkscape:cx="-100.27364"
     inkscape:cy="204.17777"
     inkscape:document-units="mm"
     inkscape:current-layer="g7380"
     showgrid="false"
     units="px"
     inkscape:pagecheckerboard="true"
     inkscape:window-width="1920"
     inkscape:window-height="1017"
     inkscape:window-x="-8"
     inkscape:window-y="32"
     inkscape:window-maximized="1" />
  <metadata
     id="metadata7217">
    <rdf:RDF>
      <cc:Work
         rdf:about="">
        <dc:format>image/svg+xml</dc:format>
        <dc:type
           rdf:resource="http://purl.org/dc/dcmitype/StillImage" />
        <dc:title></dc:title>
      </cc:Work>
    </rdf:RDF>
  </metadata>
  <g
     inkscape:label="Layer 1"
     inkscape:groupmode="layer"
     id="layer1"
     transform="translate(0,-244.08334)">
    <g
       id="g7380">
      <g
         id="g7388"
         style="fill-opacity:1;fill-rule:nonzero;fill:#aaaaaa;stroke:#aaaaaa;stroke-opacity:1">
        <path
           style="opacity:1;fill-opacity:1;stroke-width:0.94547367;fill-rule:nonzero;fill:#aaaaaa;stroke:#aaaaaa;stroke-opacity:1"
           d="M 52.882812 77.246094 C 40.337939 77.246094 30.238281 87.345768 30.238281 99.890625 L 30.238281 168.02344 C 30.238281 180.56833 40.337939 190.66797 52.882812 190.66797 L 147.11719 190.66797 C 159.66206 190.66797 169.76172 180.56833 169.76172 168.02344 L 169.76172 99.890625 C 169.76172 87.345768 159.66206 77.246094 147.11719 77.246094 L 52.882812 77.246094 z M 67.914062 106.125 A 15.11811 15.11811 0 0 1 68.244141 106.13281 A 15.11811 15.11811 0 0 1 76.685547 109.0625 A 15.11811 15.11811 0 0 1 81.744141 126.91992 L 54.046875 127.66602 A 15.11811 15.11811 0 0 1 58.132812 109.5625 A 15.11811 15.11811 0 0 1 67.914062 106.125 z M 131.90625 106.13281 A 15.118109 15.118109 0 0 1 141.72852 109.45312 A 15.118109 15.118109 0 0 1 146.0293 127.50781 L 118.32422 127.08789 A 15.118109 15.118109 0 0 1 123.16992 109.17188 A 15.118109 15.118109 0 0 1 131.90625 106.13281 z M 77.037109 155.77734 L 100 156.33594 L 122.97461 156.00977 A 22.980971 14.318913 0 0 1 111.53516 168.7207 A 22.980971 14.318913 0 0 1 88.144531 168.60352 A 22.980971 14.318913 0 0 1 77.037109 155.77734 z "
           transform="matrix(0.26458333,0,0,0.26458333,0,244.08334)"
           id="rect7222" />
        <circle
           style="opacity:1;fill-opacity:1;stroke-width:0.35624364;fill-rule:nonzero;fill:#aaaaaa;stroke:#aaaaaa;stroke-opacity:1"
           id="path7241"
           cx="26.458334"
           cy="250.71503"
           r="4.5" />
        <rect
           style="opacity:1;fill-opacity:1;stroke-width:0.26458332;fill-rule:nonzero;fill:#aaaaaa;stroke:#aaaaaa;stroke-opacity:1"
           id="rect7267"
           width="4.8643055"
           height="13.563929"
           x="24.02618"
           y="252.06384"
           rx="13.2833"
           ry="0" />
        <rect
           style="opacity:1;fill-opacity:1;stroke-width:0.31127724;fill-rule:nonzero;fill:#aaaaaa;stroke:#aaaaaa;stroke-opacity:1"
           id="rect7224-9"
           width="3.6482289"
           height="10.487508"
           x="47.277378"
           y="273.89124"
           ry="1.8241144" />
        <rect
           style="opacity:1;fill-opacity:1;stroke-width:0.31127724;fill-rule:nonzero;fill:#aaaaaa;stroke:#aaaaaa;stroke-opacity:1"
           id="rect7224-9-2"
           width="3.6482289"
           height="10.487508"
           x="1.9910601"
           y="273.36774"
           ry="1.8241144" />
        <path
           style="opacity:1;fill-opacity:1;stroke-width:0.25;fill-rule:nonzero;fill:#aaaaaa;stroke:#aaaaaa;stroke-opacity:1"
           d="m 50.100368,190.39661 c -4.814708,-0.57074 -9.582822,-2.91863 -13.129227,-6.46504 -3.819134,-3.81913 -5.916634,-8.32374 -6.489262,-13.93641 -0.192409,-1.88591 -0.247154,-13.38608 -0.180682,-37.95571 0.08613,-31.83689 0.135659,-35.412991 0.511499,-36.933331 2.003804,-8.105745 7.611408,-14.252002 15.17557,-16.633302 0.89375,-0.281365 1.90625,-0.601673 2.25,-0.711795 0.34375,-0.110123 10.075,-0.261278 21.625,-0.335898 l 21,-0.135675 0.06406,-18.914987 0.06407,-18.914985 -1.314067,-1.027468 c -2.865913,-2.24085 -5.172135,-5.760082 -6.073223,-9.26756 -0.538365,-2.095591 -0.54568,-5.857244 -0.01573,-8.093914 0.932465,-3.935549 4.223925,-8.421208 7.687673,-10.476888 4.87432,-2.8928355 10.994311,-3.1507909 16.087221,-0.6780707 5.90019,2.8646747 9.4452,8.5353577 9.45465,15.1238727 0.008,5.274993 -2.25031,10.036008 -6.25025,13.179438 l -1.58253,1.243662 0.0641,18.91345 0.0641,18.91345 21,0.132793 c 23.72868,0.15005 22.06996,0.01205 26.75,2.22535 7.06244,3.339985 11.79196,10.04861 12.63424,17.921127 0.17716,1.6558 0.23728,14.221061 0.18228,38.095731 l -0.0821,35.625 -0.555,2.07947 c -2.2756,8.52624 -8.19595,14.32911 -17.05445,16.71604 -1.51968,0.40948 -4.81702,0.44054 -50.875,0.47924 -27.087501,0.0228 -50.043305,-0.0527 -51.012899,-0.16759 z m 55.512902,-20.10285 c 9.71823,-1.59241 16.75858,-6.81553 17.30469,-12.83807 l 0.1322,-1.458 -17.34345,0.0209 c -9.538892,0.0115 -19.918894,-0.0719 -23.066667,-0.18524 l -5.72322,-0.20611 0.13301,1.65704 c 0.487875,6.0779 7.474973,11.36708 17.188433,13.0115 2.630545,0.44533 8.651434,0.44427 11.375004,-0.002 z M 68.863266,127.40552 c 6.325,-0.14722 11.851487,-0.32038 12.28108,-0.3848 0.71464,-0.10718 0.816947,-0.24497 1.202732,-1.61989 1.499955,-5.3458 0.07393,-10.80301 -3.854282,-14.7498 -3.127265,-3.14206 -6.432278,-4.53023 -10.75453,-4.51709 -2.794128,0.008 -4.573053,0.43337 -7.06236,1.68678 -2.056958,1.03572 -4.910868,3.7075 -6.047599,5.66167 -2.289881,3.93655 -2.713599,9.2804 -1.051303,13.25883 l 0.385748,0.92323 1.700256,0.004 c 0.935143,0.002 6.875258,-0.11608 13.200258,-0.26329 z m 77.870364,-1.53122 c 1.18631,-3.75887 0.86482,-7.83666 -0.90352,-11.45985 -0.69199,-1.41784 -1.40905,-2.36264 -2.94097,-3.875 -3.15062,-3.11038 -6.24299,-4.38623 -10.65087,-4.39431 -4.25867,-0.008 -7.58913,1.36688 -10.64236,4.39277 -3.01807,2.99106 -4.42254,6.30537 -4.45012,10.50154 -0.0155,2.35549 0.52896,5.41148 1.05842,5.94095 0.10748,0.10747 5.41849,0.28732 11.80224,0.39966 6.38375,0.11233 12.63178,0.22228 13.88451,0.24432 l 2.27769,0.0401 z"
           id="path7372"
           inkscape:connector-curvature="0"
           transform="matrix(0.26458333,0,0,0.26458333,0,244.08334)" />
      </g>
      <path
         style="opacity:1;fill:#bbbbff;fill-opacity:0;stroke-width:0.5"
         d="m 45.678964,189.22581 c -5.79789,-1.83702 -11.242275,-7.09558 -13.931766,-13.45628 -0.902485,-2.13439 -0.959193,-4.21535 -1.103655,-40.5 -0.170625,-42.855633 -0.245436,-41.805778 3.376924,-47.389428 3.656954,-5.63698 9.409422,-9.305695 15.904271,-10.14317 1.8541,-0.239075 11.864842,-0.442045 22.246092,-0.45104 l 18.875,-0.01636 V 58.303577 39.337626 l -1.56097,-1.111509 c -0.858535,-0.611329 -2.40685,-2.420246 -3.4407,-4.019815 -3.21925,-4.980806 -3.654245,-10.505732 -1.2754,-16.199103 1.12341,-2.688703 5.47943,-6.9802 8.426175,-8.3013691 3.60987,-1.618481 10.044545,-1.6623576 13.459515,-0.091777 3.51991,1.6188481 7.03682,5.1697131 8.6247,8.7079861 1.21324,2.703442 1.34356,3.512198 1.18718,7.367156 -0.2159,5.321952 -1.37968,7.96261 -5.15947,11.706976 l -2.64818,2.623361 0.26326,18.625 0.26326,18.625 18.80532,0.0099 c 10.34292,0.0054 20.38031,0.23288 22.30531,0.5054 9.29604,1.31605 16.97149,8.591655 18.73039,17.754655 0.40648,2.11759 0.52828,13.760493 0.42083,40.230043 l -0.15122,37.25 -1.1562,2.86238 c -2.603,6.44418 -7.57456,11.19145 -13.98001,13.34928 -3.04273,1.02503 -3.73785,1.03798 -54.223015,1.01025 -49.498694,-0.0272 -51.240855,-0.0598 -54.257641,-1.01563 z m 61.573086,-19.20584 c 4.41156,-0.93458 9.10592,-3.1316 11.70126,-5.47633 2.22164,-2.00712 4.09252,-5.36691 4.09252,-7.34949 v -1.25966 l -23,-0.0335 -23,-0.0334 v 1.47088 c 0,5.08053 7.046675,10.81212 15.56543,12.66055 4.220285,0.91573 10.3755,0.92453 14.64079,0.0209 z M 81.90032,126.4048 c 0.332465,-0.42366 0.753315,-1.76277 0.93522,-2.9758 0.98461,-6.56585 -2.949035,-13.51244 -9.228508,-16.29702 -3.523541,-1.56249 -8.652417,-1.42443 -12.237109,0.3294 -3.519632,1.722 -6.982659,5.52215 -8.101251,8.88992 -0.949347,2.85821 -0.816955,8.37386 0.248795,10.36524 l 0.620333,1.1591 13.579015,-0.35028 c 11.345891,-0.29267 13.678425,-0.47695 14.183505,-1.12056 z m 64.73252,-0.0103 c 0.30924,-0.75625 0.66158,-2.725 0.78298,-4.375 0.43285,-5.88314 -3.10815,-11.82521 -8.66786,-14.54532 -3.83378,-1.8757 -9.08287,-1.86963 -12.93481,0.0149 -6.65442,3.25571 -10.18286,10.91337 -8.2445,17.89278 l 0.51723,1.86241 7.85498,0.15124 c 4.32023,0.0832 10.61679,0.20135 13.99235,0.26259 l 6.13737,0.11135 z"
         id="path7947"
         inkscape:connector-curvature="0"
         transform="matrix(0.26458333,0,0,0.26458333,0,244.08334)" />
    </g>
  </g>
</svg>
