<?xml version="1.0" encoding="UTF-8" standalone="no"?>
<!-- Created with Inkscape (http://www.inkscape.org/) -->

<svg
   xmlns:dc="http://purl.org/dc/elements/1.1/"
   xmlns:cc="http://creativecommons.org/ns#"
   xmlns:rdf="http://www.w3.org/1999/02/22-rdf-syntax-ns#"
   xmlns:svg="http://www.w3.org/2000/svg"
   xmlns="http://www.w3.org/2000/svg"
   xmlns:sodipodi="http://sodipodi.sourceforge.net/DTD/sodipodi-0.dtd"
   xmlns:inkscape="http://www.inkscape.org/namespaces/inkscape"
   width="136.66728"
   height="160.33591"
   viewBox="0 0 36.159885 42.422208"
   version="1.1"
   id="svg7220"
   sodipodi:docname="auto_icon_1_v2.svg"
   inkscape:version="0.92.4 (5da689c313, 2019-01-14)">
  <defs
     id="defs7214" />
  <sodipodi:namedview
     id="base"
     pagecolor="#ffffff"
     bordercolor="#666666"
     borderopacity="1.0"
     inkscape:pageopacity="0.0"
     inkscape:pageshadow="2"
     inkscape:zoom="4"
     inkscape:cx="3.2243092"
     inkscape:cy="76.384105"
     inkscape:document-units="mm"
     inkscape:current-layer="layer1"
     showgrid="false"
     units="px"
     inkscape:pagecheckerboard="true"
     inkscape:window-width="1920"
     inkscape:window-height="1017"
     inkscape:window-x="-8"
     inkscape:window-y="32"
     inkscape:window-maximized="1"
     fit-margin-top="0"
     fit-margin-left="0"
     fit-margin-right="0"
     fit-margin-bottom="0" />
  <metadata
     id="metadata7217">
    <rdf:RDF>
      <cc:Work
         rdf:about="">
        <dc:format>image/svg+xml</dc:format>
        <dc:type
           rdf:resource="http://purl.org/dc/dcmitype/StillImage" />
        <dc:title></dc:title>
      </cc:Work>
    </rdf:RDF>
  </metadata>
  <g
     inkscape:label="Layer 1"
     inkscape:groupmode="layer"
     id="layer1"
     transform="translate(-8.3783911,-249.77955)">
    <path
       style="opacity:1;fill:#bbbbbb;fill-opacity:1;stroke:#bbbbbb;stroke-width:0.89384073;stroke-opacity:1"
       d="m 54.148438,77.246094 c -12.207704,0 -22.035157,9.275061 -22.035157,20.796875 v 62.578121 c 0,11.52189 9.827453,20.79688 22.035157,20.79688 h 91.703122 c 12.20771,0 22.03516,-9.27499 22.03516,-20.79688 V 98.042969 c 0,-11.521814 -9.82745,-20.796875 -22.03516,-20.796875 z m 13.777343,24.144526 a 18.897638,18.897638 0 0 1 0.525391,0.008 18.897638,18.897638 0 0 1 7.314453,1.69726 18.897638,18.897638 0 0 1 9.671875,24.28907 l -1.474609,2.89453 a 18.897638,18.897638 0 0 1 -25.332032,6.46484 18.897638,18.897638 0 0 1 -7.548828,-25.03125 18.897638,18.897638 0 0 1 16.84375,-10.32227 z m 64.742189,0.0137 a 18.897638,18.897638 22.266451 0 1 7.30859,1.7207 18.897638,18.897638 22.266451 0 1 9.30274,24.99414 l -0.13477,0.28711 a 18.897638,18.897638 22.266451 0 1 -25.10937,8.98633 18.897638,18.897638 22.266451 0 1 -9.0918,-25.07031 18.897638,18.897638 22.266451 0 1 17.72461,-10.91797 z"
       transform="matrix(0.26458333,0,0,0.26458333,0,244.08334)"
       id="rect7222"
       inkscape:connector-curvature="0" />
    <circle
       style="opacity:1;fill:#bbbbbb;fill-opacity:1;stroke:#bbbbbb;stroke-width:0.39582625;stroke-opacity:1"
       id="path7241"
       cx="26.458334"
       cy="254.97746"
       r="5" />
    <rect
       style="opacity:1;fill:#bbbbbb;fill-opacity:1;stroke:#bbbbbb;stroke-width:0.1911774;stroke-opacity:1"
       id="rect7267"
       width="4.8643055"
       height="7.0816369"
       x="24.02618"
       y="258.54614"
       rx="13.2833"
       ry="0" />
  </g>
</svg>
