<?xml version="1.0" encoding="UTF-8" standalone="no"?>
<svg
   xmlns:dc="http://purl.org/dc/elements/1.1/"
   xmlns:cc="http://creativecommons.org/ns#"
   xmlns:rdf="http://www.w3.org/1999/02/22-rdf-syntax-ns#"
   xmlns:svg="http://www.w3.org/2000/svg"
   xmlns="http://www.w3.org/2000/svg"
   xmlns:sodipodi="http://sodipodi.sourceforge.net/DTD/sodipodi-0.dtd"
   xmlns:inkscape="http://www.inkscape.org/namespaces/inkscape"
   id="Landing_Page_-_Device_1_1_"
   viewBox="0 0 1920 904"
   version="1.1"
   sodipodi:docname="taust.svg"
   inkscape:version="0.92.4 (5da689c313, 2019-01-14)">
  <metadata
     id="metadata4147">
    <rdf:RDF>
      <cc:Work
         rdf:about="">
        <dc:format>image/svg+xml</dc:format>
        <dc:type
           rdf:resource="http://purl.org/dc/dcmitype/StillImage" />
      </cc:Work>
    </rdf:RDF>
  </metadata>
  <sodipodi:namedview
     pagecolor="#ffffff"
     bordercolor="#666666"
     borderopacity="1"
     objecttolerance="10"
     gridtolerance="10"
     guidetolerance="10"
     inkscape:pageopacity="0"
     inkscape:pageshadow="2"
     inkscape:window-width="1920"
     inkscape:window-height="1017"
     id="namedview4145"
     showgrid="false"
     inkscape:zoom="0.70710678"
     inkscape:cx="971.85893"
     inkscape:cy="528.14642"
     inkscape:window-x="-8"
     inkscape:window-y="32"
     inkscape:window-maximized="1"
     inkscape:current-layer="Landing_Page_-_Device_1_1_" />
  <defs
     id="defs3933">
    <style
       id="style3931">
      .cls-1 {
        fill: #f2f2f2;
      }

      .cls-2 {
        opacity: 0.06;
      }

      .cls-3 {
        fill: #d0d0d0;
      }

      .cls-4 {
        fill: #e3e3e3;
      }

      .cls-5 {
        fill: #d1d1d1;
      }

      .cls-6 {
        fill: #d3d3d3;
      }

      .cls-7 {
        fill: #d9d9d9;
      }

      .cls-8 {
        fill: #cecece;
      }

      .cls-9 {
        fill: #eaeaea;
      }

      .cls-10 {
        fill: #f4f4f4;
      }

      .cls-11 {
        fill: #d7d7d7;
      }

      .cls-12 {
        fill: #f1f1f1;
      }

      .cls-13 {
        fill: #f0f0f0;
      }

      .cls-14 {
        fill: #ededed;
      }

      .cls-15 {
        fill: #e4e4e4;
      }

      .cls-16 {
        fill: #d5d5d5;
      }

      .cls-17 {
        fill: #cfcfcf;
      }

      .cls-18 {
        fill: #dfdfdf;
      }

      .cls-19 {
        fill: #ececec;
      }

      .cls-20 {
        fill: #ebebeb;
      }

      .cls-21 {
        fill: #989898;
      }

      .cls-22 {
        fill: #e6e6e6;
      }

      .cls-23 {
        fill: #c7c7c7;
      }

      .cls-24 {
        fill: #d8d8d8;
      }

      .cls-25 {
        fill: #eee;
      }

      .cls-26 {
        fill: #e7e7e7;
      }

      .cls-27 {
        fill: #e5e5e5;
      }

      .cls-28 {
        fill: #c6c6c6;
      }

      .cls-29 {
        fill: none;
        stroke: #f2f2f2;
        stroke-miterlimit: 10;
      }

      .cls-30 {
        fill: #b5b5b5;
      }

      .cls-31 {
        fill: #4dab54;
      }

      .cls-32 {
        fill: #d2d2d2;
      }

      .cls-33 {
        fill: #8c8c8c;
      }

      .cls-34 {
        fill: #686868;
      }

      .cls-35 {
        fill: #e9e9e9;
      }

      .cls-36 {
        fill: #acacac;
      }

      .cls-37 {
        fill: #bababa;
      }

      .cls-38 {
        fill: #a4a4a4;
      }

      .cls-39 {
        fill: #e8e8e8;
      }

      .cls-40 {
        fill: #9d9d9d;
      }

      .cls-41 {
        fill: #a8a8a8;
      }

      .cls-42 {
        fill: #707070;
      }

      .cls-43 {
        fill: #a9a9a9;
      }

      .cls-44 {
        fill: #8e8e8e;
      }

      .cls-45 {
        fill: #959595;
      }

      .cls-46 {
        fill: #6b6b6b;
      }

      .cls-47 {
        fill: #e1e1e1;
      }

      .cls-48 {
        fill: #ababab;
      }

      .cls-49 {
        fill: #a3a3a3;
      }

      .cls-50 {
        fill: #b6b6b6;
      }

      .cls-51 {
        fill: #aeaeae;
      }

      .cls-52 {
        fill: #9c9c9c;
      }

      .cls-53 {
        fill: #bbb;
      }

      .cls-54 {
        fill: #b7b7b7;
      }

      .cls-55 {
        fill: #7c7c7c;
      }

      .cls-56 {
        fill: #bfbfbf;
      }

      .cls-57 {
        fill: #797979;
      }

      .cls-58 {
        fill: #bdbdbd;
      }

      .cls-59 {
        fill: #656565;
      }

      .cls-60 {
        fill: #9e9e9e;
      }

      .cls-61 {
        fill: #6a6a6a;
      }

      .cls-62 {
        fill: #939393;
      }

      .cls-63 {
        fill: #d4d4d4;
      }

      .cls-64 {
        fill: #dcdcdc;
      }

      .cls-65 {
        fill: #c1c1c1;
      }

      .cls-66 {
        fill: #b2b2b2;
      }

      .cls-67 {
        fill: #818181;
      }

      .cls-68 {
        fill: #dbdbdb;
      }

      .cls-69 {
        fill: #e2e2e2;
      }

      .cls-70 {
        fill: #8f8f8f;
      }

      .cls-71 {
        fill: #b9b9b9;
      }

      .cls-72 {
        fill: #b8b8b8;
      }

      .cls-73 {
        fill: #afafaf;
      }

      .cls-74 {
        fill: #dadada;
      }

      .cls-75 {
        fill: #c2c2c2;
      }

      .cls-76 {
        fill: #7f7f7f;
      }

      .cls-77 {
        fill: #cdcdcd;
      }

      .cls-78 {
        fill: #6d6d6d;
      }

      .cls-79 {
        fill: #8b8b8b;
      }

      .cls-80 {
        fill: #8a8a8a;
      }

      .cls-81 {
        fill: #b1b1b1;
      }

      .cls-82 {
        fill: #b4b4b4;
      }

      .cls-83 {
        fill: #9a9a9a;
      }
    </style>
  </defs>
  <g
     id="Group_31"
     data-name="Group 31"
     style="fill:#f2f2f2">
    <rect
       id="Rectangle_1492"
       data-name="Rectangle 1492"
       class="cls-1"
       width="1920"
       height="904"
       style="fill:#f2f2f2" />
  </g>
  <path
     style="fill:#f2f2f2"
     inkscape:connector-curvature="0"
     d="M 1665.88,0 1750.59,81.82 1835.29,0 Z"
     class="cls-3"
     data-name="Path 1470"
     id="Path_1470" />
  <path
     style="fill:#f2f2f2"
     inkscape:connector-curvature="0"
     d="M 1920,81.82 1835.29,0 l -84.7,81.82 z"
     class="cls-4"
     data-name="Path 1471"
     id="Path_1471" />
  <path
     style="fill:#f2f2f2"
     inkscape:connector-curvature="0"
     d="M 1750.59,81.82 1665.88,0 l -84.7,81.82 z"
     class="cls-5"
     data-name="Path 1472"
     id="Path_1472" />
  <path
     style="fill:#f2f2f2"
     inkscape:connector-curvature="0"
     d="m 1400.469,0 84.71,81.82 84.7,-81.82 z"
     class="cls-6"
     data-name="Path 1473"
     id="Path_1473" />
  <path
     style="fill:#f2f2f2"
     inkscape:connector-curvature="0"
     d="M 1835.29,0 1920,81.82 V 0 Z"
     class="cls-7"
     data-name="Path 1474"
     id="Path_1474" />
  <path
     style="fill:#f2f2f2"
     inkscape:connector-curvature="0"
     d="M 1453.181,81.82 1368.471,0 l -84.71,81.82 z"
     class="cls-8"
     data-name="Path 1475"
     id="Path_1475" />
  <path
     style="fill:#f2f2f2"
     inkscape:connector-curvature="0"
     d="M 1219.759,81.82 1135.059,0 1050.349,81.82 Z"
     class="cls-9"
     data-name="Path 1476"
     id="Path_1476" />
  <path
     style="fill:#f2f2f2"
     inkscape:connector-curvature="0"
     d="m 933.651,0 84.7,81.82 84.71,-81.82 z"
     class="cls-10"
     data-name="Path 1477"
     id="Path_1477" />
  <path
     style="fill:#f2f2f2"
     inkscape:connector-curvature="0"
     d="m 1167.06,0 84.7,81.82 L 1336.47,0 Z"
     class="cls-11"
     data-name="Path 1478"
     id="Path_1478" />
  <path
     style="fill:#f2f2f2"
     inkscape:connector-curvature="0"
     d="M 986.349,81.82 901.649,0 816.939,81.82 Z"
     class="cls-10"
     data-name="Path 1479"
     id="Path_1479" />
  <path
     style="fill:#f2f2f2"
     inkscape:connector-curvature="0"
     d="M 752.94,81.82 668.24,0 583.53,81.82 Z"
     class="cls-12"
     data-name="Path 1480"
     id="Path_1480" />
  <path
     style="fill:#f2f2f2"
     inkscape:connector-curvature="0"
     d="M 466.819,0 551.529,81.82 636.239,0 Z"
     class="cls-13"
     data-name="Path 1481"
     id="Path_1481" />
  <path
     style="fill:#f2f2f2"
     inkscape:connector-curvature="0"
     d="m 700.242,0 84.7,81.82 L 869.652,0 Z"
     class="cls-14"
     data-name="Path 1482"
     id="Path_1482" />
  <path
     style="fill:#f2f2f2"
     inkscape:connector-curvature="0"
     d="M 519.531,81.82 434.821,0 l -84.7,81.82 z"
     class="cls-15"
     data-name="Path 1483"
     id="Path_1483" />
  <path
     style="fill:#f2f2f2"
     inkscape:connector-curvature="0"
     d="M 254.12,81.82 169.41,0 84.71,81.82 Z"
     class="cls-16"
     data-name="Path 1484"
     id="Path_1484" />
  <path
     style="fill:#f2f2f2"
     inkscape:connector-curvature="0"
     d="M 84.71,81.82 0,0 v 81.82 z"
     class="cls-7"
     data-name="Path 1485"
     id="Path_1485" />
  <path
     style="fill:#f2f2f2"
     inkscape:connector-curvature="0"
     d="M 0,0 84.71,81.82 169.41,0 Z"
     class="cls-17"
     data-name="Path 1486"
     id="Path_1486" />
  <path
     style="fill:#f2f2f2"
     inkscape:connector-curvature="0"
     d="M 169.41,0 254.12,81.82 338.82,0 Z"
     class="cls-18"
     data-name="Path 1487"
     id="Path_1487" />
  <path
     style="fill:#f2f2f2"
     inkscape:connector-curvature="0"
     d="m 1835.29,163.64 -84.7,-81.82 -84.71,81.82 z"
     class="cls-19"
     data-name="Path 1488"
     id="Path_1488" />
  <path
     style="fill:#f2f2f2"
     inkscape:connector-curvature="0"
     d="m 1569.879,163.64 -84.7,-81.82 -84.71,81.82 z"
     class="cls-20"
     data-name="Path 1489"
     id="Path_1489" />
  <path
     style="fill:#f2f2f2"
     inkscape:connector-curvature="0"
     d="m 1283.761,81.82 84.71,81.82 84.71,-81.82 z"
     class="cls-15"
     data-name="Path 1490"
     id="Path_1490" />
  <path
     style="fill:#f2f2f2"
     inkscape:connector-curvature="0"
     d="m 1581.18,81.82 84.7,81.82 84.71,-81.82 z"
     class="cls-21"
     data-name="Path 1491"
     id="Path_1491" />
  <path
     style="fill:#f2f2f2"
     inkscape:connector-curvature="0"
     d="M 1920,163.64 V 81.82 l -84.71,81.82 z"
     class="cls-11"
     data-name="Path 1492"
     id="Path_1492" />
  <path
     style="fill:#f2f2f2"
     inkscape:connector-curvature="0"
     d="m 1750.59,81.82 84.7,81.82 84.71,-81.82 z"
     class="cls-22"
     data-name="Path 1493"
     id="Path_1493" />
  <path
     style="fill:#f2f2f2"
     inkscape:connector-curvature="0"
     d="m 1336.47,163.64 -84.71,-81.82 -84.7,81.82 z"
     class="cls-20"
     data-name="Path 1494"
     id="Path_1494" />
  <path
     style="fill:#f2f2f2"
     inkscape:connector-curvature="0"
     d="m 1103.061,163.64 -84.71,-81.82 -84.7,81.82 z"
     class="cls-23"
     data-name="Path 1495"
     id="Path_1495" />
  <path
     style="fill:#f2f2f2"
     inkscape:connector-curvature="0"
     d="m 816.939,81.82 84.71,81.82 84.7,-81.82 z"
     class="cls-23"
     data-name="Path 1496"
     id="Path_1496" />
  <path
     style="fill:#f2f2f2"
     inkscape:connector-curvature="0"
     d="m 1050.349,81.82 84.71,81.82 84.7,-81.82 z"
     class="cls-24"
     data-name="Path 1497"
     id="Path_1497" />
  <path
     style="fill:#ececec;opacity:0.412"
     inkscape:connector-curvature="0"
     d="m 869.652,163.64 -84.71,-81.82 -84.7,81.82 z"
     class="cls-10"
     data-name="Path 1498"
     id="Path_1498" />
  <path
     style="fill:#f2f2f2"
     inkscape:connector-curvature="0"
     d="m 636.239,163.64 -84.71,-81.82 -84.71,81.82 z"
     class="cls-11"
     data-name="Path 1499"
     id="Path_1499" />
  <path
     style="fill:#f2f2f2"
     inkscape:connector-curvature="0"
     d="m 350.121,81.82 84.7,81.82 84.71,-81.82 z"
     class="cls-16"
     data-name="Path 1500"
     id="Path_1500" />
  <path
     style="fill:#f2f2f2"
     inkscape:connector-curvature="0"
     d="m 583.53,81.82 84.71,81.82 84.7,-81.82 z"
     class="cls-25"
     data-name="Path 1501"
     id="Path_1501" />
  <path
     style="fill:#f2f2f2"
     inkscape:connector-curvature="0"
     d="m 338.82,163.64 -84.7,-81.82 -84.71,81.82 z"
     class="cls-23"
     data-name="Path 1502"
     id="Path_1502" />
  <path
     style="fill:#f2f2f2"
     inkscape:connector-curvature="0"
     d="M 169.41,163.64 84.71,81.82 0,163.64 Z"
     class="cls-26"
     data-name="Path 1503"
     id="Path_1503" />
  <path
     style="fill:#f2f2f2"
     inkscape:connector-curvature="0"
     d="m 0,81.82 v 81.82 L 84.71,81.82 Z"
     class="cls-27"
     data-name="Path 1504"
     id="Path_1504" />
  <path
     style="fill:#f2f2f2"
     inkscape:connector-curvature="0"
     d="m 84.71,81.82 84.7,81.82 84.71,-81.82 z"
     class="cls-28"
     data-name="Path 1505"
     id="Path_1505" />
  <path
     style="fill:#ececec;stroke:#f2f2f2;stroke-miterlimit:10"
     inkscape:connector-curvature="0"
     d="m 1750.59,246.25 -84.71,-81.81 -84.7,81.81 z"
     class="cls-29"
     data-name="Path 1506"
     id="Path_1506" />
  <path
     style="fill:#f2f2f2"
     inkscape:connector-curvature="0"
     d="m 1453.181,246.25 -84.71,-81.81 -84.71,81.81 z"
     class="cls-12"
     data-name="Path 1507"
     id="Path_1507" />
  <path
     style="fill:#f2f2f2"
     inkscape:connector-curvature="0"
     d="m 1167.06,164.44 84.7,81.81 84.71,-81.81 z"
     class="cls-19"
     data-name="Path 1508"
     id="Path_1508" />
  <path
     style="fill:#ececec;stroke:#f2f2f2;stroke-miterlimit:10"
     inkscape:connector-curvature="0"
     d="m 1400.469,164.44 84.71,81.81 84.7,-81.81 z"
     class="cls-29"
     data-name="Path 1509"
     id="Path_1509" />
  <path
     style="fill:#f2f2f2"
     inkscape:connector-curvature="0"
     d="m 1750.59,246.25 -84.71,-81.81 -84.7,81.81 z"
     class="cls-20"
     data-name="Path 1510"
     id="Path_1510" />
  <path
     style="fill:#f2f2f2"
     inkscape:connector-curvature="0"
     d="m 1400.469,164.44 84.71,81.81 84.7,-81.81 z"
     class="cls-23"
     data-name="Path 1511"
     id="Path_1511" />
  <path
     style="fill:#f2f2f2"
     inkscape:connector-curvature="0"
     d="m 1920,246.25 -84.71,-81.81 -84.7,81.81 z"
     class="cls-30"
     data-name="Path 1512"
     id="Path_1512" />
  <path
     style="fill:#f2f2f2"
     inkscape:connector-curvature="0"
     d="m 1665.88,164.44 84.71,81.81 84.7,-81.81 z"
     class="cls-31"
     data-name="Path 1513"
     id="Path_1513" />
  <path
     style="fill:#f2f2f2"
     inkscape:connector-curvature="0"
     d="M 1835.29,164.44 1920,246.25 V 164.44 Z"
     class="cls-32"
     data-name="Path 1514"
     id="Path_1514" />
  <path
     style="fill:#f2f2f2"
     inkscape:connector-curvature="0"
     d="m 1219.759,246.25 -84.7,-81.81 -84.71,81.81 z"
     class="cls-14"
     data-name="Path 1515"
     id="Path_1515" />
  <path
     style="fill:#f2f2f2"
     inkscape:connector-curvature="0"
     d="m 986.349,246.25 -84.7,-81.81 -84.71,81.81 z"
     class="cls-33"
     data-name="Path 1516"
     id="Path_1516" />
  <path
     style="fill:#f2f2f2"
     inkscape:connector-curvature="0"
     d="m 700.242,164.44 84.7,81.81 84.71,-81.81 z"
     class="cls-34"
     data-name="Path 1517"
     id="Path_1517" />
  <path
     style="fill:#f2f2f2"
     inkscape:connector-curvature="0"
     d="m 933.651,164.44 84.7,81.81 84.71,-81.81 z"
     class="cls-35"
     data-name="Path 1518"
     id="Path_1518" />
  <path
     style="fill:#f2f2f2"
     inkscape:connector-curvature="0"
     d="m 752.94,246.25 -84.7,-81.81 -84.71,81.81 z"
     class="cls-23"
     data-name="Path 1519"
     id="Path_1519" />
  <path
     style="fill:#f2f2f2"
     inkscape:connector-curvature="0"
     d="m 519.531,246.25 -84.71,-81.81 -84.7,81.81 z"
     class="cls-10"
     data-name="Path 1520"
     id="Path_1520" />
  <path
     style="fill:#f2f2f2"
     inkscape:connector-curvature="0"
     d="m 169.41,164.44 84.71,81.81 84.7,-81.81 z"
     class="cls-14"
     data-name="Path 1521"
     id="Path_1521" />
  <path
     style="fill:#f2f2f2"
     inkscape:connector-curvature="0"
     d="m 466.819,164.44 84.71,81.81 84.71,-81.81 z"
     class="cls-14"
     data-name="Path 1522"
     id="Path_1522" />
  <path
     style="fill:#f2f2f2"
     inkscape:connector-curvature="0"
     d="m 254.12,246.25 -84.71,-81.81 -84.7,81.81 z"
     class="cls-36"
     data-name="Path 1523"
     id="Path_1523" />
  <path
     style="fill:#f2f2f2"
     inkscape:connector-curvature="0"
     d="M 84.71,246.25 0,164.44 v 81.81 z"
     class="cls-3"
     data-name="Path 1524"
     id="Path_1524" />
  <path
     style="fill:#f2f2f2"
     inkscape:connector-curvature="0"
     d="m 0,164.44 84.71,81.81 84.7,-81.81 z"
     class="cls-14"
     data-name="Path 1525"
     id="Path_1525" />
  <path
     style="fill:#f2f2f2"
     inkscape:connector-curvature="0"
     d="m 1835.29,328.47 -84.7,-81.82 -84.71,81.82 z"
     class="cls-22"
     data-name="Path 1526"
     id="Path_1526" />
  <path
     style="fill:#f2f2f2"
     inkscape:connector-curvature="0"
     d="m 1581.18,246.65 84.7,81.82 84.71,-81.82 z"
     class="cls-12"
     data-name="Path 1527"
     id="Path_1527" />
  <path
     style="fill:#f2f2f2"
     inkscape:connector-curvature="0"
     d="m 1920,328.47 v -81.82 l -84.71,81.82 z"
     class="cls-37"
     data-name="Path 1528"
     id="Path_1528" />
  <path
     style="fill:#f2f2f2"
     inkscape:connector-curvature="0"
     d="m 1750.59,246.65 84.7,81.82 84.71,-81.82 z"
     class="cls-4"
     data-name="Path 1529"
     id="Path_1529" />
  <path
     style="fill:#ececec;opacity:0.355"
     inkscape:connector-curvature="0"
     d="m 1569.879,328.47 -84.7,-81.82 -84.71,81.82 z"
     class="cls-38"
     data-name="Path 1530"
     id="Path_1530" />
  <path
     style="fill:#f2f2f2"
     inkscape:connector-curvature="0"
     d="m 1336.47,328.47 -84.71,-81.82 -84.7,81.82 z"
     class="cls-14"
     data-name="Path 1531"
     id="Path_1531" />
  <path
     style="fill:#f2f2f2"
     inkscape:connector-curvature="0"
     d="m 1050.349,246.65 84.71,81.82 84.7,-81.82 z"
     class="cls-18"
     data-name="Path 1532"
     id="Path_1532" />
  <path
     style="fill:#f2f2f2"
     inkscape:connector-curvature="0"
     d="m 1283.761,246.65 84.71,81.82 84.71,-81.82 z"
     class="cls-12"
     data-name="Path 1533"
     id="Path_1533" />
  <path
     style="fill:#f2f2f2"
     inkscape:connector-curvature="0"
     d="m 1103.061,328.47 -84.71,-81.82 -84.7,81.82 z"
     class="cls-11"
     data-name="Path 1534"
     id="Path_1534" />
  <path
     style="fill:#f2f2f2"
     inkscape:connector-curvature="0"
     d="m 869.652,328.47 -84.71,-81.82 -84.7,81.82 z"
     class="cls-13"
     data-name="Path 1535"
     id="Path_1535" />
  <path
     style="fill:#f2f2f2"
     inkscape:connector-curvature="0"
     d="m 583.53,246.65 84.71,81.82 84.7,-81.82 z"
     class="cls-20"
     data-name="Path 1536"
     id="Path_1536" />
  <path
     style="fill:#f2f2f2"
     inkscape:connector-curvature="0"
     d="m 816.939,246.65 84.71,81.82 84.7,-81.82 z"
     class="cls-27"
     data-name="Path 1537"
     id="Path_1537" />
  <path
     style="fill:#ececec;opacity:0.338"
     inkscape:connector-curvature="0"
     d="m 636.239,328.47 -84.71,-81.82 -84.71,81.82 z"
     class="cls-39"
     data-name="Path 1538"
     id="Path_1538" />
  <path
     style="fill:#f2f2f2"
     inkscape:connector-curvature="0"
     d="m 338.82,328.47 -84.7,-81.82 -84.71,81.82 z"
     class="cls-36"
     data-name="Path 1539"
     id="Path_1539" />
  <path
     style="fill:#f2f2f2"
     inkscape:connector-curvature="0"
     d="m 84.71,246.65 84.7,81.82 84.71,-81.82 z"
     class="cls-14"
     data-name="Path 1540"
     id="Path_1540" />
  <path
     style="fill:#f2f2f2"
     inkscape:connector-curvature="0"
     d="m 350.121,246.65 84.7,81.82 84.71,-81.82 z"
     class="cls-22"
     data-name="Path 1541"
     id="Path_1541" />
  <path
     style="fill:#ececec;opacity:0.605"
     inkscape:connector-curvature="0"
     d="M 169.41,328.47 84.71,246.65 0,328.47 Z"
     class="cls-40"
     data-name="Path 1542"
     id="Path_1542" />
  <path
     style="fill:#f2f2f2"
     inkscape:connector-curvature="0"
     d="m 0,246.65 v 81.82 l 84.71,-81.82 z"
     class="cls-41"
     data-name="Path 1543"
     id="Path_1543" />
  <path
     style="fill:#f2f2f2"
     inkscape:connector-curvature="0"
     d="m 1400.469,328.87 84.71,81.82 84.7,-81.82 z"
     class="cls-42"
     data-name="Path 1544"
     id="Path_1544" />
  <path
     style="fill:#f2f2f2"
     inkscape:connector-curvature="0"
     d="m 1750.59,410.69 -84.71,-81.82 -84.7,81.82 z"
     class="cls-43"
     data-name="Path 1545"
     id="Path_1545" />
  <path
     style="fill:#f2f2f2"
     inkscape:connector-curvature="0"
     d="m 1920,410.69 -84.71,-81.82 -84.7,81.82 z"
     class="cls-4"
     data-name="Path 1546"
     id="Path_1546" />
  <path
     style="fill:#f2f2f2"
     inkscape:connector-curvature="0"
     d="m 1665.88,328.87 84.71,81.82 84.7,-81.82 z"
     class="cls-44"
     data-name="Path 1547"
     id="Path_1547" />
  <path
     style="fill:#f2f2f2"
     inkscape:connector-curvature="0"
     d="M 1835.29,328.87 1920,410.69 V 328.87 Z"
     class="cls-45"
     data-name="Path 1548"
     id="Path_1548" />
  <path
     style="fill:#f2f2f2"
     inkscape:connector-curvature="0"
     d="m 1453.181,410.69 -84.71,-81.82 -84.71,81.82 z"
     class="cls-46"
     data-name="Path 1549"
     id="Path_1549" />
  <path
     style="fill:#f2f2f2"
     inkscape:connector-curvature="0"
     d="m 1219.759,410.69 -84.7,-81.82 -84.71,81.82 z"
     class="cls-15"
     data-name="Path 1550"
     id="Path_1550" />
  <path
     style="fill:#f2f2f2"
     inkscape:connector-curvature="0"
     d="m 933.651,328.87 84.7,81.82 84.71,-81.82 z"
     class="cls-6"
     data-name="Path 1551"
     id="Path_1551" />
  <path
     style="fill:#ececec;opacity:0.581"
     inkscape:connector-curvature="0"
     d="m 1167.06,328.87 84.7,81.82 84.71,-81.82 z"
     class="cls-18"
     data-name="Path 1552"
     id="Path_1552" />
  <path
     style="fill:#f2f2f2"
     inkscape:connector-curvature="0"
     d="m 986.349,410.69 -84.7,-81.82 -84.71,81.82 z"
     class="cls-47"
     data-name="Path 1553"
     id="Path_1553" />
  <path
     style="fill:#f2f2f2"
     inkscape:connector-curvature="0"
     d="m 752.94,410.69 -84.7,-81.82 -84.71,81.82 z"
     class="cls-3"
     data-name="Path 1554"
     id="Path_1554" />
  <path
     style="fill:#f2f2f2"
     inkscape:connector-curvature="0"
     d="m 466.819,328.87 84.71,81.82 84.71,-81.82 z"
     class="cls-41"
     data-name="Path 1555"
     id="Path_1555" />
  <path
     style="fill:#ececec;opacity:0.426"
     inkscape:connector-curvature="0"
     d="m 700.242,328.87 84.7,81.82 84.71,-81.82 z"
     class="cls-15"
     data-name="Path 1556"
     id="Path_1556" />
  <path
     style="fill:#f2f2f2"
     inkscape:connector-curvature="0"
     d="m 519.531,410.69 -84.71,-81.82 -84.7,81.82 z"
     class="cls-40"
     data-name="Path 1557"
     id="Path_1557" />
  <path
     style="fill:#f2f2f2"
     inkscape:connector-curvature="0"
     d="m 254.12,410.69 -84.71,-81.82 -84.7,81.82 z"
     class="cls-48"
     data-name="Path 1558"
     id="Path_1558" />
  <path
     style="fill:#f2f2f2"
     inkscape:connector-curvature="0"
     d="m 0,328.87 84.71,81.82 84.7,-81.82 z"
     class="cls-49"
     data-name="Path 1559"
     id="Path_1559" />
  <path
     style="fill:#f2f2f2"
     inkscape:connector-curvature="0"
     d="m 169.41,328.87 84.71,81.82 84.7,-81.82 z"
     class="cls-50"
     data-name="Path 1560"
     id="Path_1560" />
  <path
     style="fill:#f2f2f2"
     inkscape:connector-curvature="0"
     d="M 84.71,410.69 0,328.87 v 81.82 z"
     class="cls-51"
     data-name="Path 1561"
     id="Path_1561" />
  <path
     style="fill:#f2f2f2"
     inkscape:connector-curvature="0"
     d="m 1835.29,492.91 -84.7,-81.82 -84.71,81.82 z"
     class="cls-27"
     data-name="Path 1562"
     id="Path_1562" />
  <path
     style="fill:#f2f2f2"
     inkscape:connector-curvature="0"
     d="m 1581.18,411.09 84.7,81.82 84.71,-81.82 z"
     class="cls-6"
     data-name="Path 1563"
     id="Path_1563" />
  <path
     style="fill:#f2f2f2"
     inkscape:connector-curvature="0"
     d="m 1920,492.91 v -81.82 l -84.71,81.82 z"
     class="cls-52"
     data-name="Path 1564"
     id="Path_1564" />
  <path
     style="fill:#f2f2f2"
     inkscape:connector-curvature="0"
     d="m 1750.59,411.09 84.7,81.82 84.71,-81.82 z"
     class="cls-43"
     data-name="Path 1565"
     id="Path_1565" />
  <path
     style="fill:#f2f2f2"
     inkscape:connector-curvature="0"
     d="m 1569.879,492.91 -84.7,-81.82 -84.71,81.82 z"
     class="cls-24"
     data-name="Path 1566"
     id="Path_1566" />
  <path
     style="fill:#f2f2f2"
     inkscape:connector-curvature="0"
     d="m 1283.761,411.09 84.71,81.82 84.71,-81.82 z"
     class="cls-30"
     data-name="Path 1567"
     id="Path_1567" />
  <path
     style="fill:#f2f2f2"
     inkscape:connector-curvature="0"
     d="m 1336.47,492.91 -84.71,-81.82 -84.7,81.82 z"
     class="cls-53"
     data-name="Path 1568"
     id="Path_1568" />
  <path
     style="fill:#f2f2f2"
     inkscape:connector-curvature="0"
     d="m 1103.061,492.91 -84.71,-81.82 -84.7,81.82 z"
     class="cls-34"
     data-name="Path 1569"
     id="Path_1569" />
  <path
     style="fill:#f2f2f2"
     inkscape:connector-curvature="0"
     d="m 816.939,411.09 84.71,81.82 84.7,-81.82 z"
     class="cls-33"
     data-name="Path 1570"
     id="Path_1570" />
  <path
     style="fill:#f2f2f2"
     inkscape:connector-curvature="0"
     d="m 1050.349,411.09 84.71,81.82 84.7,-81.82 z"
     class="cls-15"
     data-name="Path 1571"
     id="Path_1571" />
  <path
     style="fill:#f2f2f2"
     inkscape:connector-curvature="0"
     d="m 869.652,492.91 -84.71,-81.82 -84.7,81.82 z"
     class="cls-23"
     data-name="Path 1572"
     id="Path_1572" />
  <path
     style="fill:#f2f2f2"
     inkscape:connector-curvature="0"
     d="m 636.239,492.91 -84.71,-81.82 -84.71,81.82 z"
     class="cls-7"
     data-name="Path 1573"
     id="Path_1573" />
  <path
     style="fill:#ececec;opacity:0.412"
     inkscape:connector-curvature="0"
     d="m 350.121,411.09 84.7,81.82 84.71,-81.82 z"
     class="cls-54"
     data-name="Path 1574"
     id="Path_1574" />
  <path
     style="fill:#ececec;opacity:0.412"
     inkscape:connector-curvature="0"
     d="m 583.53,411.09 84.71,81.82 84.7,-81.82 z"
     class="cls-22"
     data-name="Path 1575"
     id="Path_1575" />
  <path
     style="fill:#f2f2f2"
     inkscape:connector-curvature="0"
     d="m 338.82,492.91 -84.7,-81.82 -84.71,81.82 z"
     class="cls-55"
     data-name="Path 1576"
     id="Path_1576" />
  <path
     style="fill:#f2f2f2"
     inkscape:connector-curvature="0"
     d="M 169.41,492.91 84.71,411.09 0,492.91 Z"
     class="cls-56"
     data-name="Path 1577"
     id="Path_1577" />
  <path
     style="fill:#f2f2f2"
     inkscape:connector-curvature="0"
     d="m 0,411.09 v 81.82 l 84.71,-81.82 z"
     class="cls-6"
     data-name="Path 1578"
     id="Path_1578" />
  <path
     style="fill:#f2f2f2"
     inkscape:connector-curvature="0"
     d="m 84.71,411.09 84.7,81.82 84.71,-81.82 z"
     class="cls-57"
     data-name="Path 1579"
     id="Path_1579" />
  <path
     style="fill:#ececec;opacity:0.412"
     inkscape:connector-curvature="0"
     d="m 1400.469,493.31 84.71,81.82 84.7,-81.82 z"
     class="cls-35"
     data-name="Path 1580"
     id="Path_1580" />
  <path
     style="fill:#ececec;opacity:0.595"
     inkscape:connector-curvature="0"
     d="m 1167.06,493.31 84.7,81.82 84.71,-81.82 z"
     class="cls-11"
     data-name="Path 1581"
     id="Path_1581" />
  <path
     style="fill:#ececec;stroke:#f2f2f2;stroke-miterlimit:10"
     inkscape:connector-curvature="0"
     d="m 1750.59,575.13 -84.71,-81.82 -84.7,81.82 z"
     class="cls-29"
     data-name="Path 1582"
     id="Path_1582" />
  <path
     style="fill:#ececec;opacity:0.284"
     inkscape:connector-curvature="0"
     d="m 1750.59,575.13 -84.71,-81.82 -84.7,81.82 z"
     class="cls-58"
     data-name="Path 1583"
     id="Path_1583" />
  <path
     style="fill:#f2f2f2"
     inkscape:connector-curvature="0"
     d="m 1920,575.13 -84.71,-81.82 -84.7,81.82 z"
     class="cls-59"
     data-name="Path 1584"
     id="Path_1584" />
  <path
     style="fill:#f2f2f2"
     inkscape:connector-curvature="0"
     d="m 1665.88,493.31 84.71,81.82 84.7,-81.82 z"
     class="cls-60"
     data-name="Path 1585"
     id="Path_1585" />
  <path
     style="fill:#f2f2f2"
     inkscape:connector-curvature="0"
     d="M 1835.29,493.31 1920,575.13 V 493.31 Z"
     class="cls-61"
     data-name="Path 1586"
     id="Path_1586" />
  <path
     style="fill:#f2f2f2"
     inkscape:connector-curvature="0"
     d="m 1453.181,575.13 -84.71,-81.82 -84.71,81.82 z"
     class="cls-62"
     data-name="Path 1587"
     id="Path_1587" />
  <path
     style="fill:#ececec;opacity:0.412"
     inkscape:connector-curvature="0"
     d="m 1219.759,575.13 -84.7,-81.82 -84.71,81.82 z"
     class="cls-63"
     data-name="Path 1588"
     id="Path_1588" />
  <path
     style="fill:#f2f2f2"
     inkscape:connector-curvature="0"
     d="m 986.349,575.13 -84.7,-81.82 -84.71,81.82 z"
     class="cls-56"
     data-name="Path 1589"
     id="Path_1589" />
  <path
     style="fill:#ececec;opacity:0.412"
     inkscape:connector-curvature="0"
     d="m 700.242,493.31 84.7,81.82 84.71,-81.82 z"
     class="cls-56"
     data-name="Path 1590"
     id="Path_1590" />
  <path
     style="fill:#ececec;opacity:0.588"
     inkscape:connector-curvature="0"
     d="m 933.651,493.31 84.7,81.82 84.71,-81.82 z"
     class="cls-17"
     data-name="Path 1591"
     id="Path_1591" />
  <path
     style="fill:#f2f2f2"
     inkscape:connector-curvature="0"
     d="m 752.94,575.13 -84.7,-81.82 -84.71,81.82 z"
     class="cls-39"
     data-name="Path 1592"
     id="Path_1592" />
  <path
     style="fill:#f2f2f2"
     inkscape:connector-curvature="0"
     d="m 519.531,575.13 -84.71,-81.82 -84.7,81.82 z"
     class="cls-3"
     data-name="Path 1593"
     id="Path_1593" />
  <path
     style="fill:#f2f2f2"
     inkscape:connector-curvature="0"
     d="m 169.41,493.31 84.71,81.82 84.7,-81.82 z"
     class="cls-64"
     data-name="Path 1594"
     id="Path_1594" />
  <path
     style="fill:#f2f2f2"
     inkscape:connector-curvature="0"
     d="m 466.819,493.31 84.71,81.82 84.71,-81.82 z"
     class="cls-25"
     data-name="Path 1595"
     id="Path_1595" />
  <path
     style="fill:#f2f2f2"
     inkscape:connector-curvature="0"
     d="m 254.12,575.13 -84.71,-81.82 -84.7,81.82 z"
     class="cls-24"
     data-name="Path 1596"
     id="Path_1596" />
  <path
     style="fill:#f2f2f2"
     inkscape:connector-curvature="0"
     d="M 84.71,575.13 0,493.31 v 81.82 z"
     class="cls-48"
     data-name="Path 1597"
     id="Path_1597" />
  <path
     style="fill:#f2f2f2"
     inkscape:connector-curvature="0"
     d="m 0,493.31 84.71,81.82 84.7,-81.82 z"
     class="cls-3"
     data-name="Path 1598"
     id="Path_1598" />
  <path
     style="fill:#f2f2f2"
     inkscape:connector-curvature="0"
     d="m 1835.29,657.35 -84.7,-81.82 -84.71,81.82 z"
     class="cls-65"
     data-name="Path 1599"
     id="Path_1599" />
  <path
     style="fill:#f2f2f2;opacity:0.804"
     inkscape:connector-curvature="0"
     d="m 1581.18,575.53 84.7,81.82 84.71,-81.82 z"
     class="cls-36"
     data-name="Path 1600"
     id="Path_1600" />
  <path
     style="fill:#f2f2f2"
     inkscape:connector-curvature="0"
     d="m 1920,657.35 v -81.82 l -84.71,81.82 z"
     class="cls-5"
     data-name="Path 1601"
     id="Path_1601" />
  <path
     style="fill:#f2f2f2"
     inkscape:connector-curvature="0"
     d="m 1750.59,575.53 84.7,81.82 84.71,-81.82 z"
     class="cls-66"
     data-name="Path 1602"
     id="Path_1602" />
  <path
     style="fill:#f2f2f2"
     inkscape:connector-curvature="0"
     d="m 1569.879,657.35 -84.7,-81.82 -84.71,81.82 z"
     class="cls-67"
     data-name="Path 1603"
     id="Path_1603" />
  <path
     style="fill:#f2f2f2"
     inkscape:connector-curvature="0"
     d="m 1283.761,575.53 84.71,81.82 84.71,-81.82 z"
     class="cls-35"
     data-name="Path 1604"
     id="Path_1604" />
  <path
     style="fill:#f2f2f2"
     inkscape:connector-curvature="0"
     d="m 1336.47,657.35 -84.71,-81.82 -84.7,81.82 z"
     class="cls-53"
     data-name="Path 1605"
     id="Path_1605" />
  <path
     style="fill:#f2f2f2"
     inkscape:connector-curvature="0"
     d="m 1050.349,575.53 84.71,81.82 84.7,-81.82 z"
     class="cls-68"
     data-name="Path 1606"
     id="Path_1606" />
  <path
     style="fill:#f2f2f2"
     inkscape:connector-curvature="0"
     d="m 1103.061,657.35 -84.71,-81.82 -84.7,81.82 z"
     class="cls-9"
     data-name="Path 1607"
     id="Path_1607" />
  <path
     style="fill:#f2f2f2"
     inkscape:connector-curvature="0"
     d="m 869.652,657.35 -84.71,-81.82 -84.7,81.82 z"
     class="cls-69"
     data-name="Path 1608"
     id="Path_1608" />
  <path
     style="fill:#f2f2f2"
     inkscape:connector-curvature="0"
     d="m 583.53,575.53 84.71,81.82 84.7,-81.82 z"
     class="cls-48"
     data-name="Path 1609"
     id="Path_1609" />
  <path
     style="fill:#ececec;opacity:0.581"
     inkscape:connector-curvature="0"
     d="m 816.939,575.53 84.71,81.82 84.7,-81.82 z"
     class="cls-10"
     data-name="Path 1610"
     id="Path_1610" />
  <path
     style="fill:#f2f2f2"
     inkscape:connector-curvature="0"
     d="m 636.239,657.35 -84.71,-81.82 -84.71,81.82 z"
     class="cls-55"
     data-name="Path 1611"
     id="Path_1611" />
  <path
     style="fill:#f2f2f2"
     inkscape:connector-curvature="0"
     d="m 338.82,657.35 -84.7,-81.82 -84.71,81.82 z"
     class="cls-31"
     data-name="Path 1612"
     id="Path_1612" />
  <path
     style="fill:#f2f2f2"
     inkscape:connector-curvature="0"
     d="m 84.71,575.53 84.7,81.82 84.71,-81.82 z"
     class="cls-9"
     data-name="Path 1613"
     id="Path_1613" />
  <path
     style="fill:#f2f2f2"
     inkscape:connector-curvature="0"
     d="m 350.121,575.53 84.7,81.82 84.71,-81.82 z"
     class="cls-69"
     data-name="Path 1614"
     id="Path_1614" />
  <path
     style="fill:#ececec;opacity:0.412"
     inkscape:connector-curvature="0"
     d="M 169.41,657.35 84.71,575.53 0,657.35 Z"
     class="cls-70"
     data-name="Path 1615"
     id="Path_1615" />
  <path
     style="fill:#f2f2f2"
     inkscape:connector-curvature="0"
     d="m 0,575.53 v 81.82 l 84.71,-81.82 z"
     class="cls-40"
     data-name="Path 1616"
     id="Path_1616" />
  <path
     style="fill:#ececec;opacity:0.412"
     inkscape:connector-curvature="0"
     d="m 1400.469,657.75 84.71,81.81 84.7,-81.81 z"
     class="cls-71"
     data-name="Path 1617"
     id="Path_1617" />
  <path
     style="fill:#ececec;opacity:0.693"
     inkscape:connector-curvature="0"
     d="m 1167.06,657.75 84.7,81.81 84.71,-81.81 z"
     class="cls-69"
     data-name="Path 1618"
     id="Path_1618" />
  <path
     style="fill:#ececec"
     inkscape:connector-curvature="0"
     d="m 1750.59,739.56 -84.71,-81.81 -84.7,81.81 z"
     class="cls-21"
     data-name="Path 1619"
     id="Path_1619" />
  <path
     style="fill:#f2f2f2"
     inkscape:connector-curvature="0"
     d="m 1750.59,739.56 -84.71,-81.81 -84.7,81.81 z"
     class="cls-21"
     data-name="Path 1620"
     id="Path_1620" />
  <path
     style="fill:#f2f2f2"
     inkscape:connector-curvature="0"
     d="m 1920,739.56 -84.71,-81.81 -84.7,81.81 z"
     class="cls-72"
     data-name="Path 1621"
     id="Path_1621" />
  <path
     style="fill:#f2f2f2"
     inkscape:connector-curvature="0"
     d="m 1665.88,657.75 84.71,81.81 84.7,-81.81 z"
     class="cls-40"
     data-name="Path 1622"
     id="Path_1622" />
  <path
     style="fill:#ececec"
     inkscape:connector-curvature="0"
     d="M 1835.29,657.75 1920,739.56 V 657.75 Z"
     class="cls-73"
     data-name="Path 1623"
     id="Path_1623" />
  <path
     style="fill:#f2f2f2"
     inkscape:connector-curvature="0"
     d="M 1835.29,657.75 1920,739.56 V 657.75 Z"
     class="cls-73"
     data-name="Path 1624"
     id="Path_1624" />
  <path
     style="fill:#f2f2f2"
     inkscape:connector-curvature="0"
     d="m 1453.181,739.56 -84.71,-81.81 -84.71,81.81 z"
     class="cls-74"
     data-name="Path 1625"
     id="Path_1625" />
  <path
     style="fill:#f2f2f2"
     inkscape:connector-curvature="0"
     d="m 1219.759,739.56 -84.7,-81.81 -84.71,81.81 z"
     class="cls-75"
     data-name="Path 1626"
     id="Path_1626" />
  <path
     style="fill:#ececec;opacity:0.412"
     inkscape:connector-curvature="0"
     d="m 933.651,657.75 84.7,81.81 84.71,-81.81 z"
     class="cls-73"
     data-name="Path 1627"
     id="Path_1627" />
  <path
     style="fill:#f2f2f2"
     inkscape:connector-curvature="0"
     d="m 986.349,739.56 -84.7,-81.81 -84.71,81.81 z"
     class="cls-9"
     data-name="Path 1628"
     id="Path_1628" />
  <path
     style="fill:#f2f2f2"
     inkscape:connector-curvature="0"
     d="m 752.94,739.56 -84.7,-81.81 -84.71,81.81 z"
     class="cls-5"
     data-name="Path 1629"
     id="Path_1629" />
  <path
     style="fill:#f2f2f2"
     inkscape:connector-curvature="0"
     d="m 466.819,657.75 84.71,81.81 84.71,-81.81 z"
     class="cls-56"
     data-name="Path 1630"
     id="Path_1630" />
  <path
     style="fill:#ececec;opacity:0.693"
     inkscape:connector-curvature="0"
     d="m 700.242,657.75 84.7,81.81 84.71,-81.81 z"
     class="cls-76"
     data-name="Path 1631"
     id="Path_1631" />
  <path
     style="fill:#f2f2f2"
     inkscape:connector-curvature="0"
     d="m 519.531,739.56 -84.71,-81.81 -84.7,81.81 z"
     class="cls-34"
     data-name="Path 1632"
     id="Path_1632" />
  <path
     style="fill:#f2f2f2"
     inkscape:connector-curvature="0"
     d="m 254.12,739.56 -84.71,-81.81 -84.7,81.81 z"
     class="cls-6"
     data-name="Path 1633"
     id="Path_1633" />
  <path
     style="fill:#f2f2f2"
     inkscape:connector-curvature="0"
     d="m 0,657.75 84.71,81.81 84.7,-81.81 z"
     class="cls-6"
     data-name="Path 1634"
     id="Path_1634" />
  <path
     style="fill:#f2f2f2"
     inkscape:connector-curvature="0"
     d="m 169.41,657.75 84.71,81.81 84.7,-81.81 z"
     class="cls-55"
     data-name="Path 1635"
     id="Path_1635" />
  <path
     style="fill:#f2f2f2"
     inkscape:connector-curvature="0"
     d="M 84.71,739.56 0,657.75 v 81.81 z"
     class="cls-77"
     data-name="Path 1636"
     id="Path_1636" />
  <path
     id="Path_1637"
     data-name="Path 1637"
     class="cls-49"
     d="m 1835.29,822.18 -84.7,-81.82 -84.71,81.82 z"
     inkscape:connector-curvature="0"
     style="fill:#f2f2f2" />
  <path
     id="Path_1638"
     data-name="Path 1638"
     class="cls-17"
     d="m 1581.18,740.36 84.7,81.82 84.71,-81.82 z"
     inkscape:connector-curvature="0"
     style="fill:#ececec;opacity:0.412" />
  <path
     id="Path_1639"
     data-name="Path 1639"
     class="cls-78"
     d="m 1920,822.18 v -81.82 l -84.71,81.82 z"
     inkscape:connector-curvature="0"
     style="fill:#f2f2f2" />
  <path
     id="Path_1640"
     data-name="Path 1640"
     class="cls-21"
     d="m 1750.59,740.36 84.7,81.82 84.71,-81.82 z"
     inkscape:connector-curvature="0"
     style="fill:#f2f2f2" />
  <path
     id="Path_1641"
     data-name="Path 1641"
     class="cls-66"
     d="m 1569.879,822.18 -84.7,-81.82 -84.71,81.82 z"
     inkscape:connector-curvature="0"
     style="fill:#f2f2f2" />
  <path
     id="Path_1642"
     data-name="Path 1642"
     class="cls-79"
     d="m 1283.761,740.36 84.71,81.82 84.71,-81.82 z"
     inkscape:connector-curvature="0"
     style="fill:#ececec;opacity:0.412" />
  <path
     id="Path_1643"
     data-name="Path 1643"
     class="cls-80"
     d="m 1336.47,822.18 -84.71,-81.82 -84.7,81.82 z"
     inkscape:connector-curvature="0"
     style="fill:#f2f2f2" />
  <path
     id="Path_1644"
     data-name="Path 1644"
     class="cls-81"
     d="m 1050.349,740.36 84.71,81.82 84.7,-81.82 z"
     inkscape:connector-curvature="0"
     style="fill:#ececec;opacity:0.412" />
  <path
     id="Path_1645"
     data-name="Path 1645"
     class="cls-72"
     d="m 1103.061,822.18 -84.71,-81.82 -84.7,81.82 z"
     inkscape:connector-curvature="0"
     style="fill:#f2f2f2" />
  <path
     id="Path_1646"
     data-name="Path 1646"
     class="cls-38"
     d="m 816.939,740.36 84.71,81.82 84.7,-81.82 z"
     inkscape:connector-curvature="0"
     style="fill:#f2f2f2" />
  <path
     id="Path_1647"
     data-name="Path 1647"
     class="cls-7"
     d="m 869.652,822.18 -84.71,-81.82 -84.7,81.82 z"
     inkscape:connector-curvature="0"
     style="fill:#ececec;opacity:0.584" />
  <path
     id="Path_1648"
     data-name="Path 1648"
     class="cls-53"
     d="m 636.239,822.18 -84.71,-81.82 -84.71,81.82 z"
     inkscape:connector-curvature="0"
     style="fill:#ececec;opacity:0.412" />
  <path
     id="Path_1649"
     data-name="Path 1649"
     class="cls-3"
     d="m 350.121,740.36 84.7,81.82 84.71,-81.82 z"
     inkscape:connector-curvature="0"
     style="fill:#f2f2f2" />
  <path
     id="Path_1650"
     data-name="Path 1650"
     class="cls-16"
     d="m 583.53,740.36 84.71,81.82 84.7,-81.82 z"
     inkscape:connector-curvature="0"
     style="fill:#ececec;opacity:0.557" />
  <path
     id="Path_1651"
     data-name="Path 1651"
     class="cls-82"
     d="m 338.82,822.18 -84.7,-81.82 -84.71,81.82 z"
     inkscape:connector-curvature="0"
     style="fill:#f2f2f2" />
  <path
     id="Path_1652"
     data-name="Path 1652"
     class="cls-83"
     d="M 169.41,822.18 84.71,740.36 0,822.18 Z"
     inkscape:connector-curvature="0"
     style="fill:#ececec;opacity:0.318" />
  <path
     id="Path_1653"
     data-name="Path 1653"
     class="cls-83"
     d="m 0,740.36 v 81.82 l 84.71,-81.82 z"
     inkscape:connector-curvature="0"
     style="fill:#f2f2f2" />
  <path
     id="Path_1654"
     data-name="Path 1654"
     class="cls-60"
     d="m 84.71,740.36 84.7,81.82 84.71,-81.82 z"
     inkscape:connector-curvature="0"
     style="fill:#f2f2f2;opacity:0.804" />
  <path
     style="fill:#ececec;opacity:0.804"
     inkscape:connector-curvature="0"
     d="m 1400.469,822.18 84.71,81.82 84.7,-81.82 z"
     class="cls-79"
     data-name="Path 1655"
     id="Path_1655" />
  <path
     style="fill:#f2f2f2"
     inkscape:connector-curvature="0"
     d="m 1167.06,822.18 84.7,81.82 84.71,-81.82 z"
     class="cls-40"
     data-name="Path 1656"
     id="Path_1656" />
  <path
     style="fill:#ececec"
     inkscape:connector-curvature="0"
     d="m 1750.59,904 -84.71,-81.82 -84.7,81.82 z"
     class="cls-81"
     data-name="Path 1657"
     id="Path_1657" />
  <path
     style="fill:#f2f2f2"
     inkscape:connector-curvature="0"
     d="m 1750.59,904 -84.71,-81.82 -84.7,81.82 z"
     class="cls-69"
     data-name="Path 1658"
     id="Path_1658" />
  <path
     style="fill:#f2f2f2"
     inkscape:connector-curvature="0"
     d="m 1920,904 -84.71,-81.82 -84.7,81.82 z"
     class="cls-21"
     data-name="Path 1659"
     id="Path_1659" />
  <path
     style="fill:#f2f2f2"
     inkscape:connector-curvature="0"
     d="m 1665.88,822.18 84.71,81.82 84.7,-81.82 z"
     class="cls-17"
     data-name="Path 1660"
     id="Path_1660" />
  <path
     style="fill:#ececec"
     inkscape:connector-curvature="0"
     d="M 1835.29,822.18 1920,904 v -81.82 z"
     class="cls-81"
     data-name="Path 1661"
     id="Path_1661" />
  <path
     style="fill:#f2f2f2"
     inkscape:connector-curvature="0"
     d="M 1835.29,822.18 1920,904 v -81.82 z"
     class="cls-69"
     data-name="Path 1662"
     id="Path_1662" />
  <path
     style="fill:#ececec"
     inkscape:connector-curvature="0"
     d="m 1453.181,904 -84.71,-81.82 -84.71,81.82 z"
     class="cls-71"
     data-name="Path 1663"
     id="Path_1663" />
  <path
     style="fill:#ececec;opacity:0.412"
     inkscape:connector-curvature="0"
     d="m 1219.759,904 -84.7,-81.82 -84.71,81.82 z"
     class="cls-75"
     data-name="Path 1664"
     id="Path_1664" />
  <path
     style="fill:#ececec;opacity:0.693"
     inkscape:connector-curvature="0"
     d="m 933.651,822.18 84.7,81.82 84.71,-81.82 z"
     class="cls-38"
     data-name="Path 1665"
     id="Path_1665" />
  <path
     style="fill:#f2f2f2"
     inkscape:connector-curvature="0"
     d="m 986.349,904 -84.7,-81.82 -84.71,81.82 z"
     class="cls-72"
     data-name="Path 1666"
     id="Path_1666" />
  <path
     style="fill:#f2f2f2"
     inkscape:connector-curvature="0"
     d="m 700.242,822.18 84.7,81.82 84.71,-81.82 z"
     class="cls-7"
     data-name="Path 1667"
     id="Path_1667" />
  <path
     style="fill:#ececec;opacity:0.791"
     inkscape:connector-curvature="0"
     d="M 752.94,904 668.24,822.18 583.53,904 Z"
     class="cls-38"
     data-name="Path 1668"
     id="Path_1668" />
  <path
     style="fill:#ececec;opacity:0.804"
     inkscape:connector-curvature="0"
     d="m 519.531,904 -84.71,-81.82 -84.7,81.82 z"
     class="cls-3"
     data-name="Path 1669"
     id="Path_1669" />
  <path
     style="fill:#ececec;opacity:0.412"
     inkscape:connector-curvature="0"
     d="m 169.41,822.18 84.71,81.82 84.7,-81.82 z"
     class="cls-60"
     data-name="Path 1670"
     id="Path_1670" />
  <path
     style="fill:#f2f2f2"
     inkscape:connector-curvature="0"
     d="m 466.819,822.18 84.71,81.82 84.71,-81.82 z"
     class="cls-62"
     data-name="Path 1671"
     id="Path_1671" />
  <path
     style="fill:#f2f2f2"
     inkscape:connector-curvature="0"
     d="M 254.12,904 169.41,822.18 84.71,904 Z"
     class="cls-82"
     data-name="Path 1672"
     id="Path_1672" />
  <path
     style="fill:#f2f2f2"
     inkscape:connector-curvature="0"
     d="M 84.71,904 0,822.18 V 904 Z"
     class="cls-40"
     data-name="Path 1673"
     id="Path_1673" />
  <path
     style="fill:#f2f2f2"
     inkscape:connector-curvature="0"
     d="M 0,822.18 84.71,904 169.41,822.18 Z"
     class="cls-77"
     data-name="Path 1674"
     id="Path_1674" />
</svg>
