<svg xmlns="http://www.w3.org/2000/svg" width="374.74" height="53.846" viewBox="0 0 374.74 53.846">
  <defs>
    <style>
      .cls-1 {
        fill: #0d7d3a;
      }

      .cls-2 {
        fill: #fff;
      }
    </style>
  </defs>
  <g id="Group_1" data-name="Group 1" transform="translate(-1484.13 545.737)">
    <path id="Path_3" data-name="Path 3" class="cls-1" d="M3,16H14.94L26.58,35.14l-5.94,9.84ZM28.5,57.94l-5.94-9.78L39.54,20.02,42,15.94H53.94Z" transform="translate(1585.6 -476.5) rotate(180)"/>
    <path id="Path_2" data-name="Path 2" class="cls-1" d="M3.5,44H17.43L31.01,66.33,24.08,77.81ZM33.25,92.93,26.32,81.52,46.13,48.69,49,43.93H62.93Z" transform="translate(1586.6 -448.5) rotate(180)"/>
    <path id="Path_1" data-name="Path 1" class="cls-2" d="M34.127,108a12,12,0,0,1-12-12V54.826h7.339v40.21a6.164,6.164,0,0,0,6.372,6.372H52.781V108Zm27.451,0h15.26L91.771,83.475l-7.63-12.644ZM94.169,54.263,86.539,66.8l21.8,36.079,3.161,5.232h15.26Zm40.787.563V108h7.075V75.173q3.647-.044,20.215-.044a5.256,5.256,0,0,1,3.955,1.648,5.482,5.482,0,0,1,1.582,3.933V108h7.075V79.216a9.543,9.543,0,0,0-3.406-7.361,11.908,11.908,0,0,0-8.24-3.054H142.031V54.826ZM190.81,68.8a11.77,11.77,0,0,0-8.174,3.054,9.569,9.569,0,0,0-3.384,7.361V100A7.173,7.173,0,0,0,182,105.671,9.948,9.948,0,0,0,188.657,108h26.982v-6.108H189.887a4.271,4.271,0,0,1-2.571-.747,2.288,2.288,0,0,1-1.033-1.934V92.048h32.871V79.216a9.569,9.569,0,0,0-3.384-7.361A11.77,11.77,0,0,0,207.6,68.8Zm1.67,6.372h13.447a6.3,6.3,0,0,1,4.373,1.56,5.247,5.247,0,0,1,1.78,3.977v5.01h-25.8V80.71a5.072,5.072,0,0,1,1.78-3.955A6.405,6.405,0,0,1,192.48,75.173Zm71.587,4.043a9.635,9.635,0,0,0-3.384-7.383,11.722,11.722,0,0,0-8.174-3.076h-17.4a11.722,11.722,0,0,0-8.174,3.076,9.635,9.635,0,0,0-3.384,7.383V108h7.075V80.71a5.148,5.148,0,0,1,1.758-4,6.324,6.324,0,0,1,4.395-1.582H250.8a6.324,6.324,0,0,1,4.395,1.582,5.148,5.148,0,0,1,1.758,4V108h7.119Zm44.3-24.39V108H280.107a11.908,11.908,0,0,1-8.24-3.054,9.543,9.543,0,0,1-3.406-7.361V79.172a9.543,9.543,0,0,1,3.406-7.361,11.908,11.908,0,0,1,8.24-3.054h21.182V54.826Zm-27.29,20.259a5.222,5.222,0,0,0-3.955,1.67,5.557,5.557,0,0,0-1.582,3.955V96.091a5.1,5.1,0,0,0,1.758,3.955,6.385,6.385,0,0,0,4.438,1.582h19.556V75.173Q284.062,75.085,281.074,75.085Zm72.642,22.5a9.569,9.569,0,0,1-3.384,7.361A11.77,11.77,0,0,1,342.158,108h-17.4a11.77,11.77,0,0,1-8.174-3.054,9.569,9.569,0,0,1-3.384-7.361V68.757h7.075V96.091a5.081,5.081,0,0,0,1.758,3.977,6.377,6.377,0,0,0,4.395,1.56h14.019a6.377,6.377,0,0,0,4.395-1.56,5.081,5.081,0,0,0,1.758-3.977V68.757h7.119Zm13.8-28.828a9.891,9.891,0,0,0-6.658,2.351A7.236,7.236,0,0,0,358.11,76.8v6.021a7.236,7.236,0,0,0,2.747,5.691,9.891,9.891,0,0,0,6.658,2.351h18.765a3.83,3.83,0,0,1,2.593.835,2.762,2.762,0,0,1,.967,2.2v5.054a2.8,2.8,0,0,1-.989,2.219,3.851,3.851,0,0,1-2.615.857H359.868V108h27.6a9.948,9.948,0,0,0,6.658-2.329A7.173,7.173,0,0,0,396.87,100V93.1a7.236,7.236,0,0,0-2.747-5.691,9.891,9.891,0,0,0-6.658-2.351H368.745a3.851,3.851,0,0,1-2.615-.857,2.8,2.8,0,0,1-.989-2.219V77.854a2.8,2.8,0,0,1,.989-2.219,3.851,3.851,0,0,1,2.615-.857q17.358-.044,24.609-.044V68.757Z" transform="translate(1462 -600)"/>
  </g>
</svg>
