<?xml version="1.0" encoding="UTF-8" standalone="no"?>
<!-- Created with Inkscape (http://www.inkscape.org/) -->

<svg
   xmlns:dc="http://purl.org/dc/elements/1.1/"
   xmlns:cc="http://creativecommons.org/ns#"
   xmlns:rdf="http://www.w3.org/1999/02/22-rdf-syntax-ns#"
   xmlns:svg="http://www.w3.org/2000/svg"
   xmlns="http://www.w3.org/2000/svg"
   xmlns:sodipodi="http://sodipodi.sourceforge.net/DTD/sodipodi-0.dtd"
   xmlns:inkscape="http://www.inkscape.org/namespaces/inkscape"
   width="200"
   height="200"
   viewBox="0 0 52.916666 52.916668"
   version="1.1"
   id="svg8"
   inkscape:version="0.92.4 (5da689c313, 2019-01-14)"
   sodipodi:docname="missing_feedback_v1.svg">
  <defs
     id="defs2">
    <inkscape:path-effect
       effect="powerstroke"
       id="path-effect829"
       is_visible="true"
       offset_points="3,0.13229166"
       sort_points="true"
       interpolator_type="CubicBezierJohan"
       interpolator_beta="0.2"
       start_linecap_type="zerowidth"
       linejoin_type="extrp_arc"
       miter_limit="4"
       end_linecap_type="zerowidth" />
  </defs>
  <sodipodi:namedview
     id="base"
     pagecolor="#ffffff"
     bordercolor="#666666"
     borderopacity="1.0"
     inkscape:pageopacity="0.0"
     inkscape:pageshadow="2"
     inkscape:zoom="2.8"
     inkscape:cx="77.964945"
     inkscape:cy="125.86107"
     inkscape:document-units="mm"
     inkscape:current-layer="layer1"
     showgrid="false"
     units="px"
     inkscape:pagecheckerboard="true"
     inkscape:window-width="1920"
     inkscape:window-height="1017"
     inkscape:window-x="-8"
     inkscape:window-y="32"
     inkscape:window-maximized="1" />
  <metadata
     id="metadata5">
    <rdf:RDF>
      <cc:Work
         rdf:about="">
        <dc:format>image/svg+xml</dc:format>
        <dc:type
           rdf:resource="http://purl.org/dc/dcmitype/StillImage" />
        <dc:title></dc:title>
      </cc:Work>
    </rdf:RDF>
  </metadata>
  <g
     inkscape:label="Layer 1"
     inkscape:groupmode="layer"
     id="layer1"
     transform="translate(0,-244.08332)">
    <path
       style="opacity:1;fill:#aaaaaa;fill-opacity:1;fill-rule:nonzero;stroke:none;stroke-width:1.2826544;stroke-opacity:1"
       d="M 34.378906 2.3652344 C 17.35741 2.3652344 3.6542969 16.068347 3.6542969 33.089844 L 3.6542969 118.05273 C 3.6542969 135.07423 17.35741 148.77734 34.378906 148.77734 L 165.62109 148.77734 C 182.64259 148.77734 196.3457 135.07423 196.3457 118.05273 L 196.3457 33.089844 C 196.3457 16.068347 182.64259 2.3652344 165.62109 2.3652344 L 34.378906 2.3652344 z M 96.537109 18.470703 C 101.71169 18.470703 106.52335 19.010288 110.97461 20.089844 C 115.42586 21.117992 119.29337 22.763464 122.57617 25.025391 C 125.91461 27.287317 128.50175 30.19117 130.33789 33.738281 C 132.22967 37.233986 133.17578 41.449654 133.17578 46.384766 C 133.17578 49.520618 132.78678 52.372989 132.00781 54.943359 C 131.22884 57.462323 130.08824 59.853308 128.58594 62.115234 C 127.08364 64.377161 125.21977 66.562218 122.99414 68.669922 C 120.76851 70.726219 118.20777 72.859794 115.31445 75.070312 C 113.36703 76.561128 111.64292 77.94919 110.14062 79.234375 C 108.69397 80.51956 107.47028 81.804658 106.46875 83.089844 C 105.52286 84.323622 104.79959 85.660202 104.29883 87.099609 C 103.79806 88.48761 103.54687 90.0816 103.54688 91.880859 C 103.54688 93.114637 103.71498 94.373018 104.04883 95.658203 C 104.43831 96.943389 104.93873 98.022558 105.55078 98.896484 L 83.599609 98.896484 C 83.043202 97.559892 82.597516 96.070819 82.263672 94.425781 C 81.985468 92.729337 81.847656 91.135346 81.847656 89.644531 C 81.847656 87.27979 82.09689 85.119497 82.597656 83.166016 C 83.098422 81.212534 83.85003 79.387851 84.851562 77.691406 C 85.853095 75.943554 87.105123 74.298082 88.607422 72.755859 C 90.10972 71.162229 91.86217 69.594957 93.865234 68.052734 C 95.979581 66.407697 97.817061 64.891906 99.375 63.503906 C 100.98858 62.064499 102.35008 60.649719 103.46289 59.261719 C 104.5757 57.822311 105.41039 56.358003 105.9668 54.867188 C 106.5232 53.324965 106.80273 51.628011 106.80273 49.777344 C 106.80273 48.183714 106.49681 46.719405 105.88477 45.382812 C 105.27272 43.994812 104.38135 42.812678 103.21289 41.835938 C 102.10008 40.859197 100.71024 40.086966 99.041016 39.521484 C 97.427436 38.956003 95.618299 38.673828 93.615234 38.673828 C 89.275261 38.673828 84.767568 39.522305 80.09375 41.21875 C 75.419932 42.863787 70.99727 45.382501 66.824219 48.775391 L 66.824219 25.564453 C 71.108552 23.199712 75.7824 21.426511 80.845703 20.244141 C 85.909006 19.06177 91.139963 18.470703 96.537109 18.470703 z M 95.785156 107.22461 C 100.18077 107.22461 103.82543 108.43346 106.71875 110.84961 C 109.61207 113.21435 111.05859 116.22117 111.05859 119.87109 C 111.05859 123.57243 109.64041 126.63073 106.80273 129.04688 C 103.90942 131.46302 100.23641 132.67188 95.785156 132.67188 C 91.333901 132.67188 87.634503 131.43826 84.685547 128.9707 C 81.73659 126.40033 80.261719 123.3668 80.261719 119.87109 C 80.261719 116.27257 81.73659 113.26576 84.685547 110.84961 C 87.634503 108.43346 91.333901 107.22461 95.785156 107.22461 z "
       transform="matrix(0.26458333,0,0,0.26458333,0,244.08332)"
       id="rect815" />
    <path
       style="fill:#aaaaaa;fill-opacity:1;fill-rule:nonzero;stroke:none;stroke-width:0.1;stroke-linecap:butt;stroke-linejoin:miter;stroke-miterlimit:4;stroke-dasharray:none;stroke-opacity:1;paint-order:fill markers stroke"
       d="m 33.275055,283.63651 10.958052,12.49485 1.937703,-16.43708 z"
       id="path827"
       inkscape:connector-curvature="0"
       inkscape:path-effect="#path-effect829"
       inkscape:original-d="m 33.275055,283.63651 10.958052,12.30586 1.937703,-16.24809 z"
       sodipodi:nodetypes="cccc"
       transform="matrix(1.1725243,0,0,1.1232674,-2.6552632,-35.974181)" />
  </g>
</svg>
