<svg xmlns="http://www.w3.org/2000/svg" viewBox="0 0 24 24">
  <path d="M3.95 0A3.76 3.76 0 00.18 3.77V14.2a3.76 3.76 0 003.77 3.77h13l5.6 6.03 1.06-8.47-.04.01c.16-.41.25-.87.25-1.34V3.77A3.76 3.76 0 0020.05 0zm7.63 1.98c.63 0 1.22.06 1.77.2.54.12 1.02.32 1.42.6.41.28.73.64.95 1.07.24.43.35.95.35 1.55a3.36 3.36 0 01-.56 1.93c-.19.28-.41.55-.69.8-.27.26-.59.52-.94.8l-.64.5c-.17.16-.32.32-.45.48a1.7 1.7 0 00-.1 1.94h-2.7a3 3 0 01-.13-1.93 3.07 3.07 0 01.74-1.28c.19-.2.4-.4.65-.58.26-.2.48-.39.68-.56.2-.17.36-.35.5-.52a1.85 1.85 0 00.41-1.16 1.28 1.28 0 00-.44-.98c-.14-.12-.31-.21-.52-.28-.2-.07-.42-.1-.66-.1A5.46 5.46 0 007.93 5.7V2.83c.53-.29 1.1-.5 1.72-.65a8.43 8.43 0 011.93-.22zm-.1 10.89c.54 0 .99.15 1.34.44.36.3.54.66.54 1.11 0 .46-.18.83-.53 1.13-.35.3-.8.44-1.35.44s-1-.15-1.36-.45a1.44 1.44 0 01-.54-1.12c0-.44.18-.81.54-1.1.36-.3.82-.45 1.36-.45z"/>
</svg>
