<svg xmlns="http://www.w3.org/2000/svg" viewBox="0 0 24 24"><path d="M11.96.24a2.8 2.8 0 00-2.76 2.8 2.8 2.8 0 001.44 2.45v2.9H5.2a3.17 3.17 0 00-3.27 3.1v9.28a3.17 3.17 0 003.27 3.09h13.6a3.17 3.17 0 003.27-3.1v-9.28A3.17 3.17 0 0018.8 8.4h-5.44V5.5a2.8 2.8 0 001.44-2.45A2.8 2.8 0 0012 .24a2.8 2.8 0 00-.04 0zM7.24 11.98a2.8 2.8 0 01.08 0 2.8 2.8 0 011.09.25 2.8 2.8 0 011.43 3.6l-.22.44a2.8 2.8 0 01-3.75.96 2.8 2.8 0 01-1.12-3.72 2.8 2.8 0 012.5-1.53zm9.57 0a2.8 2.8 0 01.03 0 2.8 2.8 0 011.09.26 2.8 2.8 0 011.38 3.7l-.02.05a2.8 2.8 0 01-3.72 1.33 2.8 2.8 0 01-1.35-3.72 2.8 2.8 0 012.6-1.62z"/></svg>