<svg version="1" xmlns="http://www.w3.org/2000/svg" width="933.333" height="933.333" viewBox="0 0 700.000000 700.000000"><path d="M321.5 1.1C221.1 9.7 131.6 59 70.2 139.8c-37.3 48.9-61.3 110-68.4 173.7-1.7 15.4-1.7 58.5 0 73 4.4 37 12.9 69.4 26.9 102 27.6 64.5 76.4 121.2 136.5 158.6 44.7 27.8 92.4 44.3 148.3 51.1 13 1.6 60 1.6 73 0 45.1-5.5 81.8-16.3 119.5-35.1 72.9-36.4 131.2-97.3 163.9-171.4 14.4-32.5 23.8-67.5 28.3-105.2 1.6-13.9 1.6-59.5 0-73-10.8-88.9-47.7-161.9-112.2-221.7-50.7-47.1-117.1-78.5-186.5-88.2-24.9-3.5-54.6-4.5-78-2.5zm42.8 133.1l86.7 69.1V267H249V65h28.5l86.8 69.2zm86.7-21.7c0 26.1-.2 47.5-.5 47.5-.6 0-114.1-90.4-117-93.1-1.9-1.9-.8-1.9 57.8-1.9H451v47.5zM312.8 443.2L313 544H110V443.7c0-55.2.3-100.7.7-101 .3-.4 45.9-.6 101.2-.5l100.6.3.3 100.7zm277 0L590 544H387V443.7c0-55.2.3-100.7.7-101 .3-.4 45.9-.6 101.2-.5l100.6.3.3 100.7z"/></svg>