<svg xmlns="http://www.w3.org/2000/svg" viewBox="0 0 1920 904">
  <defs>
    <style>
      .cls-3{fill:#d0d0d0}.cls-4{fill:#e3e3e3}.cls-5{fill:#d1d1d1}.cls-6{fill:#d3d3d3}.cls-7{fill:#d9d9d9}.cls-9{fill:#eaeaea}.cls-10{fill:#f4f4f4}.cls-11{fill:#d7d7d7}.cls-12{fill:#f1f1f1}.cls-13{fill:#f0f0f0}.cls-14{fill:#ededed}.cls-15{fill:#e4e4e4}.cls-16{fill:#d5d5d5}.cls-17{fill:#cfcfcf}.cls-18{fill:#dfdfdf}.cls-19{fill:#ececec}.cls-20{fill:#ebebeb}.cls-21{fill:#989898}.cls-22{fill:#e6e6e6}.cls-23{fill:#c7c7c7}.cls-24{fill:#d8d8d8}.cls-25{fill:#eee}.cls-27{fill:#e5e5e5}.cls-29{fill:none;stroke:#f2f2f2;stroke-miterlimit:10}.cls-30{fill:#b5b5b5}.cls-31{fill:#4dab54}.cls-33{fill:#8c8c8c}.cls-34{fill:#686868}.cls-35{fill:#e9e9e9}.cls-36{fill:#acacac}.cls-38{fill:#a4a4a4}.cls-39{fill:#e8e8e8}.cls-40{fill:#9d9d9d}.cls-41{fill:#a8a8a8}.cls-43{fill:#a9a9a9}.cls-48{fill:#ababab}.cls-49{fill:#a3a3a3}.cls-53{fill:#bbb}.cls-55{fill:#7c7c7c}.cls-56{fill:#bfbfbf}.cls-60{fill:#9e9e9e}.cls-62{fill:#939393}.cls-66{fill:#b2b2b2}.cls-69{fill:#e2e2e2}.cls-71{fill:#b9b9b9}.cls-72{fill:#b8b8b8}.cls-73{fill:#afafaf}.cls-75{fill:#c2c2c2}.cls-77{fill:#cdcdcd}.cls-79{fill:#8b8b8b}.cls-81{fill:#b1b1b1}.cls-82{fill:#b4b4b4}.cls-83{fill:#9a9a9a}
    </style>
  </defs>
  <g id="Group_31" data-name="Group 31">
    <path id="Rectangle_1492" fill="#f2f2f2" d="M0 0h1920v904H0z" data-name="Rectangle 1492"/>
  </g>
  <g id="Group_33" data-name="Group 33" opacity=".06">
    <path id="Path_1470" d="M1185.88 0l84.71 81.82L1355.29 0z" class="cls-3" data-name="Path 1470" transform="translate(480)"/>
    <path id="Path_1471" d="M1440 81.82L1355.29 0l-84.7 81.82z" class="cls-4" data-name="Path 1471" transform="translate(480)"/>
    <path id="Path_1472" d="M1270.59 81.82L1185.88 0l-84.7 81.82z" class="cls-5" data-name="Path 1472" transform="translate(480)"/>
    <path id="Path_1473" d="M1016.47 0l84.71 81.82L1185.88 0z" class="cls-6" data-name="Path 1473" transform="translate(384)"/>
    <path id="Path_1474" d="M1355.29 0L1440 81.82V0z" class="cls-7" data-name="Path 1474" transform="translate(480)"/>
    <path id="Path_1475" fill="#cecece" d="M1101.18 81.82L1016.47 0l-84.71 81.82z" data-name="Path 1475" transform="translate(352)"/>
    <path id="Path_1476" d="M931.76 81.82L847.06 0l-84.71 81.82z" class="cls-9" data-name="Path 1476" transform="translate(288)"/>
    <path id="Path_1477" d="M677.65 0l84.7 81.82L847.06 0z" class="cls-10" data-name="Path 1477" transform="translate(256)"/>
    <path id="Path_1478" d="M847.06 0l84.7 81.82L1016.47 0z" class="cls-11" data-name="Path 1478" transform="translate(320)"/>
    <path id="Path_1479" d="M762.35 81.82L677.65 0l-84.71 81.82z" class="cls-10" data-name="Path 1479" transform="translate(224)"/>
    <path id="Path_1480" d="M592.94 81.82L508.24 0l-84.71 81.82z" class="cls-12" data-name="Path 1480" transform="translate(160)"/>
    <path id="Path_1481" d="M338.82 0l84.71 81.82L508.24 0z" class="cls-13" data-name="Path 1481" transform="translate(128)"/>
    <path id="Path_1482" d="M508.24 0l84.7 81.82L677.65 0z" class="cls-14" data-name="Path 1482" transform="translate(192)"/>
    <path id="Path_1483" d="M423.53 81.82L338.82 0l-84.7 81.82z" class="cls-15" data-name="Path 1483" transform="translate(96)"/>
    <path id="Path_1484" d="M254.12 81.82L169.41 0l-84.7 81.82z" class="cls-16" data-name="Path 1484"/>
    <path id="Path_1485" d="M84.71 81.82L0 0v81.82z" class="cls-7" data-name="Path 1485"/>
    <path id="Path_1486" d="M0 0l84.71 81.82L169.41 0z" class="cls-17" data-name="Path 1486"/>
    <path id="Path_1487" d="M169.41 0l84.71 81.82L338.82 0z" class="cls-18" data-name="Path 1487"/>
    <path id="Path_1488" d="M1355.29 163.64l-84.7-81.82-84.71 81.82z" class="cls-19" data-name="Path 1488" transform="translate(480)"/>
    <path id="Path_1489" d="M1185.88 163.64l-84.7-81.82-84.71 81.82z" class="cls-20" data-name="Path 1489" transform="translate(384)"/>
    <path id="Path_1490" d="M931.76 81.82l84.71 81.82 84.71-81.82z" class="cls-15" data-name="Path 1490" transform="translate(352)"/>
    <path id="Path_1491" d="M1101.18 81.82l84.7 81.82 84.71-81.82z" class="cls-21" data-name="Path 1491" transform="translate(480)"/>
    <path id="Path_1492" d="M1440 163.64V81.82l-84.71 81.82z" class="cls-11" data-name="Path 1492" transform="translate(480)"/>
    <path id="Path_1493" d="M1270.59 81.82l84.7 81.82L1440 81.82z" class="cls-22" data-name="Path 1493" transform="translate(480)"/>
    <path id="Path_1494" d="M1016.47 163.64l-84.71-81.82-84.7 81.82z" class="cls-20" data-name="Path 1494" transform="translate(320)"/>
    <path id="Path_1495" d="M847.06 163.64l-84.71-81.82-84.7 81.82z" class="cls-23" data-name="Path 1495" transform="translate(256)"/>
    <path id="Path_1496" d="M592.94 81.82l84.71 81.82 84.7-81.82z" class="cls-23" data-name="Path 1496" transform="translate(224)"/>
    <path id="Path_1497" d="M762.35 81.82l84.71 81.82 84.7-81.82z" class="cls-24" data-name="Path 1497" transform="translate(288)"/>
    <path id="Path_1498" d="M677.65 163.64l-84.71-81.82-84.7 81.82z" class="cls-10" data-name="Path 1498" transform="translate(192)"/>
    <path id="Path_1499" d="M508.24 163.64l-84.71-81.82-84.71 81.82z" class="cls-11" data-name="Path 1499" transform="translate(128)"/>
    <path id="Path_1500" d="M254.12 81.82l84.7 81.82 84.71-81.82z" class="cls-16" data-name="Path 1500" transform="translate(96)"/>
    <path id="Path_1501" d="M423.53 81.82l84.71 81.82 84.7-81.82z" class="cls-25" data-name="Path 1501" transform="translate(160)"/>
    <path id="Path_1502" d="M338.82 163.64l-84.7-81.82-84.71 81.82z" class="cls-23" data-name="Path 1502"/>
    <path id="Path_1503" fill="#e7e7e7" d="M169.41 163.64l-84.7-81.82L0 163.64z" data-name="Path 1503"/>
    <path id="Path_1504" d="M0 81.82v81.82l84.71-81.82z" class="cls-27" data-name="Path 1504"/>
    <path id="Path_1505" fill="#c6c6c6" d="M84.71 81.82l84.7 81.82 84.71-81.82z" data-name="Path 1505"/>
    <path id="Path_1506" d="M1270.59 245.45l-84.71-81.81-84.7 81.81z" class="cls-29" data-name="Path 1506" transform="translate(480 .8)"/>
    <path id="Path_1507" d="M1101.18 245.45l-84.71-81.81-84.71 81.81z" class="cls-12" data-name="Path 1507" transform="translate(352 .8)"/>
    <path id="Path_1508" d="M847.06 163.64l84.7 81.81 84.71-81.81z" class="cls-19" data-name="Path 1508" transform="translate(320 .8)"/>
    <path id="Path_1509" d="M1016.47 163.64l84.71 81.81 84.7-81.81z" class="cls-29" data-name="Path 1509" transform="translate(384 .8)"/>
    <path id="Path_1510" d="M1270.59 245.45l-84.71-81.81-84.7 81.81z" class="cls-20" data-name="Path 1510" transform="translate(480 .8)"/>
    <path id="Path_1511" d="M1016.47 163.64l84.71 81.81 84.7-81.81z" class="cls-23" data-name="Path 1511" transform="translate(384 .8)"/>
    <path id="Path_1512" d="M1440 245.45l-84.71-81.81-84.7 81.81z" class="cls-30" data-name="Path 1512" transform="translate(480 .8)"/>
    <path id="Path_1513" d="M1185.88 163.64l84.71 81.81 84.7-81.81z" class="cls-31" data-name="Path 1513" transform="translate(480 .8)"/>
    <path id="Path_1514" fill="#d2d2d2" d="M1355.29 163.64l84.71 81.81v-81.81z" data-name="Path 1514" transform="translate(480 .8)"/>
    <path id="Path_1515" d="M931.76 245.45l-84.7-81.81-84.71 81.81z" class="cls-14" data-name="Path 1515" transform="translate(288 .8)"/>
    <path id="Path_1516" d="M762.35 245.45l-84.7-81.81-84.71 81.81z" class="cls-33" data-name="Path 1516" transform="translate(224 .8)"/>
    <path id="Path_1517" d="M508.24 163.64l84.7 81.81 84.71-81.81z" class="cls-34" data-name="Path 1517" transform="translate(192 .8)"/>
    <path id="Path_1518" d="M677.65 163.64l84.7 81.81 84.71-81.81z" class="cls-35" data-name="Path 1518" transform="translate(256 .8)"/>
    <path id="Path_1519" d="M592.94 245.45l-84.7-81.81-84.71 81.81z" class="cls-23" data-name="Path 1519" transform="translate(160 .8)"/>
    <path id="Path_1520" d="M423.53 245.45l-84.71-81.81-84.7 81.81z" class="cls-10" data-name="Path 1520" transform="translate(96 .8)"/>
    <path id="Path_1521" d="M169.41 163.64l84.71 81.81 84.7-81.81z" class="cls-14" data-name="Path 1521" transform="translate(0 .8)"/>
    <path id="Path_1522" d="M338.82 163.64l84.71 81.81 84.71-81.81z" class="cls-14" data-name="Path 1522" transform="translate(128 .8)"/>
    <path id="Path_1523" d="M254.12 245.45l-84.71-81.81-84.7 81.81z" class="cls-36" data-name="Path 1523" transform="translate(0 .8)"/>
    <path id="Path_1524" d="M84.71 245.45L0 163.64v81.81z" class="cls-3" data-name="Path 1524" transform="translate(0 .8)"/>
    <path id="Path_1525" d="M0 163.64l84.71 81.81 84.7-81.81z" class="cls-14" data-name="Path 1525" transform="translate(0 .8)"/>
    <path id="Path_1526" d="M1355.29 327.27l-84.7-81.82-84.71 81.82z" class="cls-22" data-name="Path 1526" transform="translate(480 1.2)"/>
    <path id="Path_1527" d="M1101.18 245.45l84.7 81.82 84.71-81.82z" class="cls-12" data-name="Path 1527" transform="translate(480 1.2)"/>
    <path id="Path_1528" fill="#bababa" d="M1440 327.27v-81.82l-84.71 81.82z" data-name="Path 1528" transform="translate(480 1.2)"/>
    <path id="Path_1529" d="M1270.59 245.45l84.7 81.82 84.71-81.82z" class="cls-4" data-name="Path 1529" transform="translate(480 1.2)"/>
    <path id="Path_1530" d="M1185.88 327.27l-84.7-81.82-84.71 81.82z" class="cls-38" data-name="Path 1530" transform="translate(384 1.2)"/>
    <path id="Path_1531" d="M1016.47 327.27l-84.71-81.82-84.7 81.82z" class="cls-14" data-name="Path 1531" transform="translate(320 1.2)"/>
    <path id="Path_1532" d="M762.35 245.45l84.71 81.82 84.7-81.82z" class="cls-18" data-name="Path 1532" transform="translate(288 1.2)"/>
    <path id="Path_1533" d="M931.76 245.45l84.71 81.82 84.71-81.82z" class="cls-12" data-name="Path 1533" transform="translate(352 1.2)"/>
    <path id="Path_1534" d="M847.06 327.27l-84.71-81.82-84.7 81.82z" class="cls-11" data-name="Path 1534" transform="translate(256 1.2)"/>
    <path id="Path_1535" d="M677.65 327.27l-84.71-81.82-84.7 81.82z" class="cls-13" data-name="Path 1535" transform="translate(192 1.2)"/>
    <path id="Path_1536" d="M423.53 245.45l84.71 81.82 84.7-81.82z" class="cls-20" data-name="Path 1536" transform="translate(160 1.2)"/>
    <path id="Path_1537" d="M592.94 245.45l84.71 81.82 84.7-81.82z" class="cls-27" data-name="Path 1537" transform="translate(224 1.2)"/>
    <path id="Path_1538" d="M508.24 327.27l-84.71-81.82-84.71 81.82z" class="cls-39" data-name="Path 1538" transform="translate(128 1.2)"/>
    <path id="Path_1539" d="M338.82 327.27l-84.7-81.82-84.71 81.82z" class="cls-36" data-name="Path 1539" transform="translate(0 1.2)"/>
    <path id="Path_1540" d="M84.71 245.45l84.7 81.82 84.71-81.82z" class="cls-14" data-name="Path 1540" transform="translate(0 1.2)"/>
    <path id="Path_1541" d="M254.12 245.45l84.7 81.82 84.71-81.82z" class="cls-22" data-name="Path 1541" transform="translate(96 1.2)"/>
    <path id="Path_1542" d="M169.41 327.27l-84.7-81.82L0 327.27z" class="cls-40" data-name="Path 1542" transform="translate(0 1.2)"/>
    <path id="Path_1543" d="M0 245.45v81.82l84.71-81.82z" class="cls-41" data-name="Path 1543" transform="translate(0 1.2)"/>
    <path id="Path_1544" fill="#707070" d="M1016.47 327.27l84.71 81.82 84.7-81.82z" data-name="Path 1544" transform="translate(384 1.6)"/>
    <path id="Path_1545" d="M1270.59 409.09l-84.71-81.82-84.7 81.82z" class="cls-43" data-name="Path 1545" transform="translate(480 1.6)"/>
    <path id="Path_1546" d="M1440 409.09l-84.71-81.82-84.7 81.82z" class="cls-4" data-name="Path 1546" transform="translate(480 1.6)"/>
    <path id="Path_1547" fill="#8e8e8e" d="M1185.88 327.27l84.71 81.82 84.7-81.82z" data-name="Path 1547" transform="translate(480 1.6)"/>
    <path id="Path_1548" fill="#959595" d="M1355.29 327.27l84.71 81.82v-81.82z" data-name="Path 1548" transform="translate(480 1.6)"/>
    <path id="Path_1549" fill="#6b6b6b" d="M1101.18 409.09l-84.71-81.82-84.71 81.82z" data-name="Path 1549" transform="translate(352 1.6)"/>
    <path id="Path_1550" d="M931.76 409.09l-84.7-81.82-84.71 81.82z" class="cls-15" data-name="Path 1550" transform="translate(288 1.6)"/>
    <path id="Path_1551" d="M677.65 327.27l84.7 81.82 84.71-81.82z" class="cls-6" data-name="Path 1551" transform="translate(256 1.6)"/>
    <path id="Path_1552" d="M847.06 327.27l84.7 81.82 84.71-81.82z" class="cls-18" data-name="Path 1552" transform="translate(320 1.6)"/>
    <path id="Path_1553" fill="#e1e1e1" d="M762.35 409.09l-84.7-81.82-84.71 81.82z" data-name="Path 1553" transform="translate(224 1.6)"/>
    <path id="Path_1554" d="M592.94 409.09l-84.7-81.82-84.71 81.82z" class="cls-3" data-name="Path 1554" transform="translate(160 1.6)"/>
    <path id="Path_1555" d="M338.82 327.27l84.71 81.82 84.71-81.82z" class="cls-41" data-name="Path 1555" transform="translate(128 1.6)"/>
    <path id="Path_1556" d="M508.24 327.27l84.7 81.82 84.71-81.82z" class="cls-15" data-name="Path 1556" transform="translate(192 1.6)"/>
    <path id="Path_1557" d="M423.53 409.09l-84.71-81.82-84.7 81.82z" class="cls-40" data-name="Path 1557" transform="translate(96 1.6)"/>
    <path id="Path_1558" d="M254.12 409.09l-84.71-81.82-84.7 81.82z" class="cls-48" data-name="Path 1558" transform="translate(0 1.6)"/>
    <path id="Path_1559" d="M0 327.27l84.71 81.82 84.7-81.82z" class="cls-49" data-name="Path 1559" transform="translate(0 1.6)"/>
    <path id="Path_1560" fill="#b6b6b6" d="M169.41 327.27l84.71 81.82 84.7-81.82z" data-name="Path 1560" transform="translate(0 1.6)"/>
    <path id="Path_1561" fill="#aeaeae" d="M84.71 409.09L0 327.27v81.82z" data-name="Path 1561" transform="translate(0 1.6)"/>
    <path id="Path_1562" d="M1355.29 490.91l-84.7-81.82-84.71 81.82z" class="cls-27" data-name="Path 1562" transform="translate(480 2)"/>
    <path id="Path_1563" d="M1101.18 409.09l84.7 81.82 84.71-81.82z" class="cls-6" data-name="Path 1563" transform="translate(480 2)"/>
    <path id="Path_1564" fill="#9c9c9c" d="M1440 490.91v-81.82l-84.71 81.82z" data-name="Path 1564" transform="translate(480 2)"/>
    <path id="Path_1565" d="M1270.59 409.09l84.7 81.82 84.71-81.82z" class="cls-43" data-name="Path 1565" transform="translate(480 2)"/>
    <path id="Path_1566" d="M1185.88 490.91l-84.7-81.82-84.71 81.82z" class="cls-24" data-name="Path 1566" transform="translate(384 2)"/>
    <path id="Path_1567" d="M931.76 409.09l84.71 81.82 84.71-81.82z" class="cls-30" data-name="Path 1567" transform="translate(352 2)"/>
    <path id="Path_1568" d="M1016.47 490.91l-84.71-81.82-84.7 81.82z" class="cls-53" data-name="Path 1568" transform="translate(320 2)"/>
    <path id="Path_1569" d="M847.06 490.91l-84.71-81.82-84.7 81.82z" class="cls-34" data-name="Path 1569" transform="translate(256 2)"/>
    <path id="Path_1570" d="M592.94 409.09l84.71 81.82 84.7-81.82z" class="cls-33" data-name="Path 1570" transform="translate(224 2)"/>
    <path id="Path_1571" d="M762.35 409.09l84.71 81.82 84.7-81.82z" class="cls-15" data-name="Path 1571" transform="translate(288 2)"/>
    <path id="Path_1572" d="M677.65 490.91l-84.71-81.82-84.7 81.82z" class="cls-23" data-name="Path 1572" transform="translate(192 2)"/>
    <path id="Path_1573" d="M508.24 490.91l-84.71-81.82-84.71 81.82z" class="cls-7" data-name="Path 1573" transform="translate(128 2)"/>
    <path id="Path_1574" fill="#b7b7b7" d="M254.12 409.09l84.7 81.82 84.71-81.82z" data-name="Path 1574" transform="translate(96 2)"/>
    <path id="Path_1575" d="M423.53 409.09l84.71 81.82 84.7-81.82z" class="cls-22" data-name="Path 1575" transform="translate(160 2)"/>
    <path id="Path_1576" d="M338.82 490.91l-84.7-81.82-84.71 81.82z" class="cls-55" data-name="Path 1576" transform="translate(0 2)"/>
    <path id="Path_1577" d="M169.41 490.91l-84.7-81.82L0 490.91z" class="cls-56" data-name="Path 1577" transform="translate(0 2)"/>
    <path id="Path_1578" d="M0 409.09v81.82l84.71-81.82z" class="cls-6" data-name="Path 1578" transform="translate(0 2)"/>
    <path id="Path_1579" fill="#797979" d="M84.71 409.09l84.7 81.82 84.71-81.82z" data-name="Path 1579" transform="translate(0 2)"/>
    <path id="Path_1580" d="M1016.47 490.91l84.71 81.82 84.7-81.82z" class="cls-35" data-name="Path 1580" transform="translate(384 2.4)"/>
    <path id="Path_1581" d="M847.06 490.91l84.7 81.82 84.71-81.82z" class="cls-11" data-name="Path 1581" transform="translate(320 2.4)"/>
    <path id="Path_1582" d="M1270.59 572.73l-84.71-81.82-84.7 81.82z" class="cls-29" data-name="Path 1582" transform="translate(480 2.4)"/>
    <path id="Path_1583" fill="#bdbdbd" d="M1270.59 572.73l-84.71-81.82-84.7 81.82z" data-name="Path 1583" transform="translate(480 2.4)"/>
    <path id="Path_1584" fill="#656565" d="M1440 572.73l-84.71-81.82-84.7 81.82z" data-name="Path 1584" transform="translate(480 2.4)"/>
    <path id="Path_1585" d="M1185.88 490.91l84.71 81.82 84.7-81.82z" class="cls-60" data-name="Path 1585" transform="translate(480 2.4)"/>
    <path id="Path_1586" fill="#6a6a6a" d="M1355.29 490.91l84.71 81.82v-81.82z" data-name="Path 1586" transform="translate(480 2.4)"/>
    <path id="Path_1587" d="M1101.18 572.73l-84.71-81.82-84.71 81.82z" class="cls-62" data-name="Path 1587" transform="translate(352 2.4)"/>
    <path id="Path_1588" fill="#d4d4d4" d="M931.76 572.73l-84.7-81.82-84.71 81.82z" data-name="Path 1588" transform="translate(288 2.4)"/>
    <path id="Path_1589" d="M762.35 572.73l-84.7-81.82-84.71 81.82z" class="cls-56" data-name="Path 1589" transform="translate(224 2.4)"/>
    <path id="Path_1590" d="M508.24 490.91l84.7 81.82 84.71-81.82z" class="cls-56" data-name="Path 1590" transform="translate(192 2.4)"/>
    <path id="Path_1591" d="M677.65 490.91l84.7 81.82 84.71-81.82z" class="cls-17" data-name="Path 1591" transform="translate(256 2.4)"/>
    <path id="Path_1592" d="M592.94 572.73l-84.7-81.82-84.71 81.82z" class="cls-39" data-name="Path 1592" transform="translate(160 2.4)"/>
    <path id="Path_1593" d="M423.53 572.73l-84.71-81.82-84.7 81.82z" class="cls-3" data-name="Path 1593" transform="translate(96 2.4)"/>
    <path id="Path_1594" fill="#dcdcdc" d="M169.41 490.91l84.71 81.82 84.7-81.82z" data-name="Path 1594" transform="translate(0 2.4)"/>
    <path id="Path_1595" d="M338.82 490.91l84.71 81.82 84.71-81.82z" class="cls-25" data-name="Path 1595" transform="translate(128 2.4)"/>
    <path id="Path_1596" d="M254.12 572.73l-84.71-81.82-84.7 81.82z" class="cls-24" data-name="Path 1596" transform="translate(0 2.4)"/>
    <path id="Path_1597" d="M84.71 572.73L0 490.91v81.82z" class="cls-48" data-name="Path 1597" transform="translate(0 2.4)"/>
    <path id="Path_1598" d="M0 490.91l84.71 81.82 84.7-81.82z" class="cls-3" data-name="Path 1598" transform="translate(0 2.4)"/>
    <path id="Path_1599" fill="#c1c1c1" d="M1355.29 654.55l-84.7-81.82-84.71 81.82z" data-name="Path 1599" transform="translate(480 2.8)"/>
    <path id="Path_1600" d="M1101.18 572.73l84.7 81.82 84.71-81.82z" class="cls-36" data-name="Path 1600" transform="translate(480 2.8)"/>
    <path id="Path_1601" d="M1440 654.55v-81.82l-84.71 81.82z" class="cls-5" data-name="Path 1601" transform="translate(480 2.8)"/>
    <path id="Path_1602" d="M1270.59 572.73l84.7 81.82 84.71-81.82z" class="cls-66" data-name="Path 1602" transform="translate(480 2.8)"/>
    <path id="Path_1603" fill="#818181" d="M1185.88 654.55l-84.7-81.82-84.71 81.82z" data-name="Path 1603" transform="translate(384 2.8)"/>
    <path id="Path_1604" d="M931.76 572.73l84.71 81.82 84.71-81.82z" class="cls-35" data-name="Path 1604" transform="translate(352 2.8)"/>
    <path id="Path_1605" d="M1016.47 654.55l-84.71-81.82-84.7 81.82z" class="cls-53" data-name="Path 1605" transform="translate(320 2.8)"/>
    <path id="Path_1606" fill="#dbdbdb" d="M762.35 572.73l84.71 81.82 84.7-81.82z" data-name="Path 1606" transform="translate(288 2.8)"/>
    <path id="Path_1607" d="M847.06 654.55l-84.71-81.82-84.7 81.82z" class="cls-9" data-name="Path 1607" transform="translate(256 2.8)"/>
    <path id="Path_1608" d="M677.65 654.55l-84.71-81.82-84.7 81.82z" class="cls-69" data-name="Path 1608" transform="translate(192 2.8)"/>
    <path id="Path_1609" d="M423.53 572.73l84.71 81.82 84.7-81.82z" class="cls-48" data-name="Path 1609" transform="translate(160 2.8)"/>
    <path id="Path_1610" d="M592.94 572.73l84.71 81.82 84.7-81.82z" class="cls-10" data-name="Path 1610" transform="translate(224 2.8)"/>
    <path id="Path_1611" d="M508.24 654.55l-84.71-81.82-84.71 81.82z" class="cls-55" data-name="Path 1611" transform="translate(128 2.8)"/>
    <path id="Path_1612" d="M338.82 654.55l-84.7-81.82-84.71 81.82z" class="cls-31" data-name="Path 1612" transform="translate(0 2.8)"/>
    <path id="Path_1613" d="M84.71 572.73l84.7 81.82 84.71-81.82z" class="cls-9" data-name="Path 1613" transform="translate(0 2.8)"/>
    <path id="Path_1614" d="M254.12 572.73l84.7 81.82 84.71-81.82z" class="cls-69" data-name="Path 1614" transform="translate(96 2.8)"/>
    <path id="Path_1615" fill="#8f8f8f" d="M169.41 654.55l-84.7-81.82L0 654.55z" data-name="Path 1615" transform="translate(0 2.8)"/>
    <path id="Path_1616" d="M0 572.73v81.82l84.71-81.82z" class="cls-40" data-name="Path 1616" transform="translate(0 2.8)"/>
    <path id="Path_1617" d="M1016.47 654.55l84.71 81.81 84.7-81.81z" class="cls-71" data-name="Path 1617" transform="translate(384 3.2)"/>
    <path id="Path_1618" d="M847.06 654.55l84.7 81.81 84.71-81.81z" class="cls-69" data-name="Path 1618" transform="translate(320 3.2)"/>
    <path id="Path_1619" d="M1270.59 736.36l-84.71-81.81-84.7 81.81z" class="cls-21" data-name="Path 1619" transform="translate(480 3.2)"/>
    <path id="Path_1620" d="M1270.59 736.36l-84.71-81.81-84.7 81.81z" class="cls-21" data-name="Path 1620" transform="translate(480 3.2)"/>
    <path id="Path_1621" d="M1440 736.36l-84.71-81.81-84.7 81.81z" class="cls-72" data-name="Path 1621" transform="translate(480 3.2)"/>
    <path id="Path_1622" d="M1185.88 654.55l84.71 81.81 84.7-81.81z" class="cls-40" data-name="Path 1622" transform="translate(480 3.2)"/>
    <path id="Path_1623" d="M1355.29 654.55l84.71 81.81v-81.81z" class="cls-73" data-name="Path 1623" transform="translate(480 3.2)"/>
    <path id="Path_1624" d="M1355.29 654.55l84.71 81.81v-81.81z" class="cls-73" data-name="Path 1624" transform="translate(480 3.2)"/>
    <path id="Path_1625" fill="#dadada" d="M1101.18 736.36l-84.71-81.81-84.71 81.81z" data-name="Path 1625" transform="translate(352 3.2)"/>
    <path id="Path_1626" d="M931.76 736.36l-84.7-81.81-84.71 81.81z" class="cls-75" data-name="Path 1626" transform="translate(288 3.2)"/>
    <path id="Path_1627" d="M677.65 654.55l84.7 81.81 84.71-81.81z" class="cls-73" data-name="Path 1627" transform="translate(256 3.2)"/>
    <path id="Path_1628" d="M762.35 736.36l-84.7-81.81-84.71 81.81z" class="cls-9" data-name="Path 1628" transform="translate(224 3.2)"/>
    <path id="Path_1629" d="M592.94 736.36l-84.7-81.81-84.71 81.81z" class="cls-5" data-name="Path 1629" transform="translate(160 3.2)"/>
    <path id="Path_1630" d="M338.82 654.55l84.71 81.81 84.71-81.81z" class="cls-56" data-name="Path 1630" transform="translate(128 3.2)"/>
    <path id="Path_1631" fill="#7f7f7f" d="M508.24 654.55l84.7 81.81 84.71-81.81z" data-name="Path 1631" transform="translate(192 3.2)"/>
    <path id="Path_1632" d="M423.53 736.36l-84.71-81.81-84.7 81.81z" class="cls-34" data-name="Path 1632" transform="translate(96 3.2)"/>
    <path id="Path_1633" d="M254.12 736.36l-84.71-81.81-84.7 81.81z" class="cls-6" data-name="Path 1633" transform="translate(0 3.2)"/>
    <path id="Path_1634" d="M0 654.55l84.71 81.81 84.7-81.81z" class="cls-6" data-name="Path 1634" transform="translate(0 3.2)"/>
    <path id="Path_1635" d="M169.41 654.55l84.71 81.81 84.7-81.81z" class="cls-55" data-name="Path 1635" transform="translate(0 3.2)"/>
    <path id="Path_1636" d="M84.71 736.36L0 654.55v81.81z" class="cls-77" data-name="Path 1636" transform="translate(0 3.2)"/>
    <g id="Group_32" data-name="Group 32" transform="translate(0 740.36)">
      <path id="Path_1637" d="M1355.29 818.18l-84.7-81.82-84.71 81.82z" class="cls-49" data-name="Path 1637" transform="translate(480 -736.36)"/>
      <path id="Path_1638" d="M1101.18 736.36l84.7 81.82 84.71-81.82z" class="cls-17" data-name="Path 1638" transform="translate(480 -736.36)"/>
      <path id="Path_1639" fill="#6d6d6d" d="M1440 818.18v-81.82l-84.71 81.82z" data-name="Path 1639" transform="translate(480 -736.36)"/>
      <path id="Path_1640" d="M1270.59 736.36l84.7 81.82 84.71-81.82z" class="cls-21" data-name="Path 1640" transform="translate(480 -736.36)"/>
      <path id="Path_1641" d="M1185.88 818.18l-84.7-81.82-84.71 81.82z" class="cls-66" data-name="Path 1641" transform="translate(384 -736.36)"/>
      <path id="Path_1642" d="M931.76 736.36l84.71 81.82 84.71-81.82z" class="cls-79" data-name="Path 1642" transform="translate(352 -736.36)"/>
      <path id="Path_1643" fill="#8a8a8a" d="M1016.47 818.18l-84.71-81.82-84.7 81.82z" data-name="Path 1643" transform="translate(320 -736.36)"/>
      <path id="Path_1644" d="M762.35 736.36l84.71 81.82 84.7-81.82z" class="cls-81" data-name="Path 1644" transform="translate(288 -736.36)"/>
      <path id="Path_1645" d="M847.06 818.18l-84.71-81.82-84.7 81.82z" class="cls-72" data-name="Path 1645" transform="translate(256 -736.36)"/>
      <path id="Path_1646" d="M592.94 736.36l84.71 81.82 84.7-81.82z" class="cls-38" data-name="Path 1646" transform="translate(224 -736.36)"/>
      <path id="Path_1647" d="M677.65 818.18l-84.71-81.82-84.7 81.82z" class="cls-7" data-name="Path 1647" transform="translate(192 -736.36)"/>
      <path id="Path_1648" d="M508.24 818.18l-84.71-81.82-84.71 81.82z" class="cls-53" data-name="Path 1648" transform="translate(128 -736.36)"/>
      <path id="Path_1649" d="M254.12 736.36l84.7 81.82 84.71-81.82z" class="cls-3" data-name="Path 1649" transform="translate(96 -736.36)"/>
      <path id="Path_1650" d="M423.53 736.36l84.71 81.82 84.7-81.82z" class="cls-16" data-name="Path 1650" transform="translate(160 -736.36)"/>
      <path id="Path_1651" d="M338.82 818.18l-84.7-81.82-84.71 81.82z" class="cls-82" data-name="Path 1651" transform="translate(0 -736.36)"/>
      <path id="Path_1652" d="M169.41 818.18l-84.7-81.82L0 818.18z" class="cls-83" data-name="Path 1652" transform="translate(0 -736.36)"/>
      <path id="Path_1653" d="M0 736.36v81.82l84.71-81.82z" class="cls-83" data-name="Path 1653" transform="translate(0 -736.36)"/>
      <path id="Path_1654" d="M84.71 736.36l84.7 81.82 84.71-81.82z" class="cls-60" data-name="Path 1654" transform="translate(0 -736.36)"/>
    </g>
    <path id="Path_1655" d="M1016.47 818.18l84.71 81.82 84.7-81.82z" class="cls-79" data-name="Path 1655" transform="translate(384 4)"/>
    <path id="Path_1656" d="M847.06 818.18l84.7 81.82 84.71-81.82z" class="cls-40" data-name="Path 1656" transform="translate(320 4)"/>
    <path id="Path_1657" d="M1270.59 900l-84.71-81.82-84.7 81.82z" class="cls-81" data-name="Path 1657" transform="translate(480 4)"/>
    <path id="Path_1658" d="M1270.59 900l-84.71-81.82-84.7 81.82z" class="cls-69" data-name="Path 1658" transform="translate(480 4)"/>
    <path id="Path_1659" d="M1440 900l-84.71-81.82-84.7 81.82z" class="cls-21" data-name="Path 1659" transform="translate(480 4)"/>
    <path id="Path_1660" d="M1185.88 818.18l84.71 81.82 84.7-81.82z" class="cls-17" data-name="Path 1660" transform="translate(480 4)"/>
    <path id="Path_1661" d="M1355.29 818.18L1440 900v-81.82z" class="cls-81" data-name="Path 1661" transform="translate(480 4)"/>
    <path id="Path_1662" d="M1355.29 818.18L1440 900v-81.82z" class="cls-69" data-name="Path 1662" transform="translate(480 4)"/>
    <path id="Path_1663" d="M1101.18 900l-84.71-81.82L931.76 900z" class="cls-71" data-name="Path 1663" transform="translate(352 4)"/>
    <path id="Path_1664" d="M931.76 900l-84.7-81.82L762.35 900z" class="cls-75" data-name="Path 1664" transform="translate(288 4)"/>
    <path id="Path_1665" d="M677.65 818.18l84.7 81.82 84.71-81.82z" class="cls-38" data-name="Path 1665" transform="translate(256 4)"/>
    <path id="Path_1666" d="M762.35 900l-84.7-81.82L592.94 900z" class="cls-72" data-name="Path 1666" transform="translate(224 4)"/>
    <path id="Path_1667" d="M508.24 818.18l84.7 81.82 84.71-81.82z" class="cls-7" data-name="Path 1667" transform="translate(192 4)"/>
    <path id="Path_1668" d="M592.94 900l-84.7-81.82L423.53 900z" class="cls-38" data-name="Path 1668" transform="translate(160 4)"/>
    <path id="Path_1669" d="M423.53 900l-84.71-81.82-84.7 81.82z" class="cls-3" data-name="Path 1669" transform="translate(96 4)"/>
    <path id="Path_1670" d="M169.41 818.18L254.12 900l84.7-81.82z" class="cls-60" data-name="Path 1670" transform="translate(0 4)"/>
    <path id="Path_1671" d="M338.82 818.18L423.53 900l84.71-81.82z" class="cls-62" data-name="Path 1671" transform="translate(128 4)"/>
    <path id="Path_1672" d="M254.12 900l-84.71-81.82L84.71 900z" class="cls-82" data-name="Path 1672" transform="translate(0 4)"/>
    <path id="Path_1673" d="M84.71 900L0 818.18V900z" class="cls-40" data-name="Path 1673" transform="translate(0 4)"/>
    <path id="Path_1674" d="M0 818.18L84.71 900l84.7-81.82z" class="cls-77" data-name="Path 1674" transform="translate(0 4)"/>
  </g>
</svg>
