<svg xmlns="http://www.w3.org/2000/svg" id="Landing_Page_-_Device_1_1_" version="1.1" viewBox="0 0 1920 904">
  <defs/>
  <defs id="defs3933"/>
  <g id="Group_31" fill="#f2f2f2" data-name="Group 31">
    <path id="Rectangle_1492" fill="#f2f2f2" d="M0 0h1920v904H0z" data-name="Rectangle 1492"/>
  </g>
  <path id="Path_1470" fill="#f2f2f2" d="M1666 0l85 82 84-82z" class="cls-3" data-name="Path 1470"/>
  <path id="Path_1471" fill="#f2f2f2" d="M1920 82l-85-82-84 82z" class="cls-4" data-name="Path 1471"/>
  <path id="Path_1472" fill="#f2f2f2" d="M1751 82l-85-82-85 82z" class="cls-5" data-name="Path 1472"/>
  <path id="Path_1473" fill="#f2f2f2" d="M1400 0l85 82 85-82z" class="cls-6" data-name="Path 1473"/>
  <path id="Path_1474" fill="#f2f2f2" d="M1835 0l85 82V0z" class="cls-7" data-name="Path 1474"/>
  <path id="Path_1475" fill="#f2f2f2" d="M1453 82l-85-82-84 82z" data-name="Path 1475"/>
  <path id="Path_1476" fill="#f2f2f2" d="M1220 82l-85-82-85 82z" class="cls-9" data-name="Path 1476"/>
  <path id="Path_1477" fill="#f2f2f2" d="M934 0l84 82 85-82z" class="cls-10" data-name="Path 1477"/>
  <path id="Path_1478" fill="#f2f2f2" d="M1167 0l85 82 84-82z" class="cls-11" data-name="Path 1478"/>
  <path id="Path_1479" fill="#f2f2f2" d="M986 82L902 0l-85 82z" class="cls-10" data-name="Path 1479"/>
  <path id="Path_1480" fill="#f2f2f2" d="M753 82L668 0l-84 82z" class="cls-12" data-name="Path 1480"/>
  <path id="Path_1481" fill="#f2f2f2" d="M467 0l85 82 84-82z" class="cls-13" data-name="Path 1481"/>
  <path id="Path_1482" fill="#f2f2f2" d="M700 0l85 82 85-82z" class="cls-14" data-name="Path 1482"/>
  <path id="Path_1483" fill="#f2f2f2" d="M520 82L435 0l-85 82z" class="cls-15" data-name="Path 1483"/>
  <path id="Path_1484" fill="#f2f2f2" d="M254 82L169 0 85 82z" class="cls-16" data-name="Path 1484"/>
  <path id="Path_1485" fill="#f2f2f2" d="M85 82L0 0v82z" class="cls-7" data-name="Path 1485"/>
  <path id="Path_1486" fill="#f2f2f2" d="M0 0l85 82 84-82z" class="cls-17" data-name="Path 1486"/>
  <path id="Path_1487" fill="#f2f2f2" d="M169 0l85 82 85-82z" class="cls-18" data-name="Path 1487"/>
  <path id="Path_1488" fill="#f2f2f2" d="M1835 164l-84-82-85 82z" class="cls-19" data-name="Path 1488"/>
  <path id="Path_1489" fill="#f2f2f2" d="M1570 164l-85-82-85 82z" class="cls-20" data-name="Path 1489"/>
  <path id="Path_1490" fill="#f2f2f2" d="M1284 82l84 82 85-82z" class="cls-15" data-name="Path 1490"/>
  <path id="Path_1491" fill="#f2f2f2" d="M1581 82l85 82 85-82z" class="cls-21" data-name="Path 1491"/>
  <path id="Path_1492" fill="#f2f2f2" d="M1920 164V82l-85 82z" class="cls-11" data-name="Path 1492"/>
  <path id="Path_1493" fill="#f2f2f2" d="M1751 82l84 82 85-82z" class="cls-22" data-name="Path 1493"/>
  <path id="Path_1494" fill="#f2f2f2" d="M1336 164l-84-82-85 82z" class="cls-20" data-name="Path 1494"/>
  <path id="Path_1495" fill="#f2f2f2" d="M1103 164l-85-82-84 82z" class="cls-23" data-name="Path 1495"/>
  <path id="Path_1496" fill="#f2f2f2" d="M817 82l85 82 84-82z" class="cls-23" data-name="Path 1496"/>
  <path id="Path_1497" fill="#f2f2f2" d="M1050 82l85 82 85-82z" class="cls-24" data-name="Path 1497"/>
  <path id="Path_1498" fill="#ececec" d="M870 164l-85-82-85 82z" class="cls-10" data-name="Path 1498" opacity=".4"/>
  <path id="Path_1499" fill="#f2f2f2" d="M636 164l-84-82-85 82z" class="cls-11" data-name="Path 1499"/>
  <path id="Path_1500" fill="#f2f2f2" d="M350 82l85 82 85-82z" class="cls-16" data-name="Path 1500"/>
  <path id="Path_1501" fill="#f2f2f2" d="M584 82l84 82 85-82z" class="cls-25" data-name="Path 1501"/>
  <path id="Path_1502" fill="#f2f2f2" d="M339 164l-85-82-85 82z" class="cls-23" data-name="Path 1502"/>
  <path id="Path_1503" fill="#f2f2f2" d="M169 164L85 82 0 164z" data-name="Path 1503"/>
  <path id="Path_1504" fill="#f2f2f2" d="M0 82v82l85-82z" class="cls-27" data-name="Path 1504"/>
  <path id="Path_1505" fill="#f2f2f2" d="M85 82l84 82 85-82z" data-name="Path 1505"/>
  <path id="Path_1506" fill="#ececec" stroke="#f2f2f2" stroke-miterlimit="10" d="M1751 246l-85-82-85 82z" class="cls-29" data-name="Path 1506"/>
  <path id="Path_1507" fill="#f2f2f2" d="M1453 246l-85-82-84 82z" class="cls-12" data-name="Path 1507"/>
  <path id="Path_1508" fill="#f2f2f2" d="M1167 164l85 82 84-82z" class="cls-19" data-name="Path 1508"/>
  <path id="Path_1509" fill="#ececec" stroke="#f2f2f2" stroke-miterlimit="10" d="M1400 164l85 82 85-82z" class="cls-29" data-name="Path 1509"/>
  <path id="Path_1510" fill="#f2f2f2" d="M1751 246l-85-82-85 82z" class="cls-20" data-name="Path 1510"/>
  <path id="Path_1511" fill="#f2f2f2" d="M1400 164l85 82 85-82z" class="cls-23" data-name="Path 1511"/>
  <path id="Path_1512" fill="#f2f2f2" d="M1920 246l-85-82-84 82z" class="cls-30" data-name="Path 1512"/>
  <path id="Path_1513" fill="#f2f2f2" d="M1666 164l85 82 84-82z" class="cls-31" data-name="Path 1513"/>
  <path id="Path_1514" fill="#f2f2f2" d="M1835 164l85 82v-82z" data-name="Path 1514"/>
  <path id="Path_1515" fill="#f2f2f2" d="M1220 246l-85-82-85 82z" class="cls-14" data-name="Path 1515"/>
  <path id="Path_1516" fill="#f2f2f2" d="M986 246l-84-82-85 82z" class="cls-33" data-name="Path 1516"/>
  <path id="Path_1517" fill="#f2f2f2" d="M700 164l85 82 85-82z" class="cls-34" data-name="Path 1517"/>
  <path id="Path_1518" fill="#f2f2f2" d="M934 164l84 82 85-82z" class="cls-35" data-name="Path 1518"/>
  <path id="Path_1519" fill="#f2f2f2" d="M753 246l-85-82-84 82z" class="cls-23" data-name="Path 1519"/>
  <path id="Path_1520" fill="#f2f2f2" d="M520 246l-85-82-85 82z" class="cls-10" data-name="Path 1520"/>
  <path id="Path_1521" fill="#f2f2f2" d="M169 164l85 82 85-82z" class="cls-14" data-name="Path 1521"/>
  <path id="Path_1522" fill="#f2f2f2" d="M467 164l85 82 84-82z" class="cls-14" data-name="Path 1522"/>
  <path id="Path_1523" fill="#f2f2f2" d="M254 246l-85-82-84 82z" class="cls-36" data-name="Path 1523"/>
  <path id="Path_1524" fill="#f2f2f2" d="M85 246L0 164v82z" class="cls-3" data-name="Path 1524"/>
  <path id="Path_1525" fill="#f2f2f2" d="M0 164l85 82 84-82z" class="cls-14" data-name="Path 1525"/>
  <path id="Path_1526" fill="#f2f2f2" d="M1835 328l-84-81-85 81z" class="cls-22" data-name="Path 1526"/>
  <path id="Path_1527" fill="#f2f2f2" d="M1581 247l85 81 85-81z" class="cls-12" data-name="Path 1527"/>
  <path id="Path_1528" fill="#f2f2f2" d="M1920 328v-81l-85 81z" data-name="Path 1528"/>
  <path id="Path_1529" fill="#f2f2f2" d="M1751 247l84 81 85-81z" class="cls-4" data-name="Path 1529"/>
  <path id="Path_1530" fill="#ececec" d="M1570 328l-85-81-85 81z" class="cls-38" data-name="Path 1530" opacity=".4"/>
  <path id="Path_1531" fill="#f2f2f2" d="M1336 328l-84-81-85 81z" class="cls-14" data-name="Path 1531"/>
  <path id="Path_1532" fill="#f2f2f2" d="M1050 247l85 81 85-81z" class="cls-18" data-name="Path 1532"/>
  <path id="Path_1533" fill="#f2f2f2" d="M1284 247l84 81 85-81z" class="cls-12" data-name="Path 1533"/>
  <path id="Path_1534" fill="#f2f2f2" d="M1103 328l-85-81-84 81z" class="cls-11" data-name="Path 1534"/>
  <path id="Path_1535" fill="#f2f2f2" d="M870 328l-85-81-85 81z" class="cls-13" data-name="Path 1535"/>
  <path id="Path_1536" fill="#f2f2f2" d="M584 247l84 81 85-81z" class="cls-20" data-name="Path 1536"/>
  <path id="Path_1537" fill="#f2f2f2" d="M817 247l85 81 84-81z" class="cls-27" data-name="Path 1537"/>
  <path id="Path_1538" fill="#ececec" d="M636 328l-84-81-85 81z" class="cls-39" data-name="Path 1538" opacity=".3"/>
  <path id="Path_1539" fill="#f2f2f2" d="M339 328l-85-81-85 81z" class="cls-36" data-name="Path 1539"/>
  <path id="Path_1540" fill="#f2f2f2" d="M85 247l84 81 85-81z" class="cls-14" data-name="Path 1540"/>
  <path id="Path_1541" fill="#f2f2f2" d="M350 247l85 81 85-81z" class="cls-22" data-name="Path 1541"/>
  <path id="Path_1542" fill="#ececec" d="M169 328l-84-81-85 81z" class="cls-40" data-name="Path 1542" opacity=".6"/>
  <path id="Path_1543" fill="#f2f2f2" d="M0 247v81l85-81z" class="cls-41" data-name="Path 1543"/>
  <path id="Path_1544" fill="#f2f2f2" d="M1400 329l85 82 85-82z" data-name="Path 1544"/>
  <path id="Path_1545" fill="#f2f2f2" d="M1751 411l-85-82-85 82z" class="cls-43" data-name="Path 1545"/>
  <path id="Path_1546" fill="#f2f2f2" d="M1920 411l-85-82-84 82z" class="cls-4" data-name="Path 1546"/>
  <path id="Path_1547" fill="#f2f2f2" d="M1666 329l85 82 84-82z" data-name="Path 1547"/>
  <path id="Path_1548" fill="#f2f2f2" d="M1835 329l85 82v-82z" data-name="Path 1548"/>
  <path id="Path_1549" fill="#f2f2f2" d="M1453 411l-85-82-84 82z" data-name="Path 1549"/>
  <path id="Path_1550" fill="#f2f2f2" d="M1220 411l-85-82-85 82z" class="cls-15" data-name="Path 1550"/>
  <path id="Path_1551" fill="#f2f2f2" d="M934 329l84 82 85-82z" class="cls-6" data-name="Path 1551"/>
  <path id="Path_1552" fill="#ececec" d="M1167 329l85 82 84-82z" class="cls-18" data-name="Path 1552" opacity=".6"/>
  <path id="Path_1553" fill="#f2f2f2" d="M986 411l-84-82-85 82z" data-name="Path 1553"/>
  <path id="Path_1554" fill="#f2f2f2" d="M753 411l-85-82-84 82z" class="cls-3" data-name="Path 1554"/>
  <path id="Path_1555" fill="#f2f2f2" d="M467 329l85 82 84-82z" class="cls-41" data-name="Path 1555"/>
  <path id="Path_1556" fill="#ececec" d="M700 329l85 82 85-82z" class="cls-15" data-name="Path 1556" opacity=".4"/>
  <path id="Path_1557" fill="#f2f2f2" d="M520 411l-85-82-85 82z" class="cls-40" data-name="Path 1557"/>
  <path id="Path_1558" fill="#f2f2f2" d="M254 411l-85-82-84 82z" class="cls-48" data-name="Path 1558"/>
  <path id="Path_1559" fill="#f2f2f2" d="M0 329l85 82 84-82z" class="cls-49" data-name="Path 1559"/>
  <path id="Path_1560" fill="#f2f2f2" d="M169 329l85 82 85-82z" data-name="Path 1560"/>
  <path id="Path_1561" fill="#f2f2f2" d="M85 411L0 329v82z" data-name="Path 1561"/>
  <path id="Path_1562" fill="#f2f2f2" d="M1835 493l-84-82-85 82z" class="cls-27" data-name="Path 1562"/>
  <path id="Path_1563" fill="#f2f2f2" d="M1581 411l85 82 85-82z" class="cls-6" data-name="Path 1563"/>
  <path id="Path_1564" fill="#f2f2f2" d="M1920 493v-82l-85 82z" data-name="Path 1564"/>
  <path id="Path_1565" fill="#f2f2f2" d="M1751 411l84 82 85-82z" class="cls-43" data-name="Path 1565"/>
  <path id="Path_1566" fill="#f2f2f2" d="M1570 493l-85-82-85 82z" class="cls-24" data-name="Path 1566"/>
  <path id="Path_1567" fill="#f2f2f2" d="M1284 411l84 82 85-82z" class="cls-30" data-name="Path 1567"/>
  <path id="Path_1568" fill="#f2f2f2" d="M1336 493l-84-82-85 82z" class="cls-53" data-name="Path 1568"/>
  <path id="Path_1569" fill="#f2f2f2" d="M1103 493l-85-82-84 82z" class="cls-34" data-name="Path 1569"/>
  <path id="Path_1570" fill="#f2f2f2" d="M817 411l85 82 84-82z" class="cls-33" data-name="Path 1570"/>
  <path id="Path_1571" fill="#f2f2f2" d="M1050 411l85 82 85-82z" class="cls-15" data-name="Path 1571"/>
  <path id="Path_1572" fill="#f2f2f2" d="M870 493l-85-82-85 82z" class="cls-23" data-name="Path 1572"/>
  <path id="Path_1573" fill="#f2f2f2" d="M636 493l-84-82-85 82z" class="cls-7" data-name="Path 1573"/>
  <path id="Path_1574" fill="#ececec" d="M350 411l85 82 85-82z" data-name="Path 1574" opacity=".4"/>
  <path id="Path_1575" fill="#ececec" d="M584 411l84 82 85-82z" class="cls-22" data-name="Path 1575" opacity=".4"/>
  <path id="Path_1576" fill="#f2f2f2" d="M339 493l-85-82-85 82z" class="cls-55" data-name="Path 1576"/>
  <path id="Path_1577" fill="#f2f2f2" d="M169 493l-84-82-85 82z" class="cls-56" data-name="Path 1577"/>
  <path id="Path_1578" fill="#f2f2f2" d="M0 411v82l85-82z" class="cls-6" data-name="Path 1578"/>
  <path id="Path_1579" fill="#f2f2f2" d="M85 411l84 82 85-82z" data-name="Path 1579"/>
  <path id="Path_1580" fill="#ececec" d="M1400 493l85 82 85-82z" class="cls-35" data-name="Path 1580" opacity=".4"/>
  <path id="Path_1581" fill="#ececec" d="M1167 493l85 82 84-82z" class="cls-11" data-name="Path 1581" opacity=".6"/>
  <path id="Path_1582" fill="#ececec" stroke="#f2f2f2" stroke-miterlimit="10" d="M1751 575l-85-82-85 82z" class="cls-29" data-name="Path 1582"/>
  <path id="Path_1583" fill="#ececec" d="M1751 575l-85-82-85 82z" data-name="Path 1583" opacity=".3"/>
  <path id="Path_1584" fill="#f2f2f2" d="M1920 575l-85-82-84 82z" data-name="Path 1584"/>
  <path id="Path_1585" fill="#f2f2f2" d="M1666 493l85 82 84-82z" class="cls-60" data-name="Path 1585"/>
  <path id="Path_1586" fill="#f2f2f2" d="M1835 493l85 82v-82z" data-name="Path 1586"/>
  <path id="Path_1587" fill="#f2f2f2" d="M1453 575l-85-82-84 82z" class="cls-62" data-name="Path 1587"/>
  <path id="Path_1588" fill="#ececec" d="M1220 575l-85-82-85 82z" data-name="Path 1588" opacity=".4"/>
  <path id="Path_1589" fill="#f2f2f2" d="M986 575l-84-82-85 82z" class="cls-56" data-name="Path 1589"/>
  <path id="Path_1590" fill="#ececec" d="M700 493l85 82 85-82z" class="cls-56" data-name="Path 1590" opacity=".4"/>
  <path id="Path_1591" fill="#ececec" d="M934 493l84 82 85-82z" class="cls-17" data-name="Path 1591" opacity=".6"/>
  <path id="Path_1592" fill="#f2f2f2" d="M753 575l-85-82-84 82z" class="cls-39" data-name="Path 1592"/>
  <path id="Path_1593" fill="#f2f2f2" d="M520 575l-85-82-85 82z" class="cls-3" data-name="Path 1593"/>
  <path id="Path_1594" fill="#f2f2f2" d="M169 493l85 82 85-82z" data-name="Path 1594"/>
  <path id="Path_1595" fill="#f2f2f2" d="M467 493l85 82 84-82z" class="cls-25" data-name="Path 1595"/>
  <path id="Path_1596" fill="#f2f2f2" d="M254 575l-85-82-84 82z" class="cls-24" data-name="Path 1596"/>
  <path id="Path_1597" fill="#f2f2f2" d="M85 575L0 493v82z" class="cls-48" data-name="Path 1597"/>
  <path id="Path_1598" fill="#f2f2f2" d="M0 493l85 82 84-82z" class="cls-3" data-name="Path 1598"/>
  <path id="Path_1599" fill="#f2f2f2" d="M1835 657l-84-81-85 81z" data-name="Path 1599"/>
  <path id="Path_1600" fill="#f2f2f2" d="M1581 576l85 81 85-81z" class="cls-36" data-name="Path 1600" opacity=".8"/>
  <path id="Path_1601" fill="#f2f2f2" d="M1920 657v-81l-85 81z" class="cls-5" data-name="Path 1601"/>
  <path id="Path_1602" fill="#f2f2f2" d="M1751 576l84 81 85-81z" class="cls-66" data-name="Path 1602"/>
  <path id="Path_1603" fill="#f2f2f2" d="M1570 657l-85-81-85 81z" data-name="Path 1603"/>
  <path id="Path_1604" fill="#f2f2f2" d="M1284 576l84 81 85-81z" class="cls-35" data-name="Path 1604"/>
  <path id="Path_1605" fill="#f2f2f2" d="M1336 657l-84-81-85 81z" class="cls-53" data-name="Path 1605"/>
  <path id="Path_1606" fill="#f2f2f2" d="M1050 576l85 81 85-81z" data-name="Path 1606"/>
  <path id="Path_1607" fill="#f2f2f2" d="M1103 657l-85-81-84 81z" class="cls-9" data-name="Path 1607"/>
  <path id="Path_1608" fill="#f2f2f2" d="M870 657l-85-81-85 81z" class="cls-69" data-name="Path 1608"/>
  <path id="Path_1609" fill="#f2f2f2" d="M584 576l84 81 85-81z" class="cls-48" data-name="Path 1609"/>
  <path id="Path_1610" fill="#ececec" d="M817 576l85 81 84-81z" class="cls-10" data-name="Path 1610" opacity=".6"/>
  <path id="Path_1611" fill="#f2f2f2" d="M636 657l-84-81-85 81z" class="cls-55" data-name="Path 1611"/>
  <path id="Path_1612" fill="#f2f2f2" d="M339 657l-85-81-85 81z" class="cls-31" data-name="Path 1612"/>
  <path id="Path_1613" fill="#f2f2f2" d="M85 576l84 81 85-81z" class="cls-9" data-name="Path 1613"/>
  <path id="Path_1614" fill="#f2f2f2" d="M350 576l85 81 85-81z" class="cls-69" data-name="Path 1614"/>
  <path id="Path_1615" fill="#ececec" d="M169 657l-84-81-85 81z" data-name="Path 1615" opacity=".4"/>
  <path id="Path_1616" fill="#f2f2f2" d="M0 576v81l85-81z" class="cls-40" data-name="Path 1616"/>
  <path id="Path_1617" fill="#ececec" d="M1400 658l85 82 85-82z" class="cls-71" data-name="Path 1617" opacity=".4"/>
  <path id="Path_1618" fill="#ececec" d="M1167 658l85 82 84-82z" class="cls-69" data-name="Path 1618" opacity=".7"/>
  <path id="Path_1619" fill="#ececec" d="M1751 740l-85-82-85 82z" class="cls-21" data-name="Path 1619"/>
  <path id="Path_1620" fill="#f2f2f2" d="M1751 740l-85-82-85 82z" class="cls-21" data-name="Path 1620"/>
  <path id="Path_1621" fill="#f2f2f2" d="M1920 740l-85-82-84 82z" class="cls-72" data-name="Path 1621"/>
  <path id="Path_1622" fill="#f2f2f2" d="M1666 658l85 82 84-82z" class="cls-40" data-name="Path 1622"/>
  <path id="Path_1623" fill="#ececec" d="M1835 658l85 82v-82z" class="cls-73" data-name="Path 1623"/>
  <path id="Path_1624" fill="#f2f2f2" d="M1835 658l85 82v-82z" class="cls-73" data-name="Path 1624"/>
  <path id="Path_1625" fill="#f2f2f2" d="M1453 740l-85-82-84 82z" data-name="Path 1625"/>
  <path id="Path_1626" fill="#f2f2f2" d="M1220 740l-85-82-85 82z" class="cls-75" data-name="Path 1626"/>
  <path id="Path_1627" fill="#ececec" d="M934 658l84 82 85-82z" class="cls-73" data-name="Path 1627" opacity=".4"/>
  <path id="Path_1628" fill="#f2f2f2" d="M986 740l-84-82-85 82z" class="cls-9" data-name="Path 1628"/>
  <path id="Path_1629" fill="#f2f2f2" d="M753 740l-85-82-84 82z" class="cls-5" data-name="Path 1629"/>
  <path id="Path_1630" fill="#f2f2f2" d="M467 658l85 82 84-82z" class="cls-56" data-name="Path 1630"/>
  <path id="Path_1631" fill="#ececec" d="M700 658l85 82 85-82z" data-name="Path 1631" opacity=".7"/>
  <path id="Path_1632" fill="#f2f2f2" d="M520 740l-85-82-85 82z" class="cls-34" data-name="Path 1632"/>
  <path id="Path_1633" fill="#f2f2f2" d="M254 740l-85-82-84 82z" class="cls-6" data-name="Path 1633"/>
  <path id="Path_1634" fill="#f2f2f2" d="M0 658l85 82 84-82z" class="cls-6" data-name="Path 1634"/>
  <path id="Path_1635" fill="#f2f2f2" d="M169 658l85 82 85-82z" class="cls-55" data-name="Path 1635"/>
  <path id="Path_1636" fill="#f2f2f2" d="M85 740L0 658v82z" class="cls-77" data-name="Path 1636"/>
  <path id="Path_1637" fill="#f2f2f2" d="M1835 822l-84-82-85 82z" class="cls-49" data-name="Path 1637"/>
  <path id="Path_1638" fill="#ececec" d="M1581 740l85 82 85-82z" class="cls-17" data-name="Path 1638" opacity=".4"/>
  <path id="Path_1639" fill="#f2f2f2" d="M1920 822v-82l-85 82z" data-name="Path 1639"/>
  <path id="Path_1640" fill="#f2f2f2" d="M1751 740l84 82 85-82z" class="cls-21" data-name="Path 1640"/>
  <path id="Path_1641" fill="#f2f2f2" d="M1570 822l-85-82-85 82z" class="cls-66" data-name="Path 1641"/>
  <path id="Path_1642" fill="#ececec" d="M1284 740l84 82 85-82z" class="cls-79" data-name="Path 1642" opacity=".4"/>
  <path id="Path_1643" fill="#f2f2f2" d="M1336 822l-84-82-85 82z" data-name="Path 1643"/>
  <path id="Path_1644" fill="#ececec" d="M1050 740l85 82 85-82z" class="cls-81" data-name="Path 1644" opacity=".4"/>
  <path id="Path_1645" fill="#f2f2f2" d="M1103 822l-85-82-84 82z" class="cls-72" data-name="Path 1645"/>
  <path id="Path_1646" fill="#f2f2f2" d="M817 740l85 82 84-82z" class="cls-38" data-name="Path 1646"/>
  <path id="Path_1647" fill="#ececec" d="M870 822l-85-82-85 82z" class="cls-7" data-name="Path 1647" opacity=".6"/>
  <path id="Path_1648" fill="#ececec" d="M636 822l-84-82-85 82z" class="cls-53" data-name="Path 1648" opacity=".4"/>
  <path id="Path_1649" fill="#f2f2f2" d="M350 740l85 82 85-82z" class="cls-3" data-name="Path 1649"/>
  <path id="Path_1650" fill="#ececec" d="M584 740l84 82 85-82z" class="cls-16" data-name="Path 1650" opacity=".6"/>
  <path id="Path_1651" fill="#f2f2f2" d="M339 822l-85-82-85 82z" class="cls-82" data-name="Path 1651"/>
  <path id="Path_1652" fill="#ececec" d="M169 822l-84-82-85 82z" class="cls-83" data-name="Path 1652" opacity=".3"/>
  <path id="Path_1653" fill="#f2f2f2" d="M0 740v82l85-82z" class="cls-83" data-name="Path 1653"/>
  <path id="Path_1654" fill="#f2f2f2" d="M85 740l84 82 85-82z" class="cls-60" data-name="Path 1654" opacity=".8"/>
  <path id="Path_1655" fill="#ececec" d="M1400 822l85 82 85-82z" class="cls-79" data-name="Path 1655" opacity=".8"/>
  <path id="Path_1656" fill="#f2f2f2" d="M1167 822l85 82 84-82z" class="cls-40" data-name="Path 1656"/>
  <path id="Path_1657" fill="#ececec" d="M1751 904l-85-82-85 82z" class="cls-81" data-name="Path 1657"/>
  <path id="Path_1658" fill="#f2f2f2" d="M1751 904l-85-82-85 82z" class="cls-69" data-name="Path 1658"/>
  <path id="Path_1659" fill="#f2f2f2" d="M1920 904l-85-82-84 82z" class="cls-21" data-name="Path 1659"/>
  <path id="Path_1660" fill="#f2f2f2" d="M1666 822l85 82 84-82z" class="cls-17" data-name="Path 1660"/>
  <path id="Path_1661" fill="#ececec" d="M1835 822l85 82v-82z" class="cls-81" data-name="Path 1661"/>
  <path id="Path_1662" fill="#f2f2f2" d="M1835 822l85 82v-82z" class="cls-69" data-name="Path 1662"/>
  <path id="Path_1663" fill="#ececec" d="M1453 904l-85-82-84 82z" class="cls-71" data-name="Path 1663"/>
  <path id="Path_1664" fill="#ececec" d="M1220 904l-85-82-85 82z" class="cls-75" data-name="Path 1664" opacity=".4"/>
  <path id="Path_1665" fill="#ececec" d="M934 822l84 82 85-82z" class="cls-38" data-name="Path 1665" opacity=".7"/>
  <path id="Path_1666" fill="#f2f2f2" d="M986 904l-84-82-85 82z" class="cls-72" data-name="Path 1666"/>
  <path id="Path_1667" fill="#f2f2f2" d="M700 822l85 82 85-82z" class="cls-7" data-name="Path 1667"/>
  <path id="Path_1668" fill="#ececec" d="M753 904l-85-82-84 82z" class="cls-38" data-name="Path 1668" opacity=".8"/>
  <path id="Path_1669" fill="#ececec" d="M520 904l-85-82-85 82z" class="cls-3" data-name="Path 1669" opacity=".8"/>
  <path id="Path_1670" fill="#ececec" d="M169 822l85 82 85-82z" class="cls-60" data-name="Path 1670" opacity=".4"/>
  <path id="Path_1671" fill="#f2f2f2" d="M467 822l85 82 84-82z" class="cls-62" data-name="Path 1671"/>
  <path id="Path_1672" fill="#f2f2f2" d="M254 904l-85-82-84 82z" class="cls-82" data-name="Path 1672"/>
  <path id="Path_1673" fill="#f2f2f2" d="M85 904L0 822v82z" class="cls-40" data-name="Path 1673"/>
  <path id="Path_1674" fill="#f2f2f2" d="M0 822l85 82 84-82z" class="cls-77" data-name="Path 1674"/>
</svg>
